<mxfile host="65bd71144e" pages="2">
    <diagram id="yPxyJZ8AM_hMuL3Unpa9" name="complex gitflow">
        <mxGraphModel dx="1002" dy="-212" grid="0" gridSize="10" guides="1" tooltips="1" connect="1" arrows="1" fold="1" page="1" pageScale="1" pageWidth="1169" pageHeight="827" background="none" math="0" shadow="0">
            <root>
                <mxCell id="0"/>
                <mxCell id="1" parent="0"/>
                <mxCell id="de91WXhkAaFKcVFuTLli-15" value="" style="rounded=1;whiteSpace=wrap;html=1;opacity=50;strokeColor=none;fillColor=#d6d1d1;" parent="1" vertex="1">
                    <mxGeometry x="412" y="1271" width="345" height="82" as="geometry"/>
                </mxCell>
                <mxCell id="6Qrm2M-8ZxNgV9_P7dRE-2" value="&lt;pre&gt;&lt;font style=&quot;font-size: 18px;&quot;&gt;存储硬件（SSD,HDD...）&lt;/font&gt;&lt;/pre&gt;" style="rounded=1;whiteSpace=wrap;html=1;shadow=1;dashed=1;strokeColor=#FF6666;" parent="1" vertex="1">
                    <mxGeometry x="314.13" y="1507" width="460.87" height="80" as="geometry"/>
                </mxCell>
                <mxCell id="de91WXhkAaFKcVFuTLli-2" value="" style="rounded=0;orthogonalLoop=1;jettySize=auto;html=1;entryX=0.797;entryY=1.003;entryDx=0;entryDy=0;startArrow=block;entryPerimeter=0;" parent="1" source="6Qrm2M-8ZxNgV9_P7dRE-54" target="de91WXhkAaFKcVFuTLli-1" edge="1">
                    <mxGeometry relative="1" as="geometry"/>
                </mxCell>
                <mxCell id="de91WXhkAaFKcVFuTLli-5" value="" style="rounded=0;orthogonalLoop=1;jettySize=auto;html=1;startArrow=classic;startFill=1;entryX=0.793;entryY=0.007;entryDx=0;entryDy=0;entryPerimeter=0;" parent="1" source="6Qrm2M-8ZxNgV9_P7dRE-54" target="6Qrm2M-8ZxNgV9_P7dRE-1" edge="1">
                    <mxGeometry relative="1" as="geometry">
                        <mxPoint x="679" y="1172" as="targetPoint"/>
                    </mxGeometry>
                </mxCell>
                <mxCell id="de91WXhkAaFKcVFuTLli-13" style="rounded=0;orthogonalLoop=1;jettySize=auto;html=1;exitX=0;exitY=0.5;exitDx=0;exitDy=0;entryX=1;entryY=0.5;entryDx=0;entryDy=0;startArrow=classic;startFill=1;" parent="1" source="6Qrm2M-8ZxNgV9_P7dRE-54" target="de91WXhkAaFKcVFuTLli-8" edge="1">
                    <mxGeometry relative="1" as="geometry"/>
                </mxCell>
                <mxCell id="6Qrm2M-8ZxNgV9_P7dRE-54" value="&lt;pre&gt;&lt;font style=&quot;font-size: 16px;&quot;&gt;并行I/O中间件（MPI-IO）&lt;/font&gt;&lt;/pre&gt;" style="ellipse;whiteSpace=wrap;html=1;fillColor=#FFF4C3;" parent="1" vertex="1">
                    <mxGeometry x="579.75" y="1034" width="197" height="69" as="geometry"/>
                </mxCell>
                <mxCell id="de91WXhkAaFKcVFuTLli-1" value="&lt;pre&gt;&lt;font style=&quot;font-size: 20px;&quot;&gt;应用程序&lt;/font&gt;&lt;/pre&gt;" style="rounded=1;whiteSpace=wrap;html=1;fillColor=#dae8fc;strokeColor=#6c8ebf;dashed=1;" parent="1" vertex="1">
                    <mxGeometry x="319.63" y="911" width="448" height="60" as="geometry"/>
                </mxCell>
                <mxCell id="de91WXhkAaFKcVFuTLli-6" style="rounded=0;orthogonalLoop=1;jettySize=auto;html=1;entryX=0.07;entryY=0.014;entryDx=0;entryDy=0;entryPerimeter=0;dashed=1;dashPattern=12 12;startArrow=classic;startFill=1;fillColor=#dae8fc;strokeColor=#6c8ebf;" parent="1" target="6Qrm2M-8ZxNgV9_P7dRE-1" edge="1">
                    <mxGeometry relative="1" as="geometry">
                        <mxPoint x="352" y="972" as="sourcePoint"/>
                        <mxPoint x="351.86500000000024" y="1172.135" as="targetPoint"/>
                    </mxGeometry>
                </mxCell>
                <mxCell id="uWUnNED6HEl2aK5fdaIb-13" value="I/O转发层" style="text;html=1;strokeColor=none;fillColor=none;align=center;verticalAlign=middle;whiteSpace=wrap;overflow=hidden;fontSize=14;fontStyle=1;fontFamily=Courier New;" parent="1" vertex="1">
                    <mxGeometry x="671.25" y="1291" width="81" height="42" as="geometry"/>
                </mxCell>
                <mxCell id="6Qrm2M-8ZxNgV9_P7dRE-42" value="" style="shape=flexArrow;endArrow=classic;startArrow=classic;html=1;rounded=0;strokeColor=#ca3f3f;width=5;startWidth=10;endWidth=10;entryX=0.138;entryY=1;entryDx=0;entryDy=0;entryPerimeter=0;exitX=0.149;exitY=0.003;exitDx=0;exitDy=0;exitPerimeter=0;" parent="1" source="6Qrm2M-8ZxNgV9_P7dRE-4" target="6Qrm2M-8ZxNgV9_P7dRE-1" edge="1">
                    <mxGeometry width="100" height="100" relative="1" as="geometry">
                        <mxPoint x="386" y="1370" as="sourcePoint"/>
                        <mxPoint x="387.9000000000001" y="1252.633" as="targetPoint"/>
                    </mxGeometry>
                </mxCell>
                <mxCell id="6Qrm2M-8ZxNgV9_P7dRE-4" value="&lt;pre&gt;&lt;font style=&quot;font-size: 18px;&quot;&gt;并行文件系统（Lustre,GPFS...）&lt;/font&gt;&lt;/pre&gt;" style="rounded=1;whiteSpace=wrap;html=1;shadow=1;strokeColor=#d79b00;fillColor=#ffe6cc;" parent="1" vertex="1">
                    <mxGeometry x="314.13" y="1378" width="459" height="72" as="geometry"/>
                </mxCell>
                <mxCell id="6Qrm2M-8ZxNgV9_P7dRE-1" value="&lt;pre&gt;&lt;font style=&quot;font-size: 18px;&quot;&gt;底层I/O库（POSIX,STDIO...）&lt;/font&gt;&lt;/pre&gt;" style="rounded=1;whiteSpace=wrap;html=1;shadow=1;strokeColor=#36393d;fillColor=#f9f7ed;" parent="1" vertex="1">
                    <mxGeometry x="320.5" y="1174" width="452.5" height="71" as="geometry"/>
                </mxCell>
                <mxCell id="6Qrm2M-8ZxNgV9_P7dRE-18" value="" style="group" parent="1" vertex="1" connectable="0">
                    <mxGeometry x="469.88" y="1297" width="193.5" height="30" as="geometry"/>
                </mxCell>
                <mxCell id="uWUnNED6HEl2aK5fdaIb-17" value="" style="verticalLabelPosition=bottom;verticalAlign=top;html=1;strokeWidth=4;shape=mxgraph.flowchart.on-page_reference;plain-purple;gradientColor=none;strokeColor=#000000;fillColor=#D5E8D4;" parent="6Qrm2M-8ZxNgV9_P7dRE-18" vertex="1">
                    <mxGeometry x="108.93" width="30" height="30" as="geometry"/>
                </mxCell>
                <mxCell id="uWUnNED6HEl2aK5fdaIb-19" value="" style="verticalLabelPosition=bottom;verticalAlign=top;html=1;strokeWidth=4;shape=mxgraph.flowchart.on-page_reference;plain-purple;gradientColor=none;strokeColor=#000000;fillColor=#D5E8D4;" parent="6Qrm2M-8ZxNgV9_P7dRE-18" vertex="1">
                    <mxGeometry x="163.5" width="30" height="30" as="geometry"/>
                </mxCell>
                <mxCell id="6Qrm2M-8ZxNgV9_P7dRE-5" value="" style="verticalLabelPosition=bottom;verticalAlign=top;html=1;strokeWidth=4;shape=mxgraph.flowchart.on-page_reference;plain-purple;gradientColor=none;strokeColor=#000000;fillColor=#D5E8D4;" parent="6Qrm2M-8ZxNgV9_P7dRE-18" vertex="1">
                    <mxGeometry x="54.5" width="30" height="30" as="geometry"/>
                </mxCell>
                <mxCell id="6Qrm2M-8ZxNgV9_P7dRE-6" value="" style="verticalLabelPosition=bottom;verticalAlign=top;html=1;strokeWidth=4;shape=mxgraph.flowchart.on-page_reference;plain-purple;gradientColor=none;strokeColor=#000000;fillColor=#D5E8D4;" parent="6Qrm2M-8ZxNgV9_P7dRE-18" vertex="1">
                    <mxGeometry width="30" height="30" as="geometry"/>
                </mxCell>
                <mxCell id="6Qrm2M-8ZxNgV9_P7dRE-20" value="" style="endArrow=classic;startArrow=classic;html=1;rounded=0;entryX=0.5;entryY=1;entryDx=0;entryDy=0;entryPerimeter=0;exitX=0.494;exitY=0;exitDx=0;exitDy=0;exitPerimeter=0;" parent="1" source="6Qrm2M-8ZxNgV9_P7dRE-4" target="6Qrm2M-8ZxNgV9_P7dRE-5" edge="1">
                    <mxGeometry width="50" height="50" relative="1" as="geometry">
                        <mxPoint x="615.12" y="1390" as="sourcePoint"/>
                        <mxPoint x="615.12" y="1329" as="targetPoint"/>
                    </mxGeometry>
                </mxCell>
                <mxCell id="6Qrm2M-8ZxNgV9_P7dRE-22" value="" style="endArrow=classic;startArrow=classic;html=1;rounded=0;entryX=0.5;entryY=1;entryDx=0;entryDy=0;entryPerimeter=0;exitX=0.613;exitY=0.004;exitDx=0;exitDy=0;exitPerimeter=0;" parent="1" source="6Qrm2M-8ZxNgV9_P7dRE-4" target="uWUnNED6HEl2aK5fdaIb-17" edge="1">
                    <mxGeometry width="50" height="50" relative="1" as="geometry">
                        <mxPoint x="612.87" y="1405" as="sourcePoint"/>
                        <mxPoint x="611.87" y="1343" as="targetPoint"/>
                    </mxGeometry>
                </mxCell>
                <mxCell id="6Qrm2M-8ZxNgV9_P7dRE-37" style="rounded=0;orthogonalLoop=1;jettySize=auto;html=1;entryX=0.73;entryY=-0.018;entryDx=0;entryDy=0;entryPerimeter=0;startArrow=classic;startFill=1;" parent="1" source="uWUnNED6HEl2aK5fdaIb-19" target="6Qrm2M-8ZxNgV9_P7dRE-4" edge="1">
                    <mxGeometry relative="1" as="geometry"/>
                </mxCell>
                <mxCell id="6Qrm2M-8ZxNgV9_P7dRE-47" value="" style="rounded=0;orthogonalLoop=1;jettySize=auto;html=1;startArrow=open;startFill=0;" parent="1" source="6Qrm2M-8ZxNgV9_P7dRE-6" edge="1">
                    <mxGeometry relative="1" as="geometry">
                        <mxPoint x="485" y="1246" as="targetPoint"/>
                    </mxGeometry>
                </mxCell>
                <mxCell id="6Qrm2M-8ZxNgV9_P7dRE-48" value="" style="rounded=0;orthogonalLoop=1;jettySize=auto;html=1;startArrow=classic;startFill=1;entryX=0.487;entryY=1.004;entryDx=0;entryDy=0;entryPerimeter=0;" parent="1" source="6Qrm2M-8ZxNgV9_P7dRE-5" target="6Qrm2M-8ZxNgV9_P7dRE-1" edge="1">
                    <mxGeometry relative="1" as="geometry">
                        <mxPoint x="591.74" y="1247" as="targetPoint"/>
                    </mxGeometry>
                </mxCell>
                <mxCell id="6Qrm2M-8ZxNgV9_P7dRE-49" value="" style="rounded=0;orthogonalLoop=1;jettySize=auto;html=1;startArrow=classicThin;startFill=1;entryX=0.61;entryY=0.987;entryDx=0;entryDy=0;entryPerimeter=0;" parent="1" source="uWUnNED6HEl2aK5fdaIb-17" target="6Qrm2M-8ZxNgV9_P7dRE-1" edge="1">
                    <mxGeometry relative="1" as="geometry">
                        <mxPoint x="648" y="1246" as="targetPoint"/>
                    </mxGeometry>
                </mxCell>
                <mxCell id="6Qrm2M-8ZxNgV9_P7dRE-50" value="" style="rounded=0;orthogonalLoop=1;jettySize=auto;html=1;entryX=0.731;entryY=0.996;entryDx=0;entryDy=0;entryPerimeter=0;verticalAlign=middle;startArrow=openThin;startFill=0;" parent="1" source="uWUnNED6HEl2aK5fdaIb-19" target="6Qrm2M-8ZxNgV9_P7dRE-1" edge="1">
                    <mxGeometry relative="1" as="geometry">
                        <mxPoint x="700.74" y="1250" as="targetPoint"/>
                    </mxGeometry>
                </mxCell>
                <mxCell id="6Qrm2M-8ZxNgV9_P7dRE-51" style="rounded=0;orthogonalLoop=1;jettySize=auto;html=1;startArrow=classicThin;startFill=1;entryX=0.372;entryY=0.019;entryDx=0;entryDy=0;entryPerimeter=0;" parent="1" source="6Qrm2M-8ZxNgV9_P7dRE-6" target="6Qrm2M-8ZxNgV9_P7dRE-4" edge="1">
                    <mxGeometry relative="1" as="geometry">
                        <mxPoint x="540" y="1365" as="targetPoint"/>
                    </mxGeometry>
                </mxCell>
                <mxCell id="de91WXhkAaFKcVFuTLli-12" style="rounded=0;orthogonalLoop=1;jettySize=auto;html=1;startArrow=classic;startFill=1;" parent="1" edge="1">
                    <mxGeometry relative="1" as="geometry">
                        <mxPoint x="450" y="1102" as="sourcePoint"/>
                        <mxPoint x="450" y="1172" as="targetPoint"/>
                    </mxGeometry>
                </mxCell>
                <mxCell id="de91WXhkAaFKcVFuTLli-8" value="&lt;pre&gt;&lt;font style=&quot;font-size: 18px;&quot;&gt;高层I/O库&lt;/font&gt;&lt;/pre&gt;&lt;pre&gt;&lt;font style=&quot;font-size: 18px;&quot;&gt;（HDF5,ADIOS...）&lt;/font&gt;&lt;/pre&gt;" style="rounded=1;whiteSpace=wrap;html=1;fillColor=#CCFFD1;" parent="1" vertex="1">
                    <mxGeometry x="378.38" y="1027.75" width="152.37" height="81.5" as="geometry"/>
                </mxCell>
                <mxCell id="de91WXhkAaFKcVFuTLli-11" style="rounded=0;orthogonalLoop=1;jettySize=auto;html=1;startArrow=classic;startFill=1;" parent="1" source="de91WXhkAaFKcVFuTLli-8" edge="1">
                    <mxGeometry relative="1" as="geometry">
                        <mxPoint x="455" y="971" as="targetPoint"/>
                    </mxGeometry>
                </mxCell>
                <mxCell id="de91WXhkAaFKcVFuTLli-32" value="" style="shape=flexArrow;endArrow=classic;startArrow=classic;html=1;rounded=0;dashed=1;" parent="1" edge="1">
                    <mxGeometry width="100" height="100" relative="1" as="geometry">
                        <mxPoint x="370" y="1506" as="sourcePoint"/>
                        <mxPoint x="370" y="1452" as="targetPoint"/>
                    </mxGeometry>
                </mxCell>
                <mxCell id="de91WXhkAaFKcVFuTLli-33" value="" style="shape=flexArrow;endArrow=classic;startArrow=classic;html=1;rounded=0;exitX=0.095;exitY=0.022;exitDx=0;exitDy=0;exitPerimeter=0;dashed=1;entryX=0.37;entryY=1.009;entryDx=0;entryDy=0;entryPerimeter=0;" parent="1" target="6Qrm2M-8ZxNgV9_P7dRE-4" edge="1">
                    <mxGeometry width="100" height="100" relative="1" as="geometry">
                        <mxPoint x="482.25" y="1507" as="sourcePoint"/>
                        <mxPoint x="482" y="1456" as="targetPoint"/>
                    </mxGeometry>
                </mxCell>
                <mxCell id="de91WXhkAaFKcVFuTLli-34" value="" style="shape=flexArrow;endArrow=classic;startArrow=classic;html=1;rounded=0;entryX=0.095;entryY=0.988;entryDx=0;entryDy=0;entryPerimeter=0;exitX=0.095;exitY=0.022;exitDx=0;exitDy=0;exitPerimeter=0;dashed=1;" parent="1" edge="1">
                    <mxGeometry width="100" height="100" relative="1" as="geometry">
                        <mxPoint x="598" y="1510" as="sourcePoint"/>
                        <mxPoint x="598" y="1450" as="targetPoint"/>
                    </mxGeometry>
                </mxCell>
                <mxCell id="de91WXhkAaFKcVFuTLli-35" value="" style="shape=flexArrow;endArrow=classic;startArrow=classic;html=1;rounded=0;exitX=0.095;exitY=0.022;exitDx=0;exitDy=0;exitPerimeter=0;dashed=1;" parent="1" edge="1">
                    <mxGeometry width="100" height="100" relative="1" as="geometry">
                        <mxPoint x="700.25" y="1507" as="sourcePoint"/>
                        <mxPoint x="700" y="1447" as="targetPoint"/>
                    </mxGeometry>
                </mxCell>
            </root>
        </mxGraphModel>
    </diagram>
    <diagram id="AIcp9rdyEztHgGKMyT2w" name="第 2 页">
        <mxGraphModel dx="871" dy="535" grid="1" gridSize="10" guides="1" tooltips="1" connect="1" arrows="1" fold="1" page="1" pageScale="1" pageWidth="1169" pageHeight="827" math="0" shadow="0">
            <root>
                <mxCell id="0"/>
                <mxCell id="1" parent="0"/>
                <mxCell id="YCX0NGYQ5Nv7W-sqLCVU-251" value="" style="rounded=0;whiteSpace=wrap;html=1;fillColor=#333333;" vertex="1" parent="1">
                    <mxGeometry x="50" y="1790" width="2190" height="1700" as="geometry"/>
                </mxCell>
                <mxCell id="wtNR7RmMgLV1tPpnNcpE-1" value="Hotfix Commit" style="text;html=1;strokeColor=none;fillColor=none;align=center;verticalAlign=middle;whiteSpace=wrap;overflow=hidden;" parent="1" vertex="1">
                    <mxGeometry x="427.25" y="226" width="80" height="30" as="geometry"/>
                </mxCell>
                <mxCell id="wtNR7RmMgLV1tPpnNcpE-2" value="" style="edgeStyle=orthogonalEdgeStyle;rounded=0;html=1;jettySize=auto;orthogonalLoop=1;plain-blue;endArrow=none;endFill=0;strokeWidth=4;strokeColor=#000000;entryX=0;entryY=0.5;entryDx=0;entryDy=0;entryPerimeter=0;" parent="1" source="wtNR7RmMgLV1tPpnNcpE-4" target="wtNR7RmMgLV1tPpnNcpE-52" edge="1">
                    <mxGeometry x="292.25" y="211" as="geometry">
                        <mxPoint x="442.25" y="211" as="targetPoint"/>
                    </mxGeometry>
                </mxCell>
                <mxCell id="wtNR7RmMgLV1tPpnNcpE-3" style="edgeStyle=orthogonalEdgeStyle;curved=1;rounded=0;html=1;exitX=1;exitY=0.5;exitPerimeter=0;entryX=0;entryY=0.5;entryPerimeter=0;endArrow=none;endFill=0;jettySize=auto;orthogonalLoop=1;strokeWidth=4;fontSize=15;" parent="1" source="wtNR7RmMgLV1tPpnNcpE-4" target="wtNR7RmMgLV1tPpnNcpE-10" edge="1">
                    <mxGeometry relative="1" as="geometry"/>
                </mxCell>
                <mxCell id="wtNR7RmMgLV1tPpnNcpE-4" value="" style="verticalLabelPosition=bottom;verticalAlign=top;html=1;strokeWidth=4;shape=mxgraph.flowchart.on-page_reference;plain-blue;gradientColor=none;fillColor=#B5E3Fe;strokeColor=#000000;" parent="1" vertex="1">
                    <mxGeometry x="262.25" y="196" width="30" height="30" as="geometry"/>
                </mxCell>
                <mxCell id="wtNR7RmMgLV1tPpnNcpE-5" value="" style="edgeStyle=orthogonalEdgeStyle;curved=1;rounded=0;orthogonalLoop=1;jettySize=auto;html=1;endArrow=none;endFill=0;strokeWidth=4;entryX=0;entryY=0.5;entryDx=0;entryDy=0;entryPerimeter=0;" parent="1" source="wtNR7RmMgLV1tPpnNcpE-7" target="wtNR7RmMgLV1tPpnNcpE-8" edge="1">
                    <mxGeometry relative="1" as="geometry">
                        <mxPoint x="734.4999999999995" y="211" as="targetPoint"/>
                    </mxGeometry>
                </mxCell>
                <mxCell id="wtNR7RmMgLV1tPpnNcpE-6" style="edgeStyle=orthogonalEdgeStyle;curved=1;rounded=0;orthogonalLoop=1;jettySize=auto;html=1;exitX=1;exitY=0.5;exitDx=0;exitDy=0;exitPerimeter=0;entryX=0;entryY=0.5;entryDx=0;entryDy=0;entryPerimeter=0;endArrow=none;endFill=0;strokeWidth=4;fontFamily=Courier New;fontColor=#009900;" parent="1" source="wtNR7RmMgLV1tPpnNcpE-7" target="wtNR7RmMgLV1tPpnNcpE-37" edge="1">
                    <mxGeometry relative="1" as="geometry"/>
                </mxCell>
                <mxCell id="wtNR7RmMgLV1tPpnNcpE-7" value="" style="verticalLabelPosition=bottom;verticalAlign=top;html=1;strokeWidth=4;shape=mxgraph.flowchart.on-page_reference;plain-blue;gradientColor=none;strokeColor=#000000;fillColor=#B5E3FE;" parent="1" vertex="1">
                    <mxGeometry x="622.25" y="196" width="30" height="30" as="geometry"/>
                </mxCell>
                <mxCell id="wtNR7RmMgLV1tPpnNcpE-8" value="" style="verticalLabelPosition=bottom;verticalAlign=top;html=1;strokeWidth=4;shape=mxgraph.flowchart.on-page_reference;plain-blue;gradientColor=none;strokeColor=#33001A;fillColor=#B5E3FE;" parent="1" vertex="1">
                    <mxGeometry x="861.25" y="196" width="30" height="30" as="geometry"/>
                </mxCell>
                <mxCell id="wtNR7RmMgLV1tPpnNcpE-9" value="" style="edgeStyle=orthogonalEdgeStyle;rounded=0;html=1;jettySize=auto;orthogonalLoop=1;strokeWidth=4;endArrow=none;endFill=0;" parent="1" target="wtNR7RmMgLV1tPpnNcpE-4" edge="1">
                    <mxGeometry x="192.25" y="211" as="geometry">
                        <mxPoint x="150" y="211" as="sourcePoint"/>
                    </mxGeometry>
                </mxCell>
                <mxCell id="wtNR7RmMgLV1tPpnNcpE-10" value="" style="verticalLabelPosition=bottom;verticalAlign=top;html=1;strokeWidth=4;shape=mxgraph.flowchart.on-page_reference;plain-purple;gradientColor=none;strokeColor=#000000;fillColor=#D5E8D4;" parent="1" vertex="1">
                    <mxGeometry x="339.75" y="281" width="30" height="30" as="geometry"/>
                </mxCell>
                <mxCell id="wtNR7RmMgLV1tPpnNcpE-11" value="1.1.0-release" style="text;html=1;strokeColor=none;fillColor=none;align=left;verticalAlign=middle;whiteSpace=wrap;overflow=hidden;fontSize=14;fontStyle=1;fontFamily=Courier New;" parent="1" vertex="1">
                    <mxGeometry x="88.75" y="286" width="240" height="20" as="geometry"/>
                </mxCell>
                <mxCell id="wtNR7RmMgLV1tPpnNcpE-12" value="" style="edgeStyle=orthogonalEdgeStyle;rounded=0;orthogonalLoop=1;jettySize=auto;html=1;endArrow=none;endFill=0;strokeWidth=4;" parent="1" source="wtNR7RmMgLV1tPpnNcpE-15" target="wtNR7RmMgLV1tPpnNcpE-17" edge="1">
                    <mxGeometry relative="1" as="geometry"/>
                </mxCell>
                <mxCell id="wtNR7RmMgLV1tPpnNcpE-13" style="edgeStyle=orthogonalEdgeStyle;rounded=0;orthogonalLoop=1;jettySize=auto;html=1;entryX=1;entryY=0.5;entryDx=0;entryDy=0;entryPerimeter=0;endArrow=none;endFill=0;strokeWidth=4;curved=1;" parent="1" source="wtNR7RmMgLV1tPpnNcpE-15" target="wtNR7RmMgLV1tPpnNcpE-10" edge="1">
                    <mxGeometry relative="1" as="geometry"/>
                </mxCell>
                <mxCell id="wtNR7RmMgLV1tPpnNcpE-14" style="edgeStyle=orthogonalEdgeStyle;curved=1;rounded=0;orthogonalLoop=1;jettySize=auto;html=1;exitX=1;exitY=0.5;exitDx=0;exitDy=0;exitPerimeter=0;entryX=0;entryY=0.5;entryDx=0;entryDy=0;entryPerimeter=0;endArrow=none;endFill=0;strokeWidth=4;fontFamily=Courier New;fontColor=#009900;" parent="1" source="wtNR7RmMgLV1tPpnNcpE-15" target="wtNR7RmMgLV1tPpnNcpE-23" edge="1">
                    <mxGeometry relative="1" as="geometry"/>
                </mxCell>
                <mxCell id="wtNR7RmMgLV1tPpnNcpE-15" value="" style="verticalLabelPosition=bottom;verticalAlign=top;html=1;strokeWidth=4;shape=mxgraph.flowchart.on-page_reference;plain-purple;gradientColor=none;strokeColor=#000000;fillColor=#D5E8D4;" parent="1" vertex="1">
                    <mxGeometry x="416.75" y="361" width="30" height="30" as="geometry"/>
                </mxCell>
                <mxCell id="wtNR7RmMgLV1tPpnNcpE-16" value="" style="edgeStyle=orthogonalEdgeStyle;curved=1;rounded=0;orthogonalLoop=1;jettySize=auto;html=1;endArrow=none;endFill=0;strokeWidth=4;" parent="1" source="wtNR7RmMgLV1tPpnNcpE-17" target="wtNR7RmMgLV1tPpnNcpE-19" edge="1">
                    <mxGeometry relative="1" as="geometry"/>
                </mxCell>
                <mxCell id="wtNR7RmMgLV1tPpnNcpE-17" value="" style="verticalLabelPosition=bottom;verticalAlign=top;html=1;strokeWidth=4;shape=mxgraph.flowchart.on-page_reference;plain-purple;gradientColor=none;strokeColor=#000000;fillColor=#D5E8D4;" parent="1" vertex="1">
                    <mxGeometry x="514.75" y="361" width="30" height="30" as="geometry"/>
                </mxCell>
                <mxCell id="wtNR7RmMgLV1tPpnNcpE-18" value="" style="edgeStyle=orthogonalEdgeStyle;curved=1;rounded=0;orthogonalLoop=1;jettySize=auto;html=1;endArrow=none;endFill=0;strokeWidth=4;fontFamily=Courier New;fontColor=#009900;" parent="1" source="wtNR7RmMgLV1tPpnNcpE-19" target="wtNR7RmMgLV1tPpnNcpE-21" edge="1">
                    <mxGeometry relative="1" as="geometry"/>
                </mxCell>
                <mxCell id="wtNR7RmMgLV1tPpnNcpE-19" value="" style="verticalLabelPosition=bottom;verticalAlign=top;html=1;strokeWidth=4;shape=mxgraph.flowchart.on-page_reference;plain-purple;gradientColor=none;strokeColor=#000000;fillColor=#D5E8D4;" parent="1" vertex="1">
                    <mxGeometry x="594.75" y="361" width="30" height="30" as="geometry"/>
                </mxCell>
                <mxCell id="wtNR7RmMgLV1tPpnNcpE-20" style="edgeStyle=orthogonalEdgeStyle;curved=1;rounded=0;orthogonalLoop=1;jettySize=auto;html=1;entryX=0;entryY=0.5;entryDx=0;entryDy=0;entryPerimeter=0;endArrow=none;endFill=0;strokeWidth=4;fontFamily=Courier New;fontColor=#009900;" parent="1" source="wtNR7RmMgLV1tPpnNcpE-21" target="wtNR7RmMgLV1tPpnNcpE-39" edge="1">
                    <mxGeometry relative="1" as="geometry"/>
                </mxCell>
                <mxCell id="wtNR7RmMgLV1tPpnNcpE-21" value="" style="verticalLabelPosition=bottom;verticalAlign=top;html=1;strokeWidth=4;shape=mxgraph.flowchart.on-page_reference;plain-purple;gradientColor=none;strokeColor=#000000;fillColor=#D5E8D4;" parent="1" vertex="1">
                    <mxGeometry x="696.75" y="361" width="30" height="30" as="geometry"/>
                </mxCell>
                <mxCell id="wtNR7RmMgLV1tPpnNcpE-22" value="develop" style="text;html=1;strokeColor=none;fillColor=none;align=left;verticalAlign=middle;whiteSpace=wrap;overflow=hidden;fontSize=14;fontStyle=1;fontFamily=Courier New;" parent="1" vertex="1">
                    <mxGeometry x="87.75" y="364" width="91" height="20" as="geometry"/>
                </mxCell>
                <mxCell id="wtNR7RmMgLV1tPpnNcpE-23" value="" style="verticalLabelPosition=bottom;verticalAlign=top;html=1;strokeWidth=4;shape=mxgraph.flowchart.on-page_reference;plain-purple;gradientColor=none;strokeColor=#000000;fillColor=#D5E8D4;" parent="1" vertex="1">
                    <mxGeometry x="500.75" y="440" width="30" height="30" as="geometry"/>
                </mxCell>
                <mxCell id="wtNR7RmMgLV1tPpnNcpE-24" style="edgeStyle=orthogonalEdgeStyle;curved=1;rounded=0;orthogonalLoop=1;jettySize=auto;html=1;exitX=1;exitY=0.5;exitDx=0;exitDy=0;exitPerimeter=0;entryX=0;entryY=0.5;entryDx=0;entryDy=0;entryPerimeter=0;endArrow=none;endFill=0;strokeWidth=4;fontFamily=Courier New;fontColor=#009900;" parent="1" source="wtNR7RmMgLV1tPpnNcpE-25" target="wtNR7RmMgLV1tPpnNcpE-21" edge="1">
                    <mxGeometry relative="1" as="geometry"/>
                </mxCell>
                <mxCell id="wtNR7RmMgLV1tPpnNcpE-25" value="" style="verticalLabelPosition=bottom;verticalAlign=top;html=1;strokeWidth=4;shape=mxgraph.flowchart.on-page_reference;plain-purple;gradientColor=none;strokeColor=#000000;fillColor=#D5E8D4;" parent="1" vertex="1">
                    <mxGeometry x="611.75" y="440" width="30" height="30" as="geometry"/>
                </mxCell>
                <mxCell id="wtNR7RmMgLV1tPpnNcpE-26" value="JIRA-35--example feature" style="text;html=1;strokeColor=none;fillColor=none;align=left;verticalAlign=middle;whiteSpace=wrap;overflow=hidden;fontSize=14;fontStyle=1;fontFamily=Courier New;" parent="1" vertex="1">
                    <mxGeometry x="87.5" y="445" width="240" height="20" as="geometry"/>
                </mxCell>
                <mxCell id="wtNR7RmMgLV1tPpnNcpE-27" value="The development or sprint branch" style="text;html=1;strokeColor=none;fillColor=none;align=left;verticalAlign=middle;whiteSpace=wrap;overflow=hidden;fontSize=14;fontStyle=0;fontColor=#009900;" parent="1" vertex="1">
                    <mxGeometry x="85.75" y="384" width="240" height="20" as="geometry"/>
                </mxCell>
                <mxCell id="wtNR7RmMgLV1tPpnNcpE-28" value="Your feature branch" style="text;html=1;strokeColor=none;fillColor=none;align=left;verticalAlign=middle;whiteSpace=wrap;overflow=hidden;fontSize=14;fontStyle=0;fontColor=#009900;" parent="1" vertex="1">
                    <mxGeometry x="85.75" y="465" width="240" height="20" as="geometry"/>
                </mxCell>
                <mxCell id="wtNR7RmMgLV1tPpnNcpE-29" value="The release branch" style="text;html=1;strokeColor=none;fillColor=none;align=left;verticalAlign=middle;whiteSpace=wrap;overflow=hidden;fontSize=14;fontStyle=0;fontColor=#009900;" parent="1" vertex="1">
                    <mxGeometry x="86.75" y="306" width="240" height="20" as="geometry"/>
                </mxCell>
                <mxCell id="wtNR7RmMgLV1tPpnNcpE-30" value="The main branch&lt;br&gt;" style="text;html=1;strokeColor=none;fillColor=none;align=left;verticalAlign=middle;whiteSpace=wrap;overflow=hidden;fontSize=14;fontStyle=0;fontColor=#009900;" parent="1" vertex="1">
                    <mxGeometry x="88.25" y="220" width="146.75" height="20" as="geometry"/>
                </mxCell>
                <mxCell id="wtNR7RmMgLV1tPpnNcpE-31" value="" style="endArrow=classic;html=1;strokeWidth=1;fontFamily=Courier New;fontColor=#009900;" parent="1" edge="1">
                    <mxGeometry width="50" height="50" relative="1" as="geometry">
                        <mxPoint x="306.75" y="454.5" as="sourcePoint"/>
                        <mxPoint x="456.75" y="455" as="targetPoint"/>
                    </mxGeometry>
                </mxCell>
                <mxCell id="wtNR7RmMgLV1tPpnNcpE-32" value="" style="endArrow=classic;html=1;strokeWidth=1;fontFamily=Courier New;fontColor=#009900;" parent="1" edge="1">
                    <mxGeometry width="50" height="50" relative="1" as="geometry">
                        <mxPoint x="186.75" y="374" as="sourcePoint"/>
                        <mxPoint x="376.75" y="374" as="targetPoint"/>
                    </mxGeometry>
                </mxCell>
                <mxCell id="wtNR7RmMgLV1tPpnNcpE-33" value="" style="endArrow=classic;html=1;strokeWidth=1;fontFamily=Courier New;fontColor=#009900;" parent="1" edge="1">
                    <mxGeometry width="50" height="50" relative="1" as="geometry">
                        <mxPoint x="216.75" y="296" as="sourcePoint"/>
                        <mxPoint x="296.75" y="296" as="targetPoint"/>
                    </mxGeometry>
                </mxCell>
                <mxCell id="wtNR7RmMgLV1tPpnNcpE-34" value="Tag: 1.1.0" style="text;html=1;strokeColor=none;fillColor=none;align=center;verticalAlign=middle;whiteSpace=wrap;overflow=hidden;fontSize=14;" parent="1" vertex="1">
                    <mxGeometry x="590.25" y="170" width="110" height="20" as="geometry"/>
                </mxCell>
                <mxCell id="wtNR7RmMgLV1tPpnNcpE-35" value="Tag: 1.0.0" style="text;html=1;strokeColor=none;fillColor=none;align=center;verticalAlign=middle;whiteSpace=wrap;overflow=hidden;fontSize=14;" parent="1" vertex="1">
                    <mxGeometry x="242.25" y="170" width="70" height="20" as="geometry"/>
                </mxCell>
                <mxCell id="wtNR7RmMgLV1tPpnNcpE-36" value="" style="edgeStyle=orthogonalEdgeStyle;curved=1;rounded=0;orthogonalLoop=1;jettySize=auto;html=1;endArrow=none;endFill=0;strokeWidth=4;fontFamily=Courier New;fontColor=#009900;" parent="1" source="wtNR7RmMgLV1tPpnNcpE-37" target="wtNR7RmMgLV1tPpnNcpE-39" edge="1">
                    <mxGeometry relative="1" as="geometry"/>
                </mxCell>
                <mxCell id="wtNR7RmMgLV1tPpnNcpE-37" value="" style="verticalLabelPosition=bottom;verticalAlign=top;html=1;strokeWidth=4;shape=mxgraph.flowchart.on-page_reference;plain-purple;gradientColor=none;strokeColor=#000000;fillColor=#D5E8D4;" parent="1" vertex="1">
                    <mxGeometry x="696.75" y="281" width="30" height="30" as="geometry"/>
                </mxCell>
                <mxCell id="wtNR7RmMgLV1tPpnNcpE-38" style="edgeStyle=orthogonalEdgeStyle;curved=1;rounded=0;orthogonalLoop=1;jettySize=auto;html=1;entryX=0;entryY=0.5;entryDx=0;entryDy=0;entryPerimeter=0;endArrow=none;endFill=0;strokeWidth=4;fontFamily=Courier New;fontColor=#009900;" parent="1" source="wtNR7RmMgLV1tPpnNcpE-39" target="wtNR7RmMgLV1tPpnNcpE-8" edge="1">
                    <mxGeometry relative="1" as="geometry"/>
                </mxCell>
                <mxCell id="wtNR7RmMgLV1tPpnNcpE-39" value="" style="verticalLabelPosition=bottom;verticalAlign=top;html=1;strokeWidth=4;shape=mxgraph.flowchart.on-page_reference;plain-purple;gradientColor=none;strokeColor=#000000;fillColor=#D5E8D4;" parent="1" vertex="1">
                    <mxGeometry x="786.75" y="281" width="30" height="30" as="geometry"/>
                </mxCell>
                <mxCell id="wtNR7RmMgLV1tPpnNcpE-40" value="Tag: 1.2.0" style="text;html=1;strokeColor=none;fillColor=none;align=center;verticalAlign=middle;whiteSpace=wrap;overflow=hidden;fontSize=14;" parent="1" vertex="1">
                    <mxGeometry x="812.25" y="168" width="110" height="20" as="geometry"/>
                </mxCell>
                <mxCell id="wtNR7RmMgLV1tPpnNcpE-41" value="" style="endArrow=classic;html=1;strokeWidth=1;fontFamily=Courier New;fontColor=#009900;exitX=0.5;exitY=0;exitDx=0;exitDy=0;" parent="1" source="wtNR7RmMgLV1tPpnNcpE-44" edge="1">
                    <mxGeometry width="50" height="50" relative="1" as="geometry">
                        <mxPoint x="711.25" y="635.5" as="sourcePoint"/>
                        <mxPoint x="711.25" y="404" as="targetPoint"/>
                    </mxGeometry>
                </mxCell>
                <mxCell id="wtNR7RmMgLV1tPpnNcpE-42" value="" style="endArrow=classic;html=1;strokeWidth=1;fontFamily=Courier New;fontColor=#009900;" parent="1" edge="1">
                    <mxGeometry width="50" height="50" relative="1" as="geometry">
                        <mxPoint x="801.75" y="375" as="sourcePoint"/>
                        <mxPoint x="801.75" y="325" as="targetPoint"/>
                    </mxGeometry>
                </mxCell>
                <mxCell id="wtNR7RmMgLV1tPpnNcpE-43" value="&lt;span style=&quot;text-align: center&quot;&gt;Feel free to add notes here about the process of merging into the release branch.&lt;br&gt;&lt;/span&gt;" style="text;html=1;strokeColor=none;fillColor=none;align=left;verticalAlign=middle;whiteSpace=wrap;overflow=hidden;fontSize=12;fontStyle=0;fontColor=#000000;" parent="1" vertex="1">
                    <mxGeometry x="776.75" y="375" width="163.25" height="66" as="geometry"/>
                </mxCell>
                <mxCell id="wtNR7RmMgLV1tPpnNcpE-44" value="&lt;div style=&quot;&quot;&gt;&lt;span&gt;Feel free to add notes here about the process of merging feature branches.&lt;/span&gt;&lt;/div&gt;" style="text;html=1;strokeColor=none;fillColor=none;align=left;verticalAlign=middle;whiteSpace=wrap;overflow=hidden;fontSize=12;fontStyle=0;fontColor=#000000;" parent="1" vertex="1">
                    <mxGeometry x="502.63" y="485" width="418.25" height="36" as="geometry"/>
                </mxCell>
                <mxCell id="wtNR7RmMgLV1tPpnNcpE-45" value="" style="edgeStyle=orthogonalEdgeStyle;rounded=0;orthogonalLoop=1;jettySize=auto;html=1;fontSize=12;fontColor=#000000;entryX=0;entryY=0.5;entryDx=0;entryDy=0;" parent="1" source="wtNR7RmMgLV1tPpnNcpE-46" target="wtNR7RmMgLV1tPpnNcpE-35" edge="1">
                    <mxGeometry relative="1" as="geometry">
                        <mxPoint x="222.25" y="180" as="targetPoint"/>
                        <Array as="points">
                            <mxPoint x="222.25" y="180"/>
                            <mxPoint x="222.25" y="180"/>
                        </Array>
                    </mxGeometry>
                </mxCell>
                <mxCell id="wtNR7RmMgLV1tPpnNcpE-46" value="&lt;span style=&quot;text-align: center; font-size: 11px;&quot;&gt;Each tag represents a production release.&lt;/span&gt;" style="text;html=1;strokeColor=none;fillColor=none;align=left;verticalAlign=middle;whiteSpace=wrap;overflow=hidden;fontSize=11;fontStyle=0;fontColor=#000000;" parent="1" vertex="1">
                    <mxGeometry x="94.5" y="158" width="120" height="38" as="geometry"/>
                </mxCell>
                <UserObject label="Example diagram for a workflow similar to &quot;Git-flow&quot; :" link="https://nvie.com/posts/a-successful-git-branching-model/" id="wtNR7RmMgLV1tPpnNcpE-47">
                    <mxCell style="text;whiteSpace=wrap;html=1;fontStyle=1;fontSize=16;" parent="1" vertex="1">
                        <mxGeometry x="82.25" y="90" width="427.75" height="20" as="geometry"/>
                    </mxCell>
                </UserObject>
                <UserObject label="&lt;a href=&quot;https://nvie.com/posts/a-successful-git-branching-model/&quot;&gt;https://nvie.com/posts/a-successful-git-branching-model/&lt;/a&gt;" link="https://nvie.com/posts/a-successful-git-branching-model/" id="wtNR7RmMgLV1tPpnNcpE-48">
                    <mxCell style="text;whiteSpace=wrap;html=1;" parent="1" vertex="1">
                        <mxGeometry x="115" y="115" width="355" height="20" as="geometry"/>
                    </mxCell>
                </UserObject>
                <UserObject label="See:" link="https://nvie.com/posts/a-successful-git-branching-model/" id="wtNR7RmMgLV1tPpnNcpE-49">
                    <mxCell style="text;whiteSpace=wrap;html=1;" parent="1" vertex="1">
                        <mxGeometry x="82.25" y="115" width="32.75" height="20" as="geometry"/>
                    </mxCell>
                </UserObject>
                <mxCell id="wtNR7RmMgLV1tPpnNcpE-50" value="" style="endArrow=classic;html=1;strokeWidth=1;fontFamily=Courier New;fontColor=#009900;" parent="1" edge="1">
                    <mxGeometry width="50" height="50" relative="1" as="geometry">
                        <mxPoint x="877.25" y="280" as="sourcePoint"/>
                        <mxPoint x="877.25" y="240" as="targetPoint"/>
                    </mxGeometry>
                </mxCell>
                <mxCell id="wtNR7RmMgLV1tPpnNcpE-51" value="&lt;span style=&quot;text-align: center&quot;&gt;Feel free to add notes here about the process of merging into the release branch.&lt;br&gt;&lt;br&gt;&lt;/span&gt;" style="text;html=1;strokeColor=none;fillColor=none;align=left;verticalAlign=middle;whiteSpace=wrap;overflow=hidden;fontSize=12;fontStyle=0;fontColor=#000000;" parent="1" vertex="1">
                    <mxGeometry x="852.25" y="281" width="167.75" height="81" as="geometry"/>
                </mxCell>
                <mxCell id="wtNR7RmMgLV1tPpnNcpE-52" value="" style="verticalLabelPosition=bottom;verticalAlign=top;html=1;strokeWidth=4;shape=mxgraph.flowchart.on-page_reference;plain-blue;gradientColor=#EA6B66;strokeColor=#B85450;fillColor=#F8CECC;" parent="1" vertex="1">
                    <mxGeometry x="452.25" y="196" width="30" height="30" as="geometry"/>
                </mxCell>
                <mxCell id="wtNR7RmMgLV1tPpnNcpE-53" value="Tag: 1.0.1" style="text;html=1;strokeColor=none;fillColor=none;align=center;verticalAlign=middle;whiteSpace=wrap;overflow=hidden;fontSize=14;" parent="1" vertex="1">
                    <mxGeometry x="428.5" y="170" width="70" height="20" as="geometry"/>
                </mxCell>
                <mxCell id="xCrBDNQmvTagKTTRogrj-1" value="" style="group" parent="1" vertex="1" connectable="0">
                    <mxGeometry x="367" y="670" width="379" height="151" as="geometry"/>
                </mxCell>
                <mxCell id="xCrBDNQmvTagKTTRogrj-2" value="" style="rounded=1;whiteSpace=wrap;html=1;fillColor=#fff2cc;strokeColor=#d6b656;" parent="xCrBDNQmvTagKTTRogrj-1" vertex="1">
                    <mxGeometry width="379" height="151.00000000000003" as="geometry"/>
                </mxCell>
                <mxCell id="xCrBDNQmvTagKTTRogrj-3" value="" style="group" parent="xCrBDNQmvTagKTTRogrj-1" vertex="1" connectable="0">
                    <mxGeometry x="30.242784380305622" y="91.91075245365315" width="316.58404074702884" height="46.10687022900763" as="geometry"/>
                </mxCell>
                <mxCell id="xCrBDNQmvTagKTTRogrj-4" value="" style="shape=cylinder3;whiteSpace=wrap;html=1;boundedLbl=1;backgroundOutline=1;size=15;" parent="xCrBDNQmvTagKTTRogrj-3" vertex="1">
                    <mxGeometry width="38.60780984719864" height="46.10687022900763" as="geometry"/>
                </mxCell>
                <mxCell id="xCrBDNQmvTagKTTRogrj-5" value="" style="shape=cylinder3;whiteSpace=wrap;html=1;boundedLbl=1;backgroundOutline=1;size=15;" parent="xCrBDNQmvTagKTTRogrj-3" vertex="1">
                    <mxGeometry x="54.694397283531416" width="38.60780984719864" height="46.10687022900763" as="geometry"/>
                </mxCell>
                <mxCell id="xCrBDNQmvTagKTTRogrj-6" value="" style="shape=cylinder3;whiteSpace=wrap;html=1;boundedLbl=1;backgroundOutline=1;size=15;" parent="xCrBDNQmvTagKTTRogrj-3" vertex="1">
                    <mxGeometry x="111.96264855687605" width="38.60780984719864" height="46.10687022900763" as="geometry"/>
                </mxCell>
                <mxCell id="xCrBDNQmvTagKTTRogrj-7" value="" style="shape=cylinder3;whiteSpace=wrap;html=1;boundedLbl=1;backgroundOutline=1;size=15;" parent="xCrBDNQmvTagKTTRogrj-3" vertex="1">
                    <mxGeometry x="167.94397283531407" width="38.60780984719864" height="46.10687022900763" as="geometry"/>
                </mxCell>
                <mxCell id="xCrBDNQmvTagKTTRogrj-8" value="" style="shape=cylinder3;whiteSpace=wrap;html=1;boundedLbl=1;backgroundOutline=1;size=15;" parent="xCrBDNQmvTagKTTRogrj-3" vertex="1">
                    <mxGeometry x="223.9252971137521" width="38.60780984719864" height="46.10687022900763" as="geometry"/>
                </mxCell>
                <mxCell id="xCrBDNQmvTagKTTRogrj-9" value="" style="shape=cylinder3;whiteSpace=wrap;html=1;boundedLbl=1;backgroundOutline=1;size=15;" parent="xCrBDNQmvTagKTTRogrj-3" vertex="1">
                    <mxGeometry x="277.9762308998302" width="38.60780984719864" height="46.10687022900763" as="geometry"/>
                </mxCell>
                <mxCell id="xCrBDNQmvTagKTTRogrj-10" value="" style="shape=cylinder3;whiteSpace=wrap;html=1;boundedLbl=1;backgroundOutline=1;size=15;" parent="xCrBDNQmvTagKTTRogrj-1" vertex="1">
                    <mxGeometry x="31.20797962648559" y="10.393805888767647" width="38.60780984719864" height="46.10687022900763" as="geometry"/>
                </mxCell>
                <mxCell id="xCrBDNQmvTagKTTRogrj-11" value="" style="shape=cylinder3;whiteSpace=wrap;html=1;boundedLbl=1;backgroundOutline=1;size=15;" parent="xCrBDNQmvTagKTTRogrj-1" vertex="1">
                    <mxGeometry x="85.90237691001697" y="10.393805888767647" width="38.60780984719864" height="46.10687022900763" as="geometry"/>
                </mxCell>
                <mxCell id="xCrBDNQmvTagKTTRogrj-12" value="" style="shape=cylinder3;whiteSpace=wrap;html=1;boundedLbl=1;backgroundOutline=1;size=15;" parent="xCrBDNQmvTagKTTRogrj-1" vertex="1">
                    <mxGeometry x="143.17062818336163" y="10.393805888767647" width="38.60780984719864" height="46.10687022900763" as="geometry"/>
                </mxCell>
                <mxCell id="xCrBDNQmvTagKTTRogrj-13" value="" style="shape=cylinder3;whiteSpace=wrap;html=1;boundedLbl=1;backgroundOutline=1;size=15;" parent="xCrBDNQmvTagKTTRogrj-1" vertex="1">
                    <mxGeometry x="199.15195246179968" y="10.393805888767647" width="38.60780984719864" height="46.10687022900763" as="geometry"/>
                </mxCell>
                <mxCell id="xCrBDNQmvTagKTTRogrj-14" value="" style="shape=cylinder3;whiteSpace=wrap;html=1;boundedLbl=1;backgroundOutline=1;size=15;" parent="xCrBDNQmvTagKTTRogrj-1" vertex="1">
                    <mxGeometry x="255.13327674023773" y="10.393805888767647" width="38.60780984719864" height="46.10687022900763" as="geometry"/>
                </mxCell>
                <mxCell id="xCrBDNQmvTagKTTRogrj-15" value="" style="shape=cylinder3;whiteSpace=wrap;html=1;boundedLbl=1;backgroundOutline=1;size=15;" parent="xCrBDNQmvTagKTTRogrj-1" vertex="1">
                    <mxGeometry x="309.1842105263157" y="10.393805888767647" width="38.60780984719864" height="46.10687022900763" as="geometry"/>
                </mxCell>
                <mxCell id="xCrBDNQmvTagKTTRogrj-16" value="并行文件系统" style="text;html=1;strokeColor=none;fillColor=none;align=center;verticalAlign=middle;whiteSpace=wrap;overflow=hidden;fontSize=14;fontStyle=1;fontFamily=Courier New;" parent="xCrBDNQmvTagKTTRogrj-1" vertex="1">
                    <mxGeometry x="140.3706651796186" y="55.67075245365314" width="96.32671107294544" height="36.24" as="geometry"/>
                </mxCell>
                <mxCell id="YCX0NGYQ5Nv7W-sqLCVU-1" value="" style="endArrow=none;dashed=1;html=1;fillColor=#dae8fc;strokeColor=#6c8ebf;" edge="1" parent="1" source="YCX0NGYQ5Nv7W-sqLCVU-8" target="YCX0NGYQ5Nv7W-sqLCVU-4">
                    <mxGeometry width="50" height="50" relative="1" as="geometry">
                        <mxPoint x="130" y="848" as="sourcePoint"/>
                        <mxPoint x="810" y="848" as="targetPoint"/>
                    </mxGeometry>
                </mxCell>
                <mxCell id="YCX0NGYQ5Nv7W-sqLCVU-2" style="edgeStyle=orthogonalEdgeStyle;rounded=1;orthogonalLoop=1;jettySize=auto;html=1;dashed=1;endArrow=none;endFill=0;fillColor=#d5e8d4;strokeColor=#82b366;" edge="1" parent="1" source="YCX0NGYQ5Nv7W-sqLCVU-3" target="YCX0NGYQ5Nv7W-sqLCVU-15">
                    <mxGeometry relative="1" as="geometry">
                        <Array as="points">
                            <mxPoint x="130" y="958"/>
                        </Array>
                    </mxGeometry>
                </mxCell>
                <mxCell id="YCX0NGYQ5Nv7W-sqLCVU-3" value="1.0" style="ellipse;whiteSpace=wrap;html=1;aspect=fixed;fillColor=#dae8fc;strokeColor=#6c8ebf;fontStyle=1;labelPosition=center;verticalLabelPosition=top;align=center;verticalAlign=bottom;fontColor=#0066CC;" vertex="1" parent="1">
                    <mxGeometry x="120" y="838" width="20" height="20" as="geometry"/>
                </mxCell>
                <mxCell id="YCX0NGYQ5Nv7W-sqLCVU-4" value="Master" style="text;html=1;strokeColor=#6c8ebf;fillColor=#dae8fc;align=center;verticalAlign=middle;whiteSpace=wrap;rounded=0;" vertex="1" parent="1">
                    <mxGeometry x="910" y="838" width="90" height="20" as="geometry"/>
                </mxCell>
                <mxCell id="YCX0NGYQ5Nv7W-sqLCVU-5" value="" style="endArrow=none;dashed=1;html=1;fillColor=#f8cecc;strokeColor=#b85450;entryX=0;entryY=0.5;entryDx=0;entryDy=0;endFill=0;" edge="1" parent="1" source="YCX0NGYQ5Nv7W-sqLCVU-7" target="YCX0NGYQ5Nv7W-sqLCVU-8">
                    <mxGeometry width="50" height="50" relative="1" as="geometry">
                        <mxPoint x="130" y="928" as="sourcePoint"/>
                        <mxPoint x="690" y="900" as="targetPoint"/>
                        <Array as="points">
                            <mxPoint x="800" y="878"/>
                            <mxPoint x="800" y="848"/>
                        </Array>
                    </mxGeometry>
                </mxCell>
                <mxCell id="YCX0NGYQ5Nv7W-sqLCVU-6" style="edgeStyle=orthogonalEdgeStyle;rounded=1;orthogonalLoop=1;jettySize=auto;html=1;dashed=1;endArrow=none;endFill=0;fontSize=12;fontColor=#FFB570;fillColor=#d5e8d4;strokeColor=#82b366;entryX=0;entryY=0.5;entryDx=0;entryDy=0;exitX=0.5;exitY=1;exitDx=0;exitDy=0;" edge="1" parent="1" source="YCX0NGYQ5Nv7W-sqLCVU-8" target="YCX0NGYQ5Nv7W-sqLCVU-69">
                    <mxGeometry relative="1" as="geometry">
                        <Array as="points">
                            <mxPoint x="820" y="958"/>
                        </Array>
                    </mxGeometry>
                </mxCell>
                <mxCell id="YCX0NGYQ5Nv7W-sqLCVU-7" value="" style="ellipse;whiteSpace=wrap;html=1;aspect=fixed;fillColor=#f8cecc;strokeColor=#b85450;" vertex="1" parent="1">
                    <mxGeometry x="764" y="868" width="20" height="20" as="geometry"/>
                </mxCell>
                <mxCell id="YCX0NGYQ5Nv7W-sqLCVU-8" value="2.1" style="ellipse;whiteSpace=wrap;html=1;aspect=fixed;fillColor=#dae8fc;strokeColor=#6c8ebf;fontStyle=1;labelPosition=center;verticalLabelPosition=top;align=center;verticalAlign=bottom;fontColor=#0066CC;" vertex="1" parent="1">
                    <mxGeometry x="810" y="838" width="20" height="20" as="geometry"/>
                </mxCell>
                <mxCell id="YCX0NGYQ5Nv7W-sqLCVU-9" value="" style="endArrow=none;dashed=1;html=1;fillColor=#dae8fc;strokeColor=#6c8ebf;" edge="1" parent="1" source="YCX0NGYQ5Nv7W-sqLCVU-26" target="YCX0NGYQ5Nv7W-sqLCVU-8">
                    <mxGeometry width="50" height="50" relative="1" as="geometry">
                        <mxPoint x="140" y="848" as="sourcePoint"/>
                        <mxPoint x="790" y="848" as="targetPoint"/>
                    </mxGeometry>
                </mxCell>
                <mxCell id="YCX0NGYQ5Nv7W-sqLCVU-10" style="edgeStyle=orthogonalEdgeStyle;rounded=1;orthogonalLoop=1;jettySize=auto;html=1;fillColor=#f8cecc;strokeColor=#b85450;dashed=1;endArrow=none;endFill=0;" edge="1" parent="1" source="YCX0NGYQ5Nv7W-sqLCVU-26" target="YCX0NGYQ5Nv7W-sqLCVU-7">
                    <mxGeometry relative="1" as="geometry">
                        <Array as="points">
                            <mxPoint x="740" y="878"/>
                        </Array>
                    </mxGeometry>
                </mxCell>
                <mxCell id="YCX0NGYQ5Nv7W-sqLCVU-11" value="Hotfix" style="text;html=1;strokeColor=#b85450;fillColor=#f8cecc;align=center;verticalAlign=middle;whiteSpace=wrap;rounded=0;" vertex="1" parent="1">
                    <mxGeometry x="910" y="868" width="90" height="20" as="geometry"/>
                </mxCell>
                <mxCell id="YCX0NGYQ5Nv7W-sqLCVU-12" style="edgeStyle=orthogonalEdgeStyle;rounded=1;orthogonalLoop=1;jettySize=auto;html=1;dashed=1;endArrow=none;endFill=0;fillColor=#d5e8d4;strokeColor=#82b366;" edge="1" parent="1" source="YCX0NGYQ5Nv7W-sqLCVU-69" target="YCX0NGYQ5Nv7W-sqLCVU-16">
                    <mxGeometry relative="1" as="geometry">
                        <mxPoint x="790" y="958" as="targetPoint"/>
                    </mxGeometry>
                </mxCell>
                <mxCell id="YCX0NGYQ5Nv7W-sqLCVU-13" style="edgeStyle=orthogonalEdgeStyle;rounded=1;orthogonalLoop=1;jettySize=auto;html=1;dashed=1;endArrow=none;endFill=0;fontSize=10;fontColor=#FFB570;fillColor=#e1d5e7;strokeColor=#9673a6;" edge="1" parent="1" source="YCX0NGYQ5Nv7W-sqLCVU-15" target="YCX0NGYQ5Nv7W-sqLCVU-79">
                    <mxGeometry relative="1" as="geometry">
                        <Array as="points">
                            <mxPoint x="180" y="968"/>
                        </Array>
                    </mxGeometry>
                </mxCell>
                <mxCell id="YCX0NGYQ5Nv7W-sqLCVU-14" style="edgeStyle=orthogonalEdgeStyle;rounded=1;orthogonalLoop=1;jettySize=auto;html=1;dashed=1;endArrow=none;endFill=0;fontSize=12;fontColor=#FFB570;fillColor=#e1d5e7;strokeColor=#9673a6;" edge="1" parent="1" source="YCX0NGYQ5Nv7W-sqLCVU-15" target="YCX0NGYQ5Nv7W-sqLCVU-39">
                    <mxGeometry relative="1" as="geometry">
                        <Array as="points">
                            <mxPoint x="180" y="1018"/>
                        </Array>
                    </mxGeometry>
                </mxCell>
                <mxCell id="YCX0NGYQ5Nv7W-sqLCVU-15" value="" style="ellipse;whiteSpace=wrap;html=1;aspect=fixed;fillColor=#d5e8d4;strokeColor=#82b366;" vertex="1" parent="1">
                    <mxGeometry x="170" y="948" width="20" height="20" as="geometry"/>
                </mxCell>
                <mxCell id="YCX0NGYQ5Nv7W-sqLCVU-16" value="Nightly" style="text;html=1;strokeColor=#82b366;fillColor=#d5e8d4;align=center;verticalAlign=middle;whiteSpace=wrap;rounded=0;" vertex="1" parent="1">
                    <mxGeometry x="910" y="948" width="90" height="20" as="geometry"/>
                </mxCell>
                <mxCell id="YCX0NGYQ5Nv7W-sqLCVU-17" value="" style="ellipse;whiteSpace=wrap;html=1;aspect=fixed;fillColor=#d5e8d4;strokeColor=#82b366;" vertex="1" parent="1">
                    <mxGeometry x="256.97" y="948" width="20" height="20" as="geometry"/>
                </mxCell>
                <mxCell id="YCX0NGYQ5Nv7W-sqLCVU-18" style="edgeStyle=orthogonalEdgeStyle;rounded=1;orthogonalLoop=1;jettySize=auto;html=1;dashed=1;endArrow=none;endFill=0;fillColor=#d5e8d4;strokeColor=#82b366;" edge="1" parent="1" source="YCX0NGYQ5Nv7W-sqLCVU-15" target="YCX0NGYQ5Nv7W-sqLCVU-17">
                    <mxGeometry relative="1" as="geometry">
                        <mxPoint x="770" y="958" as="targetPoint"/>
                        <mxPoint x="200" y="958" as="sourcePoint"/>
                    </mxGeometry>
                </mxCell>
                <mxCell id="YCX0NGYQ5Nv7W-sqLCVU-19" style="edgeStyle=orthogonalEdgeStyle;rounded=1;orthogonalLoop=1;jettySize=auto;html=1;dashed=1;endArrow=none;endFill=0;fontSize=12;fontColor=#FFB570;fillColor=#e1d5e7;strokeColor=#9673a6;entryX=0;entryY=0.5;entryDx=0;entryDy=0;" edge="1" parent="1" source="YCX0NGYQ5Nv7W-sqLCVU-20" target="YCX0NGYQ5Nv7W-sqLCVU-42">
                    <mxGeometry relative="1" as="geometry">
                        <Array as="points">
                            <mxPoint x="370" y="1018"/>
                        </Array>
                    </mxGeometry>
                </mxCell>
                <mxCell id="YCX0NGYQ5Nv7W-sqLCVU-20" value="" style="ellipse;whiteSpace=wrap;html=1;aspect=fixed;fillColor=#d5e8d4;strokeColor=#82b366;" vertex="1" parent="1">
                    <mxGeometry x="359.97" y="948" width="20" height="20" as="geometry"/>
                </mxCell>
                <mxCell id="YCX0NGYQ5Nv7W-sqLCVU-21" style="edgeStyle=orthogonalEdgeStyle;rounded=1;orthogonalLoop=1;jettySize=auto;html=1;dashed=1;endArrow=none;endFill=0;fillColor=#d5e8d4;strokeColor=#82b366;" edge="1" parent="1" source="YCX0NGYQ5Nv7W-sqLCVU-17" target="YCX0NGYQ5Nv7W-sqLCVU-20">
                    <mxGeometry relative="1" as="geometry">
                        <mxPoint x="770" y="958" as="targetPoint"/>
                        <mxPoint x="330" y="958" as="sourcePoint"/>
                    </mxGeometry>
                </mxCell>
                <mxCell id="YCX0NGYQ5Nv7W-sqLCVU-22" style="edgeStyle=orthogonalEdgeStyle;rounded=1;orthogonalLoop=1;jettySize=auto;html=1;dashed=1;endArrow=none;endFill=0;fontSize=10;fontColor=#FFB570;fillColor=#ffe6cc;strokeColor=#d79b00;" edge="1" parent="1" source="YCX0NGYQ5Nv7W-sqLCVU-23" target="YCX0NGYQ5Nv7W-sqLCVU-32">
                    <mxGeometry relative="1" as="geometry">
                        <Array as="points">
                            <mxPoint x="490" y="908"/>
                        </Array>
                    </mxGeometry>
                </mxCell>
                <mxCell id="YCX0NGYQ5Nv7W-sqLCVU-23" value="" style="ellipse;whiteSpace=wrap;html=1;aspect=fixed;fillColor=#d5e8d4;strokeColor=#82b366;" vertex="1" parent="1">
                    <mxGeometry x="479.97" y="948" width="20" height="20" as="geometry"/>
                </mxCell>
                <mxCell id="YCX0NGYQ5Nv7W-sqLCVU-24" style="edgeStyle=orthogonalEdgeStyle;rounded=1;orthogonalLoop=1;jettySize=auto;html=1;dashed=1;endArrow=none;endFill=0;fillColor=#d5e8d4;strokeColor=#82b366;" edge="1" parent="1" source="YCX0NGYQ5Nv7W-sqLCVU-20" target="YCX0NGYQ5Nv7W-sqLCVU-23">
                    <mxGeometry relative="1" as="geometry">
                        <mxPoint x="770" y="958" as="targetPoint"/>
                        <mxPoint x="460" y="958" as="sourcePoint"/>
                    </mxGeometry>
                </mxCell>
                <mxCell id="YCX0NGYQ5Nv7W-sqLCVU-25" style="edgeStyle=orthogonalEdgeStyle;rounded=1;orthogonalLoop=1;jettySize=auto;html=1;entryX=0;entryY=0.5;entryDx=0;entryDy=0;dashed=1;fillColor=#d5e8d4;strokeColor=#82b366;endArrow=none;endFill=0;" edge="1" parent="1" source="YCX0NGYQ5Nv7W-sqLCVU-26" target="YCX0NGYQ5Nv7W-sqLCVU-66">
                    <mxGeometry relative="1" as="geometry">
                        <Array as="points">
                            <mxPoint x="740" y="958"/>
                        </Array>
                    </mxGeometry>
                </mxCell>
                <mxCell id="YCX0NGYQ5Nv7W-sqLCVU-26" value="2.0" style="ellipse;whiteSpace=wrap;html=1;aspect=fixed;fillColor=#dae8fc;strokeColor=#6c8ebf;fontStyle=1;labelPosition=center;verticalLabelPosition=top;align=center;verticalAlign=bottom;fontColor=#0066CC;" vertex="1" parent="1">
                    <mxGeometry x="730" y="838" width="20" height="20" as="geometry"/>
                </mxCell>
                <mxCell id="YCX0NGYQ5Nv7W-sqLCVU-27" value="" style="endArrow=none;dashed=1;html=1;fillColor=#dae8fc;strokeColor=#6c8ebf;" edge="1" parent="1" source="YCX0NGYQ5Nv7W-sqLCVU-3" target="YCX0NGYQ5Nv7W-sqLCVU-26">
                    <mxGeometry width="50" height="50" relative="1" as="geometry">
                        <mxPoint x="139.9999999999917" y="848" as="sourcePoint"/>
                        <mxPoint x="780" y="848" as="targetPoint"/>
                        <Array as="points"/>
                    </mxGeometry>
                </mxCell>
                <mxCell id="YCX0NGYQ5Nv7W-sqLCVU-28" style="edgeStyle=orthogonalEdgeStyle;rounded=1;orthogonalLoop=1;jettySize=auto;html=1;dashed=1;endArrow=none;endFill=0;fontSize=10;fontColor=#FFB570;fillColor=#ffe6cc;strokeColor=#d79b00;" edge="1" parent="1" source="YCX0NGYQ5Nv7W-sqLCVU-30" target="YCX0NGYQ5Nv7W-sqLCVU-26">
                    <mxGeometry relative="1" as="geometry">
                        <Array as="points">
                            <mxPoint x="720" y="908"/>
                            <mxPoint x="720" y="848"/>
                        </Array>
                    </mxGeometry>
                </mxCell>
                <mxCell id="YCX0NGYQ5Nv7W-sqLCVU-29" style="edgeStyle=orthogonalEdgeStyle;rounded=1;orthogonalLoop=1;jettySize=auto;html=1;dashed=1;endArrow=none;endFill=0;fontSize=12;fontColor=#FFB570;entryX=0;entryY=0.5;entryDx=0;entryDy=0;fillColor=#ffe6cc;strokeColor=#d79b00;" edge="1" parent="1" source="YCX0NGYQ5Nv7W-sqLCVU-30" target="YCX0NGYQ5Nv7W-sqLCVU-72">
                    <mxGeometry relative="1" as="geometry">
                        <Array as="points">
                            <mxPoint x="620" y="928"/>
                        </Array>
                    </mxGeometry>
                </mxCell>
                <mxCell id="YCX0NGYQ5Nv7W-sqLCVU-30" value="RC2" style="ellipse;whiteSpace=wrap;html=1;aspect=fixed;fontSize=10;labelPosition=center;verticalLabelPosition=top;align=center;verticalAlign=bottom;fillColor=#ffe6cc;strokeColor=#d79b00;fontColor=#FFB570;" vertex="1" parent="1">
                    <mxGeometry x="610" y="898" width="20" height="20" as="geometry"/>
                </mxCell>
                <mxCell id="YCX0NGYQ5Nv7W-sqLCVU-31" style="edgeStyle=orthogonalEdgeStyle;rounded=1;orthogonalLoop=1;jettySize=auto;html=1;dashed=1;endArrow=none;endFill=0;fontSize=10;fontColor=#FFB570;fillColor=#ffe6cc;strokeColor=#d79b00;" edge="1" parent="1" source="YCX0NGYQ5Nv7W-sqLCVU-32" target="YCX0NGYQ5Nv7W-sqLCVU-30">
                    <mxGeometry relative="1" as="geometry"/>
                </mxCell>
                <mxCell id="YCX0NGYQ5Nv7W-sqLCVU-32" value="RC1" style="ellipse;whiteSpace=wrap;html=1;aspect=fixed;fontSize=10;labelPosition=center;verticalLabelPosition=top;align=center;verticalAlign=bottom;fillColor=#ffe6cc;strokeColor=#d79b00;fontColor=#FFB570;" vertex="1" parent="1">
                    <mxGeometry x="504.65999999999997" y="898" width="20" height="20" as="geometry"/>
                </mxCell>
                <mxCell id="YCX0NGYQ5Nv7W-sqLCVU-33" value="Release" style="text;html=1;strokeColor=#d79b00;fillColor=#ffe6cc;align=center;verticalAlign=middle;whiteSpace=wrap;rounded=0;fontSize=12;" vertex="1" parent="1">
                    <mxGeometry x="910" y="898" width="90" height="20" as="geometry"/>
                </mxCell>
                <mxCell id="YCX0NGYQ5Nv7W-sqLCVU-34" style="edgeStyle=orthogonalEdgeStyle;rounded=1;orthogonalLoop=1;jettySize=auto;html=1;dashed=1;endArrow=none;endFill=0;fontSize=10;fontColor=#FFB570;fillColor=#e1d5e7;strokeColor=#9673a6;" edge="1" parent="1" source="YCX0NGYQ5Nv7W-sqLCVU-79" target="YCX0NGYQ5Nv7W-sqLCVU-37">
                    <mxGeometry relative="1" as="geometry"/>
                </mxCell>
                <mxCell id="YCX0NGYQ5Nv7W-sqLCVU-35" style="edgeStyle=orthogonalEdgeStyle;rounded=1;orthogonalLoop=1;jettySize=auto;html=1;dashed=1;endArrow=none;endFill=0;fontSize=12;fontColor=#FFB570;jumpStyle=arc;jumpSize=6;" edge="1" parent="1" source="YCX0NGYQ5Nv7W-sqLCVU-79" target="YCX0NGYQ5Nv7W-sqLCVU-44">
                    <mxGeometry relative="1" as="geometry">
                        <Array as="points">
                            <mxPoint x="220" y="1058"/>
                        </Array>
                    </mxGeometry>
                </mxCell>
                <mxCell id="YCX0NGYQ5Nv7W-sqLCVU-36" style="edgeStyle=orthogonalEdgeStyle;rounded=1;orthogonalLoop=1;jettySize=auto;html=1;dashed=1;endArrow=none;endFill=0;fontSize=10;fontColor=#FFB570;fillColor=#e1d5e7;strokeColor=#9673a6;entryX=0;entryY=0.5;entryDx=0;entryDy=0;" edge="1" parent="1" source="YCX0NGYQ5Nv7W-sqLCVU-37" target="YCX0NGYQ5Nv7W-sqLCVU-20">
                    <mxGeometry relative="1" as="geometry">
                        <Array as="points">
                            <mxPoint x="340" y="988"/>
                            <mxPoint x="340" y="958"/>
                        </Array>
                    </mxGeometry>
                </mxCell>
                <mxCell id="YCX0NGYQ5Nv7W-sqLCVU-37" value="" style="ellipse;whiteSpace=wrap;html=1;aspect=fixed;fontSize=10;fillColor=#e1d5e7;strokeColor=#9673a6;" vertex="1" parent="1">
                    <mxGeometry x="299.97" y="978" width="20" height="20" as="geometry"/>
                </mxCell>
                <mxCell id="YCX0NGYQ5Nv7W-sqLCVU-38" style="edgeStyle=orthogonalEdgeStyle;rounded=1;orthogonalLoop=1;jettySize=auto;html=1;dashed=1;endArrow=none;endFill=0;fontSize=12;fontColor=#FFB570;" edge="1" parent="1" source="YCX0NGYQ5Nv7W-sqLCVU-39" target="YCX0NGYQ5Nv7W-sqLCVU-53">
                    <mxGeometry relative="1" as="geometry">
                        <Array as="points">
                            <mxPoint x="200" y="1088"/>
                        </Array>
                    </mxGeometry>
                </mxCell>
                <mxCell id="YCX0NGYQ5Nv7W-sqLCVU-39" value="" style="ellipse;whiteSpace=wrap;html=1;aspect=fixed;fontSize=10;fillColor=#e1d5e7;strokeColor=#9673a6;" vertex="1" parent="1">
                    <mxGeometry x="190" y="1008" width="20" height="20" as="geometry"/>
                </mxCell>
                <mxCell id="YCX0NGYQ5Nv7W-sqLCVU-40" style="edgeStyle=orthogonalEdgeStyle;rounded=1;orthogonalLoop=1;jettySize=auto;html=1;dashed=1;endArrow=none;endFill=0;fontSize=12;fontColor=#FFB570;fillColor=#e1d5e7;strokeColor=#9673a6;" edge="1" parent="1" source="YCX0NGYQ5Nv7W-sqLCVU-42" target="YCX0NGYQ5Nv7W-sqLCVU-46">
                    <mxGeometry relative="1" as="geometry"/>
                </mxCell>
                <mxCell id="YCX0NGYQ5Nv7W-sqLCVU-41" style="edgeStyle=orthogonalEdgeStyle;rounded=1;orthogonalLoop=1;jettySize=auto;html=1;dashed=1;endArrow=none;endFill=0;fontSize=12;fontColor=#FFB570;fillColor=#f5f5f5;strokeColor=#666666;" edge="1" parent="1" source="YCX0NGYQ5Nv7W-sqLCVU-42" target="YCX0NGYQ5Nv7W-sqLCVU-57">
                    <mxGeometry relative="1" as="geometry">
                        <Array as="points">
                            <mxPoint x="390" y="1088"/>
                        </Array>
                    </mxGeometry>
                </mxCell>
                <mxCell id="YCX0NGYQ5Nv7W-sqLCVU-42" value="" style="ellipse;whiteSpace=wrap;html=1;aspect=fixed;fontSize=10;fillColor=#e1d5e7;strokeColor=#9673a6;" vertex="1" parent="1">
                    <mxGeometry x="379.97" y="1008" width="20" height="20" as="geometry"/>
                </mxCell>
                <mxCell id="YCX0NGYQ5Nv7W-sqLCVU-43" style="edgeStyle=orthogonalEdgeStyle;rounded=1;orthogonalLoop=1;jettySize=auto;html=1;exitX=1;exitY=0.5;exitDx=0;exitDy=0;entryX=0;entryY=0.5;entryDx=0;entryDy=0;dashed=1;endArrow=none;endFill=0;fontSize=12;fontColor=#FFB570;" edge="1" parent="1" source="YCX0NGYQ5Nv7W-sqLCVU-44" target="YCX0NGYQ5Nv7W-sqLCVU-51">
                    <mxGeometry relative="1" as="geometry"/>
                </mxCell>
                <mxCell id="YCX0NGYQ5Nv7W-sqLCVU-44" value="" style="ellipse;whiteSpace=wrap;html=1;aspect=fixed;fontSize=10;fontColor=#333333;fillColor=#f5f5f5;strokeColor=#666666;" vertex="1" parent="1">
                    <mxGeometry x="229.97" y="1048" width="20" height="20" as="geometry"/>
                </mxCell>
                <mxCell id="YCX0NGYQ5Nv7W-sqLCVU-45" style="edgeStyle=orthogonalEdgeStyle;rounded=1;orthogonalLoop=1;jettySize=auto;html=1;dashed=1;endArrow=none;endFill=0;fontSize=12;fontColor=#FFB570;fillColor=#e1d5e7;strokeColor=#9673a6;entryX=0;entryY=0.5;entryDx=0;entryDy=0;" edge="1" parent="1" source="YCX0NGYQ5Nv7W-sqLCVU-46" target="YCX0NGYQ5Nv7W-sqLCVU-23">
                    <mxGeometry relative="1" as="geometry">
                        <mxPoint x="490" y="968" as="targetPoint"/>
                        <Array as="points">
                            <mxPoint x="470" y="1018"/>
                            <mxPoint x="470" y="958"/>
                        </Array>
                    </mxGeometry>
                </mxCell>
                <mxCell id="YCX0NGYQ5Nv7W-sqLCVU-46" value="" style="ellipse;whiteSpace=wrap;html=1;aspect=fixed;fontSize=10;fillColor=#e1d5e7;strokeColor=#9673a6;" vertex="1" parent="1">
                    <mxGeometry x="435.97" y="1008" width="20" height="20" as="geometry"/>
                </mxCell>
                <mxCell id="YCX0NGYQ5Nv7W-sqLCVU-47" style="edgeStyle=orthogonalEdgeStyle;rounded=1;orthogonalLoop=1;jettySize=auto;html=1;dashed=1;endArrow=none;endFill=0;fillColor=#d5e8d4;strokeColor=#82b366;" edge="1" parent="1" source="YCX0NGYQ5Nv7W-sqLCVU-23" target="YCX0NGYQ5Nv7W-sqLCVU-66">
                    <mxGeometry relative="1" as="geometry">
                        <mxPoint x="590" y="938" as="targetPoint"/>
                        <mxPoint x="550" y="938" as="sourcePoint"/>
                    </mxGeometry>
                </mxCell>
                <mxCell id="YCX0NGYQ5Nv7W-sqLCVU-48" value="Feature team 1" style="text;html=1;strokeColor=#9673a6;fillColor=#e1d5e7;align=center;verticalAlign=middle;whiteSpace=wrap;rounded=0;" vertex="1" parent="1">
                    <mxGeometry x="910" y="978" width="90" height="20" as="geometry"/>
                </mxCell>
                <mxCell id="YCX0NGYQ5Nv7W-sqLCVU-49" value="Feature team 2" style="text;html=1;strokeColor=#9673a6;fillColor=#e1d5e7;align=center;verticalAlign=middle;whiteSpace=wrap;rounded=0;" vertex="1" parent="1">
                    <mxGeometry x="910" y="1008" width="90" height="20" as="geometry"/>
                </mxCell>
                <mxCell id="YCX0NGYQ5Nv7W-sqLCVU-50" style="edgeStyle=orthogonalEdgeStyle;rounded=1;orthogonalLoop=1;jettySize=auto;html=1;dashed=1;endArrow=none;endFill=0;fontSize=12;fontColor=#FFB570;jumpStyle=arc;entryX=0;entryY=0.5;entryDx=0;entryDy=0;" edge="1" parent="1" source="YCX0NGYQ5Nv7W-sqLCVU-51" target="YCX0NGYQ5Nv7W-sqLCVU-37">
                    <mxGeometry relative="1" as="geometry">
                        <Array as="points">
                            <mxPoint x="290" y="1058"/>
                            <mxPoint x="290" y="988"/>
                        </Array>
                    </mxGeometry>
                </mxCell>
                <mxCell id="YCX0NGYQ5Nv7W-sqLCVU-51" value="" style="ellipse;whiteSpace=wrap;html=1;aspect=fixed;fontSize=10;fontColor=#333333;fillColor=#f5f5f5;strokeColor=#666666;" vertex="1" parent="1">
                    <mxGeometry x="260.97" y="1048" width="20" height="20" as="geometry"/>
                </mxCell>
                <mxCell id="YCX0NGYQ5Nv7W-sqLCVU-52" style="edgeStyle=orthogonalEdgeStyle;rounded=1;orthogonalLoop=1;jettySize=auto;html=1;dashed=1;endArrow=none;endFill=0;fontSize=12;fontColor=#FFB570;" edge="1" parent="1" source="YCX0NGYQ5Nv7W-sqLCVU-53" target="YCX0NGYQ5Nv7W-sqLCVU-55">
                    <mxGeometry relative="1" as="geometry"/>
                </mxCell>
                <mxCell id="YCX0NGYQ5Nv7W-sqLCVU-53" value="" style="ellipse;whiteSpace=wrap;html=1;aspect=fixed;fontSize=10;fontColor=#333333;fillColor=#f5f5f5;strokeColor=#666666;" vertex="1" parent="1">
                    <mxGeometry x="269.97" y="1078" width="20" height="20" as="geometry"/>
                </mxCell>
                <mxCell id="YCX0NGYQ5Nv7W-sqLCVU-54" style="edgeStyle=orthogonalEdgeStyle;rounded=1;orthogonalLoop=1;jettySize=auto;html=1;dashed=1;endArrow=none;endFill=0;fontSize=12;fontColor=#FFB570;" edge="1" parent="1" source="YCX0NGYQ5Nv7W-sqLCVU-55" target="YCX0NGYQ5Nv7W-sqLCVU-57">
                    <mxGeometry relative="1" as="geometry"/>
                </mxCell>
                <mxCell id="YCX0NGYQ5Nv7W-sqLCVU-55" value="" style="ellipse;whiteSpace=wrap;html=1;aspect=fixed;fontSize=10;fontColor=#333333;fillColor=#f5f5f5;strokeColor=#666666;" vertex="1" parent="1">
                    <mxGeometry x="330" y="1078" width="20" height="20" as="geometry"/>
                </mxCell>
                <mxCell id="YCX0NGYQ5Nv7W-sqLCVU-56" style="edgeStyle=orthogonalEdgeStyle;rounded=1;orthogonalLoop=1;jettySize=auto;html=1;dashed=1;endArrow=none;endFill=0;fontSize=12;fontColor=#FFB570;entryX=0;entryY=0.5;entryDx=0;entryDy=0;" edge="1" parent="1" source="YCX0NGYQ5Nv7W-sqLCVU-57" target="YCX0NGYQ5Nv7W-sqLCVU-46">
                    <mxGeometry relative="1" as="geometry">
                        <Array as="points">
                            <mxPoint x="430" y="1088"/>
                            <mxPoint x="430" y="1018"/>
                        </Array>
                    </mxGeometry>
                </mxCell>
                <mxCell id="YCX0NGYQ5Nv7W-sqLCVU-57" value="" style="ellipse;whiteSpace=wrap;html=1;aspect=fixed;fontSize=10;fontColor=#333333;fillColor=#f5f5f5;strokeColor=#666666;" vertex="1" parent="1">
                    <mxGeometry x="402" y="1078" width="20" height="20" as="geometry"/>
                </mxCell>
                <mxCell id="YCX0NGYQ5Nv7W-sqLCVU-58" style="edgeStyle=orthogonalEdgeStyle;rounded=1;orthogonalLoop=1;jettySize=auto;html=1;dashed=1;endArrow=none;endFill=0;fontSize=12;fontColor=#FFB570;fillColor=#ffe6cc;strokeColor=#d79b00;" edge="1" parent="1" source="YCX0NGYQ5Nv7W-sqLCVU-59" target="YCX0NGYQ5Nv7W-sqLCVU-62">
                    <mxGeometry relative="1" as="geometry"/>
                </mxCell>
                <mxCell id="YCX0NGYQ5Nv7W-sqLCVU-59" value="" style="ellipse;whiteSpace=wrap;html=1;aspect=fixed;fontSize=10;fillColor=#ffe6cc;strokeColor=#d79b00;" vertex="1" parent="1">
                    <mxGeometry x="524.6600000000001" y="918" width="20" height="20" as="geometry"/>
                </mxCell>
                <mxCell id="YCX0NGYQ5Nv7W-sqLCVU-60" value="Development" style="text;html=1;strokeColor=#666666;fillColor=#f5f5f5;align=center;verticalAlign=middle;whiteSpace=wrap;rounded=0;fontColor=#333333;" vertex="1" parent="1">
                    <mxGeometry x="910" y="1068" width="90" height="20" as="geometry"/>
                </mxCell>
                <mxCell id="YCX0NGYQ5Nv7W-sqLCVU-61" style="edgeStyle=orthogonalEdgeStyle;rounded=1;orthogonalLoop=1;jettySize=auto;html=1;dashed=1;endArrow=none;endFill=0;fontSize=12;fontColor=#FFB570;fillColor=#ffe6cc;strokeColor=#d79b00;entryX=0;entryY=0.5;entryDx=0;entryDy=0;" edge="1" parent="1" source="YCX0NGYQ5Nv7W-sqLCVU-62" target="YCX0NGYQ5Nv7W-sqLCVU-30">
                    <mxGeometry relative="1" as="geometry">
                        <mxPoint x="580" y="878" as="targetPoint"/>
                        <Array as="points">
                            <mxPoint x="600" y="928"/>
                            <mxPoint x="600" y="908"/>
                        </Array>
                    </mxGeometry>
                </mxCell>
                <mxCell id="YCX0NGYQ5Nv7W-sqLCVU-62" value="" style="ellipse;whiteSpace=wrap;html=1;aspect=fixed;fontSize=10;fillColor=#ffe6cc;strokeColor=#d79b00;" vertex="1" parent="1">
                    <mxGeometry x="580" y="918" width="20" height="20" as="geometry"/>
                </mxCell>
                <mxCell id="YCX0NGYQ5Nv7W-sqLCVU-63" style="edgeStyle=orthogonalEdgeStyle;rounded=1;orthogonalLoop=1;jettySize=auto;html=1;dashed=1;endArrow=none;endFill=0;fontSize=12;fontColor=#FFB570;fillColor=#ffe6cc;strokeColor=#d79b00;" edge="1" parent="1" source="YCX0NGYQ5Nv7W-sqLCVU-32" target="YCX0NGYQ5Nv7W-sqLCVU-59">
                    <mxGeometry relative="1" as="geometry">
                        <mxPoint x="580" y="908" as="sourcePoint"/>
                        <mxPoint x="640" y="1028" as="targetPoint"/>
                        <Array as="points">
                            <mxPoint x="515" y="928"/>
                        </Array>
                    </mxGeometry>
                </mxCell>
                <mxCell id="YCX0NGYQ5Nv7W-sqLCVU-64" style="edgeStyle=orthogonalEdgeStyle;rounded=1;orthogonalLoop=1;jettySize=auto;html=1;dashed=1;endArrow=none;endFill=0;fontSize=12;fontColor=#FFB570;fillColor=#e1d5e7;strokeColor=#9673a6;" edge="1" parent="1" source="YCX0NGYQ5Nv7W-sqLCVU-66" target="YCX0NGYQ5Nv7W-sqLCVU-75">
                    <mxGeometry relative="1" as="geometry">
                        <Array as="points">
                            <mxPoint x="765" y="988"/>
                        </Array>
                    </mxGeometry>
                </mxCell>
                <mxCell id="YCX0NGYQ5Nv7W-sqLCVU-65" style="edgeStyle=orthogonalEdgeStyle;rounded=1;orthogonalLoop=1;jettySize=auto;html=1;dashed=1;endArrow=none;endFill=0;fontSize=12;fontColor=#FFB570;fillColor=#e1d5e7;strokeColor=#9673a6;" edge="1" parent="1" source="YCX0NGYQ5Nv7W-sqLCVU-66" target="YCX0NGYQ5Nv7W-sqLCVU-78">
                    <mxGeometry relative="1" as="geometry">
                        <Array as="points">
                            <mxPoint x="765" y="1018"/>
                        </Array>
                    </mxGeometry>
                </mxCell>
                <mxCell id="YCX0NGYQ5Nv7W-sqLCVU-66" value="" style="ellipse;whiteSpace=wrap;html=1;aspect=fixed;fontSize=10;fillColor=#d5e8d4;strokeColor=#82b366;" vertex="1" parent="1">
                    <mxGeometry x="754.97" y="948" width="20" height="20" as="geometry"/>
                </mxCell>
                <mxCell id="YCX0NGYQ5Nv7W-sqLCVU-67" style="edgeStyle=orthogonalEdgeStyle;rounded=1;orthogonalLoop=1;jettySize=auto;html=1;dashed=1;endArrow=none;endFill=0;fontSize=12;fontColor=#FFB570;fillColor=#e1d5e7;strokeColor=#9673a6;" edge="1" parent="1" source="YCX0NGYQ5Nv7W-sqLCVU-39" target="YCX0NGYQ5Nv7W-sqLCVU-42">
                    <mxGeometry relative="1" as="geometry">
                        <mxPoint x="249.97" y="1038" as="sourcePoint"/>
                        <mxPoint x="299.97" y="1038" as="targetPoint"/>
                    </mxGeometry>
                </mxCell>
                <mxCell id="YCX0NGYQ5Nv7W-sqLCVU-68" value="Release Fixes" style="text;html=1;strokeColor=#d79b00;fillColor=#ffe6cc;align=center;verticalAlign=middle;whiteSpace=wrap;rounded=0;fontSize=12;" vertex="1" parent="1">
                    <mxGeometry x="910" y="918" width="90" height="20" as="geometry"/>
                </mxCell>
                <mxCell id="YCX0NGYQ5Nv7W-sqLCVU-69" value="" style="ellipse;whiteSpace=wrap;html=1;aspect=fixed;fontSize=12;fillColor=#d5e8d4;strokeColor=#82b366;" vertex="1" parent="1">
                    <mxGeometry x="840" y="948" width="20" height="20" as="geometry"/>
                </mxCell>
                <mxCell id="YCX0NGYQ5Nv7W-sqLCVU-70" style="edgeStyle=orthogonalEdgeStyle;rounded=1;orthogonalLoop=1;jettySize=auto;html=1;dashed=1;endArrow=none;endFill=0;fillColor=#d5e8d4;strokeColor=#82b366;" edge="1" parent="1" source="YCX0NGYQ5Nv7W-sqLCVU-66" target="YCX0NGYQ5Nv7W-sqLCVU-69">
                    <mxGeometry relative="1" as="geometry">
                        <mxPoint x="850" y="938" as="targetPoint"/>
                        <mxPoint x="760" y="938" as="sourcePoint"/>
                        <Array as="points"/>
                    </mxGeometry>
                </mxCell>
                <mxCell id="YCX0NGYQ5Nv7W-sqLCVU-71" style="edgeStyle=orthogonalEdgeStyle;rounded=1;orthogonalLoop=1;jettySize=auto;html=1;entryX=0;entryY=0.5;entryDx=0;entryDy=0;dashed=1;endArrow=none;endFill=0;fontSize=12;fontColor=#FFB570;fillColor=#ffe6cc;strokeColor=#d79b00;" edge="1" parent="1" source="YCX0NGYQ5Nv7W-sqLCVU-72" target="YCX0NGYQ5Nv7W-sqLCVU-73">
                    <mxGeometry relative="1" as="geometry"/>
                </mxCell>
                <mxCell id="YCX0NGYQ5Nv7W-sqLCVU-72" value="" style="ellipse;whiteSpace=wrap;html=1;aspect=fixed;fontSize=10;fillColor=#ffe6cc;strokeColor=#d79b00;" vertex="1" parent="1">
                    <mxGeometry x="640" y="918" width="20" height="20" as="geometry"/>
                </mxCell>
                <mxCell id="YCX0NGYQ5Nv7W-sqLCVU-73" value="RC3" style="ellipse;whiteSpace=wrap;html=1;aspect=fixed;fontSize=10;fillColor=#ffe6cc;strokeColor=#d79b00;labelPosition=center;verticalLabelPosition=top;align=center;verticalAlign=bottom;fontColor=#FFB570;" vertex="1" parent="1">
                    <mxGeometry x="690" y="898" width="20" height="20" as="geometry"/>
                </mxCell>
                <mxCell id="YCX0NGYQ5Nv7W-sqLCVU-74" style="edgeStyle=orthogonalEdgeStyle;rounded=1;orthogonalLoop=1;jettySize=auto;html=1;dashed=1;endArrow=none;endFill=0;fontSize=12;fontColor=#FFB570;fillColor=#e1d5e7;strokeColor=#9673a6;" edge="1" parent="1" source="YCX0NGYQ5Nv7W-sqLCVU-75" target="YCX0NGYQ5Nv7W-sqLCVU-48">
                    <mxGeometry relative="1" as="geometry"/>
                </mxCell>
                <mxCell id="YCX0NGYQ5Nv7W-sqLCVU-75" value="" style="ellipse;whiteSpace=wrap;html=1;aspect=fixed;fontSize=12;fillColor=#e1d5e7;strokeColor=#9673a6;" vertex="1" parent="1">
                    <mxGeometry x="785" y="978" width="20" height="20" as="geometry"/>
                </mxCell>
                <mxCell id="YCX0NGYQ5Nv7W-sqLCVU-76" style="edgeStyle=orthogonalEdgeStyle;rounded=1;orthogonalLoop=1;jettySize=auto;html=1;dashed=1;endArrow=none;endFill=0;fontSize=12;fontColor=#FFB570;fillColor=#e1d5e7;strokeColor=#9673a6;" edge="1" parent="1" source="YCX0NGYQ5Nv7W-sqLCVU-78" target="YCX0NGYQ5Nv7W-sqLCVU-49">
                    <mxGeometry relative="1" as="geometry"/>
                </mxCell>
                <mxCell id="YCX0NGYQ5Nv7W-sqLCVU-77" style="edgeStyle=orthogonalEdgeStyle;rounded=1;orthogonalLoop=1;jettySize=auto;html=1;endArrow=none;endFill=0;dashed=1;" edge="1" parent="1" source="YCX0NGYQ5Nv7W-sqLCVU-78" target="YCX0NGYQ5Nv7W-sqLCVU-81">
                    <mxGeometry relative="1" as="geometry">
                        <Array as="points">
                            <mxPoint x="795" y="1078"/>
                        </Array>
                    </mxGeometry>
                </mxCell>
                <mxCell id="YCX0NGYQ5Nv7W-sqLCVU-78" value="" style="ellipse;whiteSpace=wrap;html=1;aspect=fixed;fontSize=12;fillColor=#e1d5e7;strokeColor=#9673a6;" vertex="1" parent="1">
                    <mxGeometry x="785" y="1008" width="20" height="20" as="geometry"/>
                </mxCell>
                <mxCell id="YCX0NGYQ5Nv7W-sqLCVU-79" value="" style="ellipse;whiteSpace=wrap;html=1;aspect=fixed;fontSize=10;fillColor=#e1d5e7;strokeColor=#9673a6;" vertex="1" parent="1">
                    <mxGeometry x="209.97" y="978" width="20" height="20" as="geometry"/>
                </mxCell>
                <mxCell id="YCX0NGYQ5Nv7W-sqLCVU-80" style="edgeStyle=orthogonalEdgeStyle;rounded=1;orthogonalLoop=1;jettySize=auto;html=1;dashed=1;endArrow=none;endFill=0;" edge="1" parent="1" source="YCX0NGYQ5Nv7W-sqLCVU-81" target="YCX0NGYQ5Nv7W-sqLCVU-60">
                    <mxGeometry relative="1" as="geometry"/>
                </mxCell>
                <mxCell id="YCX0NGYQ5Nv7W-sqLCVU-81" value="" style="ellipse;whiteSpace=wrap;html=1;aspect=fixed;fontSize=10;fontColor=#333333;fillColor=#f5f5f5;strokeColor=#666666;" vertex="1" parent="1">
                    <mxGeometry x="815" y="1068" width="20" height="20" as="geometry"/>
                </mxCell>
                <mxCell id="YCX0NGYQ5Nv7W-sqLCVU-141" value="&lt;blockquote style=&quot;margin: 0px 0px 0px 40px ; border: none ; padding: 0px ; font-size: 24px&quot;&gt;自动化服务&lt;/blockquote&gt;" style="rounded=1;whiteSpace=wrap;html=1;labelBackgroundColor=none;strokeColor=#E197FC;strokeWidth=3;fillColor=none;fontSize=24;fontColor=#FFFFFF;arcSize=0;dashed=1;align=left;verticalAlign=top;fontStyle=1" vertex="1" parent="1">
                    <mxGeometry x="132" y="3187.5" width="794" height="210" as="geometry"/>
                </mxCell>
                <mxCell id="YCX0NGYQ5Nv7W-sqLCVU-142" value="私有云对接公网系统整体架构图" style="text;html=1;strokeColor=none;fillColor=none;align=center;verticalAlign=middle;whiteSpace=wrap;rounded=0;fontColor=#FFFFFF;fontSize=32;" vertex="1" parent="1">
                    <mxGeometry x="20" y="1800" width="476" height="48" as="geometry"/>
                </mxCell>
                <mxCell id="YCX0NGYQ5Nv7W-sqLCVU-143" value="" style="group" vertex="1" connectable="0" parent="1">
                    <mxGeometry x="126" y="1919.5" width="210" height="280" as="geometry"/>
                </mxCell>
                <mxCell id="YCX0NGYQ5Nv7W-sqLCVU-144" value="&lt;br style=&quot;font-size: 18px;&quot;&gt;传统客户端" style="rounded=0;whiteSpace=wrap;html=1;horizontal=1;verticalAlign=top;fontSize=18;fillColor=#0C9C0C;strokeWidth=2;strokeColor=#331A00;fontColor=#FFFFFF;fontStyle=1" vertex="1" parent="YCX0NGYQ5Nv7W-sqLCVU-143">
                    <mxGeometry width="210" height="280" as="geometry"/>
                </mxCell>
                <mxCell id="YCX0NGYQ5Nv7W-sqLCVU-145" value="移动WEB" style="rounded=1;whiteSpace=wrap;html=1;strokeColor=#331A00;strokeWidth=2;fillColor=#075707;fontSize=18;fontColor=#FFFFFF;fontStyle=1" vertex="1" parent="YCX0NGYQ5Nv7W-sqLCVU-143">
                    <mxGeometry x="21" y="80" width="170" height="60" as="geometry"/>
                </mxCell>
                <mxCell id="YCX0NGYQ5Nv7W-sqLCVU-146" value="PC端" style="rounded=1;whiteSpace=wrap;html=1;strokeColor=#331A00;strokeWidth=2;fillColor=#075707;fontSize=18;fontColor=#FFFFFF;fontStyle=1" vertex="1" parent="YCX0NGYQ5Nv7W-sqLCVU-143">
                    <mxGeometry x="21" y="165" width="170" height="60" as="geometry"/>
                </mxCell>
                <mxCell id="YCX0NGYQ5Nv7W-sqLCVU-147" value="" style="group" vertex="1" connectable="0" parent="1">
                    <mxGeometry x="127" y="2241.5" width="210" height="280" as="geometry"/>
                </mxCell>
                <mxCell id="YCX0NGYQ5Nv7W-sqLCVU-148" value="&lt;br&gt;APP客户端" style="rounded=0;whiteSpace=wrap;html=1;horizontal=1;verticalAlign=top;fontSize=18;fillColor=#0C9C0C;strokeWidth=2;strokeColor=#331A00;fontColor=#FFFFFF;fontStyle=1" vertex="1" parent="YCX0NGYQ5Nv7W-sqLCVU-147">
                    <mxGeometry width="210" height="280" as="geometry"/>
                </mxCell>
                <mxCell id="YCX0NGYQ5Nv7W-sqLCVU-149" value="Android&amp;nbsp;APP" style="rounded=1;whiteSpace=wrap;html=1;strokeColor=#331A00;strokeWidth=2;fillColor=#075707;fontSize=18;fontColor=#FFFFFF;fontStyle=1" vertex="1" parent="YCX0NGYQ5Nv7W-sqLCVU-147">
                    <mxGeometry x="21" y="80" width="170" height="60" as="geometry"/>
                </mxCell>
                <mxCell id="YCX0NGYQ5Nv7W-sqLCVU-150" value="IOS&amp;nbsp;APP" style="rounded=1;whiteSpace=wrap;html=1;strokeColor=#331A00;strokeWidth=2;fillColor=#075707;fontSize=18;fontColor=#FFFFFF;fontStyle=1" vertex="1" parent="YCX0NGYQ5Nv7W-sqLCVU-147">
                    <mxGeometry x="21" y="165" width="170" height="60" as="geometry"/>
                </mxCell>
                <mxCell id="YCX0NGYQ5Nv7W-sqLCVU-151" value="" style="group" vertex="1" connectable="0" parent="1">
                    <mxGeometry x="128" y="2562.5" width="210" height="280" as="geometry"/>
                </mxCell>
                <mxCell id="YCX0NGYQ5Nv7W-sqLCVU-152" value="&lt;br style=&quot;font-size: 18px&quot;&gt;流量平台端" style="rounded=0;whiteSpace=wrap;html=1;horizontal=1;verticalAlign=top;fontSize=18;fillColor=#0C9C0C;strokeWidth=2;strokeColor=#331A00;fontColor=#FFFFFF;fontStyle=1" vertex="1" parent="YCX0NGYQ5Nv7W-sqLCVU-151">
                    <mxGeometry y="-6" width="210" height="280" as="geometry"/>
                </mxCell>
                <mxCell id="YCX0NGYQ5Nv7W-sqLCVU-153" value="WeChat" style="rounded=1;whiteSpace=wrap;html=1;strokeColor=#331A00;strokeWidth=2;fillColor=#075707;fontSize=18;fontColor=#FFFFFF;fontStyle=1" vertex="1" parent="YCX0NGYQ5Nv7W-sqLCVU-151">
                    <mxGeometry x="21" y="80" width="170" height="60" as="geometry"/>
                </mxCell>
                <mxCell id="YCX0NGYQ5Nv7W-sqLCVU-154" value="Alipay" style="rounded=1;whiteSpace=wrap;html=1;strokeColor=#331A00;strokeWidth=2;fillColor=#075707;fontSize=18;fontColor=#FFFFFF;fontStyle=1" vertex="1" parent="YCX0NGYQ5Nv7W-sqLCVU-151">
                    <mxGeometry x="21" y="165" width="170" height="60" as="geometry"/>
                </mxCell>
                <mxCell id="YCX0NGYQ5Nv7W-sqLCVU-155" value="" style="group" vertex="1" connectable="0" parent="1">
                    <mxGeometry x="128" y="2883.5" width="210" height="231" as="geometry"/>
                </mxCell>
                <mxCell id="YCX0NGYQ5Nv7W-sqLCVU-156" value="&lt;br style=&quot;font-size: 18px&quot;&gt;专线接入端" style="rounded=0;whiteSpace=wrap;html=1;horizontal=1;verticalAlign=top;fontSize=18;fillColor=#009999;strokeWidth=2;strokeColor=#331A00;fontColor=#FFFFFF;fontStyle=1" vertex="1" parent="YCX0NGYQ5Nv7W-sqLCVU-155">
                    <mxGeometry y="-4.949999999999999" width="210" height="235" as="geometry"/>
                </mxCell>
                <mxCell id="YCX0NGYQ5Nv7W-sqLCVU-157" value="接入设备" style="rounded=1;whiteSpace=wrap;html=1;strokeColor=#331A00;strokeWidth=2;fillColor=#006969;fontSize=18;fontColor=#FFFFFF;fontStyle=1" vertex="1" parent="YCX0NGYQ5Nv7W-sqLCVU-155">
                    <mxGeometry x="21" y="92" width="170" height="49.5" as="geometry"/>
                </mxCell>
                <mxCell id="YCX0NGYQ5Nv7W-sqLCVU-158" style="edgeStyle=none;rounded=0;orthogonalLoop=1;jettySize=auto;html=1;exitX=1;exitY=0.75;exitDx=0;exitDy=0;entryX=0.022;entryY=0.576;entryDx=0;entryDy=0;entryPerimeter=0;startArrow=block;startFill=1;endArrow=block;endFill=1;strokeColor=#FFFFFF;strokeWidth=6;fontSize=20;fontColor=#FFFFFF;" edge="1" parent="1" source="YCX0NGYQ5Nv7W-sqLCVU-160" target="YCX0NGYQ5Nv7W-sqLCVU-169">
                    <mxGeometry relative="1" as="geometry"/>
                </mxCell>
                <mxCell id="YCX0NGYQ5Nv7W-sqLCVU-159" style="edgeStyle=none;rounded=0;orthogonalLoop=1;jettySize=auto;html=1;exitX=1;exitY=0.25;exitDx=0;exitDy=0;entryX=-0.011;entryY=0.205;entryDx=0;entryDy=0;entryPerimeter=0;startArrow=block;startFill=1;endArrow=block;endFill=1;strokeColor=#FFFFFF;strokeWidth=6;fontSize=20;fontColor=#FFFFFF;" edge="1" parent="1" source="YCX0NGYQ5Nv7W-sqLCVU-160" target="YCX0NGYQ5Nv7W-sqLCVU-169">
                    <mxGeometry relative="1" as="geometry"/>
                </mxCell>
                <mxCell id="YCX0NGYQ5Nv7W-sqLCVU-160" value="&lt;br&gt;互&lt;br style=&quot;font-size: 42px&quot;&gt;联&lt;br style=&quot;font-size: 42px&quot;&gt;网&lt;br style=&quot;font-size: 42px&quot;&gt;接&lt;br style=&quot;font-size: 42px&quot;&gt;入" style="rounded=0;whiteSpace=wrap;html=1;strokeColor=#331A00;strokeWidth=2;fillColor=#690069;fontSize=42;fontColor=#FFFFFF;fontStyle=1;verticalAlign=top;" vertex="1" parent="1">
                    <mxGeometry x="447" y="1924.5" width="130" height="910" as="geometry"/>
                </mxCell>
                <mxCell id="YCX0NGYQ5Nv7W-sqLCVU-161" style="edgeStyle=none;rounded=0;orthogonalLoop=1;jettySize=auto;html=1;exitX=1;exitY=0.5;exitDx=0;exitDy=0;entryX=0.001;entryY=0.895;entryDx=0;entryDy=0;entryPerimeter=0;startArrow=block;startFill=1;endArrow=block;endFill=1;strokeColor=#FFFFFF;strokeWidth=6;fontSize=20;fontColor=#FFFFFF;" edge="1" parent="1" source="YCX0NGYQ5Nv7W-sqLCVU-162" target="YCX0NGYQ5Nv7W-sqLCVU-169">
                    <mxGeometry relative="1" as="geometry"/>
                </mxCell>
                <mxCell id="YCX0NGYQ5Nv7W-sqLCVU-162" value="专线" style="rounded=0;whiteSpace=wrap;html=1;strokeColor=#331A00;strokeWidth=2;fillColor=#213D80;fontSize=42;fontColor=#FFFFFF;verticalAlign=top;fontStyle=1" vertex="1" parent="1">
                    <mxGeometry x="447" y="2880.5" width="130" height="231" as="geometry"/>
                </mxCell>
                <mxCell id="YCX0NGYQ5Nv7W-sqLCVU-163" value="DNS" style="shadow=0;dashed=0;html=1;strokeColor=none;labelPosition=center;verticalLabelPosition=bottom;verticalAlign=top;align=center;shape=mxgraph.mscae.cloud.azure_dns;fillColor=#FF421C;pointerEvents=1;fontSize=18;fontColor=#FFFFFF;aspect=fixed;" vertex="1" parent="1">
                    <mxGeometry x="469.5" y="2309" width="85" height="85" as="geometry"/>
                </mxCell>
                <mxCell id="YCX0NGYQ5Nv7W-sqLCVU-164" value="CDN" style="html=1;fillColor=#5184F3;strokeColor=none;verticalAlign=top;labelPosition=center;verticalLabelPosition=bottom;align=center;spacingTop=-6;fontSize=18;fontStyle=1;fontColor=#FFFFFF;shape=mxgraph.gcp2.hexIcon;prIcon=cloud_cdn;aspect=fixed;" vertex="1" parent="1">
                    <mxGeometry x="447" y="2460.5" width="130" height="115.04" as="geometry"/>
                </mxCell>
                <mxCell id="YCX0NGYQ5Nv7W-sqLCVU-165" value="防火墙" style="html=1;perimeter=none;align=center;shadow=0;dashed=0;image;fontSize=18;image=img/lib/mscae/ShieldFirewall.svg;strokeColor=#331A00;strokeWidth=2;fillColor=#FF2212;labelBackgroundColor=none;fontColor=#FFFFFF;fontStyle=1" vertex="1" parent="1">
                    <mxGeometry x="452" y="2642.5" width="120" height="85" as="geometry"/>
                </mxCell>
                <mxCell id="YCX0NGYQ5Nv7W-sqLCVU-166" value="VPN" style="shape=mxgraph.cisco.misc.vpn_concentrator;html=1;dashed=0;fillColor=#036897;strokeColor=#FFFFFF;strokeWidth=1;verticalLabelPosition=bottom;verticalAlign=top;labelBackgroundColor=none;fontSize=18;fontColor=#FFFFFF;aspect=fixed;fontStyle=1" vertex="1" parent="1">
                    <mxGeometry x="469.5" y="2986" width="85" height="78.36" as="geometry"/>
                </mxCell>
                <mxCell id="YCX0NGYQ5Nv7W-sqLCVU-167" style="edgeStyle=none;rounded=0;orthogonalLoop=1;jettySize=auto;html=1;exitX=1;exitY=0.75;exitDx=0;exitDy=0;startArrow=block;startFill=1;endArrow=block;endFill=1;strokeColor=#FFFFFF;strokeWidth=6;fontSize=20;fontColor=#FFFFFF;entryX=-0.004;entryY=0.747;entryDx=0;entryDy=0;entryPerimeter=0;" edge="1" parent="1" source="YCX0NGYQ5Nv7W-sqLCVU-169" target="YCX0NGYQ5Nv7W-sqLCVU-172">
                    <mxGeometry relative="1" as="geometry">
                        <mxPoint x="837" y="2866.5" as="targetPoint"/>
                    </mxGeometry>
                </mxCell>
                <mxCell id="YCX0NGYQ5Nv7W-sqLCVU-168" style="edgeStyle=none;rounded=0;orthogonalLoop=1;jettySize=auto;html=1;exitX=1;exitY=0.25;exitDx=0;exitDy=0;startArrow=block;startFill=1;endArrow=block;endFill=1;strokeColor=#FFFFFF;strokeWidth=6;fontSize=20;fontColor=#FFFFFF;entryX=-0.003;entryY=0.244;entryDx=0;entryDy=0;entryPerimeter=0;" edge="1" parent="1" source="YCX0NGYQ5Nv7W-sqLCVU-169" target="YCX0NGYQ5Nv7W-sqLCVU-172">
                    <mxGeometry relative="1" as="geometry">
                        <mxPoint x="847" y="2242.5" as="targetPoint"/>
                    </mxGeometry>
                </mxCell>
                <mxCell id="YCX0NGYQ5Nv7W-sqLCVU-169" value="&lt;br&gt;安&lt;br&gt;全&lt;br&gt;隔&lt;br&gt;离&lt;br&gt;区" style="rounded=0;whiteSpace=wrap;html=1;strokeColor=#331A00;strokeWidth=2;fillColor=#51039E;fontSize=42;fontColor=#FFFFFF;fontStyle=1;verticalAlign=top;" vertex="1" parent="1">
                    <mxGeometry x="647" y="1904.5" width="130" height="1220" as="geometry"/>
                </mxCell>
                <mxCell id="YCX0NGYQ5Nv7W-sqLCVU-170" value="防火墙" style="html=1;perimeter=none;align=center;shadow=0;dashed=0;image;fontSize=18;image=img/lib/mscae/ShieldFirewall.svg;strokeColor=#331A00;strokeWidth=2;fillColor=#FF2212;labelBackgroundColor=none;fontColor=#FFFFFF;fontStyle=1" vertex="1" parent="1">
                    <mxGeometry x="652" y="2279.5" width="120" height="85" as="geometry"/>
                </mxCell>
                <mxCell id="YCX0NGYQ5Nv7W-sqLCVU-171" value="流量负载" style="shadow=0;dashed=0;html=1;strokeColor=none;labelPosition=center;verticalLabelPosition=bottom;verticalAlign=top;align=center;shape=mxgraph.mscae.cloud.azure_load_balancer_feature;fillColor=#F58536;pointerEvents=1;labelBackgroundColor=none;fontSize=18;fontColor=#FFFFFF;aspect=fixed;fontStyle=1" vertex="1" parent="1">
                    <mxGeometry x="669.5" y="2623.5" width="85" height="85" as="geometry"/>
                </mxCell>
                <mxCell id="YCX0NGYQ5Nv7W-sqLCVU-172" value="" style="rounded=1;whiteSpace=wrap;html=1;labelBackgroundColor=none;strokeColor=#E197FC;strokeWidth=3;fillColor=none;fontSize=18;fontColor=#FFFFFF;arcSize=0;dashed=1;" vertex="1" parent="1">
                    <mxGeometry x="877" y="1914.5" width="760" height="1212" as="geometry"/>
                </mxCell>
                <mxCell id="YCX0NGYQ5Nv7W-sqLCVU-173" value="&lt;br&gt;接入服务" style="rounded=0;whiteSpace=wrap;html=1;strokeColor=#331A00;strokeWidth=2;fillColor=#F2A813;fontSize=18;fontColor=#FFFFFF;verticalAlign=top;fontStyle=1" vertex="1" parent="1">
                    <mxGeometry x="926" y="1969.5" width="121" height="400" as="geometry"/>
                </mxCell>
                <mxCell id="YCX0NGYQ5Nv7W-sqLCVU-174" value="WEB负载" style="outlineConnect=0;dashed=0;verticalLabelPosition=bottom;verticalAlign=top;align=center;html=1;shape=mxgraph.aws3.customer_gateway;fillColor=#F58536;gradientColor=none;labelBackgroundColor=none;strokeColor=#E197FC;strokeWidth=2;fontSize=18;fontColor=#FFFFFF;fontStyle=1;aspect=fixed;" vertex="1" parent="1">
                    <mxGeometry x="669.5" y="2794.5" width="85" height="85" as="geometry"/>
                </mxCell>
                <mxCell id="YCX0NGYQ5Nv7W-sqLCVU-175" value="认证/流控" style="html=1;perimeter=none;align=center;shadow=0;dashed=0;image;fontSize=18;image=img/lib/mscae/ShieldFirewall.svg;strokeColor=#331A00;strokeWidth=2;fillColor=#FF2212;labelBackgroundColor=none;fontColor=#FFFFFF;fontStyle=1" vertex="1" parent="1">
                    <mxGeometry x="931.5" y="2072" width="110" height="85" as="geometry"/>
                </mxCell>
                <mxCell id="YCX0NGYQ5Nv7W-sqLCVU-176" value="API 网关" style="shadow=0;dashed=0;html=1;strokeColor=none;labelPosition=center;verticalLabelPosition=bottom;verticalAlign=top;align=center;shape=mxgraph.mscae.cloud.api_management;fillColor=#4D4D4D;pointerEvents=1;labelBackgroundColor=none;fontSize=18;fontColor=#FFFFFF;aspect=fixed;fontStyle=1" vertex="1" parent="1">
                    <mxGeometry x="944" y="2224.5" width="85" height="76.5" as="geometry"/>
                </mxCell>
                <mxCell id="YCX0NGYQ5Nv7W-sqLCVU-177" value="专线" style="rounded=0;whiteSpace=wrap;html=1;strokeColor=#331A00;strokeWidth=2;fillColor=#70829C;fontSize=42;fontColor=#FFFFFF;verticalAlign=top;" vertex="1" parent="1">
                    <mxGeometry x="926" y="2411.5" width="121" height="231" as="geometry"/>
                </mxCell>
                <mxCell id="YCX0NGYQ5Nv7W-sqLCVU-178" value="&lt;br&gt;接入服务" style="rounded=0;whiteSpace=wrap;html=1;strokeColor=#331A00;strokeWidth=2;fillColor=#F2A813;fontSize=18;fontColor=#FFFFFF;verticalAlign=top;fontStyle=1" vertex="1" parent="1">
                    <mxGeometry x="926" y="2697.5" width="121" height="400" as="geometry"/>
                </mxCell>
                <mxCell id="YCX0NGYQ5Nv7W-sqLCVU-179" value="认证/流控" style="html=1;perimeter=none;align=center;shadow=0;dashed=0;image;fontSize=18;image=img/lib/mscae/ShieldFirewall.svg;strokeColor=#331A00;strokeWidth=2;fillColor=#FF2212;labelBackgroundColor=none;fontColor=#FFFFFF;fontStyle=1" vertex="1" parent="1">
                    <mxGeometry x="931.5" y="2800" width="110" height="85" as="geometry"/>
                </mxCell>
                <mxCell id="YCX0NGYQ5Nv7W-sqLCVU-180" value="运营 网关" style="shadow=0;dashed=0;html=1;strokeColor=none;labelPosition=center;verticalLabelPosition=bottom;verticalAlign=top;align=center;shape=mxgraph.mscae.cloud.api_management;fillColor=#4D4D4D;pointerEvents=1;labelBackgroundColor=none;fontSize=18;fontColor=#FFFFFF;aspect=fixed;fontStyle=1" vertex="1" parent="1">
                    <mxGeometry x="944" y="2952.5" width="85" height="76.5" as="geometry"/>
                </mxCell>
                <mxCell id="YCX0NGYQ5Nv7W-sqLCVU-181" value="　服务中台" style="rounded=1;whiteSpace=wrap;html=1;fontFamily=Helvetica;fontSize=26;fontColor=#FFFFFF;align=left;strokeColor=#B3B3B3;strokeWidth=2;fillColor=#70829C;arcSize=1;opacity=50;verticalAlign=top;fontStyle=1" vertex="1" parent="1">
                    <mxGeometry x="1096" y="1954.5" width="481" height="723" as="geometry"/>
                </mxCell>
                <mxCell id="YCX0NGYQ5Nv7W-sqLCVU-182" style="edgeStyle=none;rounded=0;orthogonalLoop=1;jettySize=auto;html=1;exitX=0;exitY=0.5;exitDx=0;exitDy=0;entryX=1;entryY=0.104;entryDx=0;entryDy=0;entryPerimeter=0;startArrow=block;startFill=1;endArrow=block;endFill=1;strokeColor=#FFFFFF;strokeWidth=6;fontSize=20;fontColor=#FFFFFF;" edge="1" parent="1" source="YCX0NGYQ5Nv7W-sqLCVU-183" target="YCX0NGYQ5Nv7W-sqLCVU-172">
                    <mxGeometry relative="1" as="geometry"/>
                </mxCell>
                <mxCell id="YCX0NGYQ5Nv7W-sqLCVU-183" value="&lt;blockquote style=&quot;margin: 0px 0px 0px 40px; border: none; padding: 0px; font-size: 24px;&quot;&gt;基础服务&lt;/blockquote&gt;" style="rounded=1;whiteSpace=wrap;html=1;fontFamily=Helvetica;fontSize=24;fontColor=#FFFFFF;align=left;strokeColor=#B3B3B3;strokeWidth=2;fillColor=#70829C;arcSize=1;opacity=50;verticalAlign=top;fontStyle=1" vertex="1" parent="1">
                    <mxGeometry x="1708" y="1914.5" width="481" height="254" as="geometry"/>
                </mxCell>
                <mxCell id="YCX0NGYQ5Nv7W-sqLCVU-184" value="APP F5" style="shadow=0;dashed=0;html=1;strokeColor=none;fillColor=#0CDBF2;labelPosition=center;verticalLabelPosition=bottom;verticalAlign=top;align=center;shape=mxgraph.azure.azure_website;pointerEvents=1;fontFamily=Helvetica;fontSize=26;fontColor=#FFFFFF;" vertex="1" parent="1">
                    <mxGeometry x="943.5" y="2500" width="85" height="85" as="geometry"/>
                </mxCell>
                <mxCell id="YCX0NGYQ5Nv7W-sqLCVU-185" value="" style="rounded=1;whiteSpace=wrap;html=1;fontFamily=Helvetica;fontSize=18;fontColor=#FFFFFF;align=center;strokeColor=#666666;strokeWidth=1;fillColor=#70829C;arcSize=1;opacity=50;" vertex="1" parent="1">
                    <mxGeometry x="1102" y="2000.5" width="469" height="285" as="geometry"/>
                </mxCell>
                <mxCell id="YCX0NGYQ5Nv7W-sqLCVU-186" value="" style="rounded=1;whiteSpace=wrap;html=1;fontFamily=Helvetica;fontSize=18;fontColor=#FFFFFF;align=center;strokeColor=#4D4D4D;strokeWidth=2;fillColor=#70829C;arcSize=2;opacity=70;" vertex="1" parent="1">
                    <mxGeometry x="1154" y="2019.5" width="230" height="230" as="geometry"/>
                </mxCell>
                <mxCell id="YCX0NGYQ5Nv7W-sqLCVU-187" value="" style="rounded=1;whiteSpace=wrap;html=1;fontFamily=Helvetica;fontSize=18;fontColor=#FFFFFF;align=center;strokeColor=#4D4D4D;strokeWidth=2;fillColor=#CCCCFF;arcSize=2;" vertex="1" parent="1">
                    <mxGeometry x="1131" y="2032.5" width="230" height="230" as="geometry"/>
                </mxCell>
                <mxCell id="YCX0NGYQ5Nv7W-sqLCVU-188" value="RESTful&lt;br&gt;API" style="rounded=1;whiteSpace=wrap;html=1;labelBackgroundColor=none;strokeColor=#FFFFFF;strokeWidth=3;fillColor=#9999FF;fontSize=18;fontColor=#FFFFFF;fontStyle=1" vertex="1" parent="1">
                    <mxGeometry x="1186" y="2072.5" width="120" height="60" as="geometry"/>
                </mxCell>
                <mxCell id="YCX0NGYQ5Nv7W-sqLCVU-189" value="业务层" style="rounded=1;whiteSpace=wrap;html=1;labelBackgroundColor=none;strokeColor=#FFFFFF;strokeWidth=3;fillColor=#9999FF;fontSize=18;fontColor=#FFFFFF;fontStyle=1" vertex="1" parent="1">
                    <mxGeometry x="1186" y="2162.5" width="120" height="60" as="geometry"/>
                </mxCell>
                <mxCell id="YCX0NGYQ5Nv7W-sqLCVU-190" value="MySQL" style="verticalLabelPosition=bottom;html=1;verticalAlign=top;align=center;strokeColor=none;fillColor=#77C79F;shape=mxgraph.azure.mysql_database;fontFamily=Helvetica;fontSize=18;fontColor=#FFFFFF;aspect=fixed;fontStyle=1" vertex="1" parent="1">
                    <mxGeometry x="1440" y="2162" width="60" height="75" as="geometry"/>
                </mxCell>
                <mxCell id="YCX0NGYQ5Nv7W-sqLCVU-191" value="NOSQL" style="verticalLabelPosition=bottom;html=1;verticalAlign=top;align=center;strokeColor=none;fillColor=#77C79F;shape=mxgraph.azure.sql_reporting;labelBackgroundColor=none;fontSize=18;fontColor=#FFFFFF;aspect=fixed;fontStyle=1" vertex="1" parent="1">
                    <mxGeometry x="1444" y="2049" width="60" height="75" as="geometry"/>
                </mxCell>
                <mxCell id="YCX0NGYQ5Nv7W-sqLCVU-192" value="中台服务" style="rounded=1;whiteSpace=wrap;html=1;labelBackgroundColor=none;strokeColor=#4D4D4D;strokeWidth=1;fillColor=#9999FF;fontSize=18;fontColor=#FFFFFF;fontStyle=1" vertex="1" parent="1">
                    <mxGeometry x="1141.5" y="2312.5" width="160" height="50" as="geometry"/>
                </mxCell>
                <mxCell id="YCX0NGYQ5Nv7W-sqLCVU-193" value="　基础设施" style="rounded=1;whiteSpace=wrap;html=1;fontFamily=Helvetica;fontSize=26;fontColor=#FFFFFF;align=left;strokeColor=#B3B3B3;strokeWidth=2;fillColor=#70829C;arcSize=1;opacity=50;verticalAlign=top;fontStyle=1" vertex="1" parent="1">
                    <mxGeometry x="1096" y="2717.5" width="481" height="388" as="geometry"/>
                </mxCell>
                <mxCell id="YCX0NGYQ5Nv7W-sqLCVU-194" value="中台服务" style="rounded=1;whiteSpace=wrap;html=1;labelBackgroundColor=none;strokeColor=#4D4D4D;strokeWidth=1;fillColor=#9999FF;fontSize=18;fontColor=#FFFFFF;fontStyle=1" vertex="1" parent="1">
                    <mxGeometry x="1141.5" y="2383.5" width="160" height="50" as="geometry"/>
                </mxCell>
                <mxCell id="YCX0NGYQ5Nv7W-sqLCVU-195" value="中台服务" style="rounded=1;whiteSpace=wrap;html=1;labelBackgroundColor=none;strokeColor=#4D4D4D;strokeWidth=1;fillColor=#9999FF;fontSize=18;fontColor=#FFFFFF;fontStyle=1" vertex="1" parent="1">
                    <mxGeometry x="1141.5" y="2454.5" width="160" height="50" as="geometry"/>
                </mxCell>
                <mxCell id="YCX0NGYQ5Nv7W-sqLCVU-196" value="中台服务" style="rounded=1;whiteSpace=wrap;html=1;labelBackgroundColor=none;strokeColor=#4D4D4D;strokeWidth=1;fillColor=#9999FF;fontSize=18;fontColor=#FFFFFF;fontStyle=1" vertex="1" parent="1">
                    <mxGeometry x="1141.5" y="2525.5" width="160" height="50" as="geometry"/>
                </mxCell>
                <mxCell id="YCX0NGYQ5Nv7W-sqLCVU-197" value="中台服务" style="rounded=1;whiteSpace=wrap;html=1;labelBackgroundColor=none;strokeColor=#4D4D4D;strokeWidth=1;fillColor=#9999FF;fontSize=18;fontColor=#FFFFFF;fontStyle=1" vertex="1" parent="1">
                    <mxGeometry x="1371.5" y="2382" width="160" height="50" as="geometry"/>
                </mxCell>
                <mxCell id="YCX0NGYQ5Nv7W-sqLCVU-198" value="中台服务" style="rounded=1;whiteSpace=wrap;html=1;labelBackgroundColor=none;strokeColor=#4D4D4D;strokeWidth=1;fillColor=#9999FF;fontSize=18;fontColor=#FFFFFF;fontStyle=1" vertex="1" parent="1">
                    <mxGeometry x="1371.5" y="2451.5" width="160" height="50" as="geometry"/>
                </mxCell>
                <mxCell id="YCX0NGYQ5Nv7W-sqLCVU-199" value="中台服务" style="rounded=1;whiteSpace=wrap;html=1;labelBackgroundColor=none;strokeColor=#4D4D4D;strokeWidth=1;fillColor=#9999FF;fontSize=18;fontColor=#FFFFFF;fontStyle=1" vertex="1" parent="1">
                    <mxGeometry x="1371.5" y="2522.5" width="160" height="50" as="geometry"/>
                </mxCell>
                <mxCell id="YCX0NGYQ5Nv7W-sqLCVU-200" value="编排服务" style="rounded=1;whiteSpace=wrap;html=1;labelBackgroundColor=none;strokeColor=#4D4D4D;strokeWidth=1;fillColor=#9999FF;fontSize=18;fontColor=#FFFFFF;fontStyle=1" vertex="1" parent="1">
                    <mxGeometry x="1137.5" y="2600" width="398" height="50" as="geometry"/>
                </mxCell>
                <mxCell id="YCX0NGYQ5Nv7W-sqLCVU-201" value="中台服务" style="rounded=1;whiteSpace=wrap;html=1;labelBackgroundColor=none;strokeColor=#4D4D4D;strokeWidth=1;fillColor=#9999FF;fontSize=18;fontColor=#FFFFFF;fontStyle=1" vertex="1" parent="1">
                    <mxGeometry x="1371.5" y="2312.5" width="160" height="50" as="geometry"/>
                </mxCell>
                <mxCell id="YCX0NGYQ5Nv7W-sqLCVU-202" value="Feign&lt;br&gt;服务调用" style="rounded=1;whiteSpace=wrap;html=1;labelBackgroundColor=none;strokeColor=#4D4D4D;strokeWidth=1;fillColor=#9999FF;fontSize=18;fontColor=#FFFFFF;fontStyle=1" vertex="1" parent="1">
                    <mxGeometry x="1131.5" y="2791.5" width="180" height="70" as="geometry"/>
                </mxCell>
                <mxCell id="YCX0NGYQ5Nv7W-sqLCVU-203" value="Hystrix&lt;br&gt;服务熔断" style="rounded=1;whiteSpace=wrap;html=1;labelBackgroundColor=none;strokeColor=#4D4D4D;strokeWidth=1;fillColor=#9999FF;fontSize=18;fontColor=#FFFFFF;fontStyle=1" vertex="1" parent="1">
                    <mxGeometry x="1131.5" y="2883.5" width="180" height="70" as="geometry"/>
                </mxCell>
                <mxCell id="YCX0NGYQ5Nv7W-sqLCVU-204" value="Apollo&lt;br&gt;配置中心" style="rounded=1;whiteSpace=wrap;html=1;labelBackgroundColor=none;strokeColor=#4D4D4D;strokeWidth=1;fillColor=#9999FF;fontSize=18;fontColor=#FFFFFF;fontStyle=1" vertex="1" parent="1">
                    <mxGeometry x="1131.5" y="2975.5" width="180" height="70" as="geometry"/>
                </mxCell>
                <mxCell id="YCX0NGYQ5Nv7W-sqLCVU-205" value="Eureka&lt;br&gt;服务发现" style="rounded=1;whiteSpace=wrap;html=1;labelBackgroundColor=none;strokeColor=#4D4D4D;strokeWidth=1;fillColor=#9999FF;fontSize=18;fontColor=#FFFFFF;fontStyle=1" vertex="1" parent="1">
                    <mxGeometry x="1361.5" y="2975.5" width="180" height="70" as="geometry"/>
                </mxCell>
                <mxCell id="YCX0NGYQ5Nv7W-sqLCVU-206" value="JWT&lt;br&gt;授权中心" style="rounded=1;whiteSpace=wrap;html=1;labelBackgroundColor=none;strokeColor=#4D4D4D;strokeWidth=1;fillColor=#9999FF;fontSize=18;fontColor=#FFFFFF;fontStyle=1" vertex="1" parent="1">
                    <mxGeometry x="1361.5" y="2883.5" width="180" height="70" as="geometry"/>
                </mxCell>
                <mxCell id="YCX0NGYQ5Nv7W-sqLCVU-207" value="Ribbon&lt;br&gt;负载均衡" style="rounded=1;whiteSpace=wrap;html=1;labelBackgroundColor=none;strokeColor=#4D4D4D;strokeWidth=1;fillColor=#9999FF;fontSize=18;fontColor=#FFFFFF;fontStyle=1" vertex="1" parent="1">
                    <mxGeometry x="1361.5" y="2791.5" width="180" height="70" as="geometry"/>
                </mxCell>
                <mxCell id="YCX0NGYQ5Nv7W-sqLCVU-208" style="edgeStyle=none;rounded=0;orthogonalLoop=1;jettySize=auto;html=1;exitX=0;exitY=0.5;exitDx=0;exitDy=0;entryX=1.004;entryY=0.615;entryDx=0;entryDy=0;entryPerimeter=0;startArrow=block;startFill=1;endArrow=block;endFill=1;strokeColor=#FFFFFF;strokeWidth=6;fontSize=20;fontColor=#FFFFFF;" edge="1" parent="1" source="YCX0NGYQ5Nv7W-sqLCVU-209" target="YCX0NGYQ5Nv7W-sqLCVU-172">
                    <mxGeometry relative="1" as="geometry"/>
                </mxCell>
                <mxCell id="YCX0NGYQ5Nv7W-sqLCVU-209" value="&lt;blockquote style=&quot;margin: 0px 0px 0px 40px; border: none; padding: 0px; font-size: 24px;&quot;&gt;相关组件集群&lt;/blockquote&gt;" style="rounded=1;whiteSpace=wrap;html=1;labelBackgroundColor=none;strokeColor=#E197FC;strokeWidth=3;fillColor=none;fontSize=24;fontColor=#FFFFFF;arcSize=0;dashed=1;align=left;verticalAlign=top;fontStyle=1" vertex="1" parent="1">
                    <mxGeometry x="1712" y="2193.5" width="476" height="932" as="geometry"/>
                </mxCell>
                <mxCell id="YCX0NGYQ5Nv7W-sqLCVU-210" value="异步服务" style="rounded=1;whiteSpace=wrap;html=1;labelBackgroundColor=none;strokeColor=#CC99FF;strokeWidth=1;fillColor=#B051F0;fontSize=20;fontColor=#FFFFFF;fontStyle=1" vertex="1" parent="1">
                    <mxGeometry x="1741.5" y="1964.5" width="180" height="50" as="geometry"/>
                </mxCell>
                <mxCell id="YCX0NGYQ5Nv7W-sqLCVU-211" value="定时服务" style="rounded=1;whiteSpace=wrap;html=1;labelBackgroundColor=none;strokeColor=#CC99FF;strokeWidth=1;fillColor=#B051F0;fontSize=20;fontColor=#FFFFFF;fontStyle=1" vertex="1" parent="1">
                    <mxGeometry x="1975.5" y="1964.5" width="180" height="50" as="geometry"/>
                </mxCell>
                <mxCell id="YCX0NGYQ5Nv7W-sqLCVU-212" value="认证服务" style="rounded=1;whiteSpace=wrap;html=1;labelBackgroundColor=none;strokeColor=#CC99FF;strokeWidth=1;fillColor=#B051F0;fontSize=20;fontColor=#FFFFFF;fontStyle=1" vertex="1" parent="1">
                    <mxGeometry x="1741.5" y="2032.5" width="180" height="50" as="geometry"/>
                </mxCell>
                <mxCell id="YCX0NGYQ5Nv7W-sqLCVU-213" value="监控服务" style="rounded=1;whiteSpace=wrap;html=1;labelBackgroundColor=none;strokeColor=#CC99FF;strokeWidth=1;fillColor=#B051F0;fontSize=20;fontColor=#FFFFFF;fontStyle=1" vertex="1" parent="1">
                    <mxGeometry x="1975.5" y="2032.5" width="180" height="50" as="geometry"/>
                </mxCell>
                <mxCell id="YCX0NGYQ5Nv7W-sqLCVU-214" value="缓存服务" style="rounded=1;whiteSpace=wrap;html=1;labelBackgroundColor=none;strokeColor=#CC99FF;strokeWidth=1;fillColor=#B051F0;fontSize=20;fontColor=#FFFFFF;fontStyle=1" vertex="1" parent="1">
                    <mxGeometry x="1741.5" y="2100" width="180" height="50" as="geometry"/>
                </mxCell>
                <mxCell id="YCX0NGYQ5Nv7W-sqLCVU-215" value="数据分析" style="rounded=1;whiteSpace=wrap;html=1;labelBackgroundColor=none;strokeColor=#CC99FF;strokeWidth=1;fillColor=#B051F0;fontSize=20;fontColor=#FFFFFF;fontStyle=1" vertex="1" parent="1">
                    <mxGeometry x="1975.5" y="2100" width="180" height="50" as="geometry"/>
                </mxCell>
                <mxCell id="YCX0NGYQ5Nv7W-sqLCVU-216" value="&lt;blockquote style=&quot;margin: 0 0 0 40px ; border: none ; padding: 0px&quot;&gt;关系型数据库MySQL集群&lt;/blockquote&gt;" style="html=1;verticalAlign=middle;verticalLabelPosition=middle;labelBackgroundColor=none;imageAspect=0;aspect=fixed;shadow=0;dashed=0;fontFamily=Helvetica;fontSize=20;fontColor=#FFFFFF;align=left;strokeWidth=1;labelPosition=right;fontStyle=1;fillColor=none;strokeColor=none;" vertex="1" parent="1">
                    <mxGeometry x="1741.5" y="2316" width="110" height="110" as="geometry"/>
                </mxCell>
                <mxCell id="YCX0NGYQ5Nv7W-sqLCVU-217" value="&lt;blockquote style=&quot;margin: 0 0 0 40px ; border: none ; padding: 0px&quot;&gt;缓存Redis集群&lt;/blockquote&gt;" style="shadow=0;dashed=0;html=1;strokeColor=none;labelPosition=right;verticalLabelPosition=middle;verticalAlign=middle;align=left;shape=mxgraph.mscae.cloud.data_bricks;fillColor=#A6FFD8;pointerEvents=1;fontFamily=Helvetica;fontSize=20;fontColor=#FFFFFF;strokeWidth=1;fontStyle=1;" vertex="1" parent="1">
                    <mxGeometry x="1741.5" y="2626.5" width="120" height="100.8" as="geometry"/>
                </mxCell>
                <mxCell id="YCX0NGYQ5Nv7W-sqLCVU-218" value="&lt;blockquote style=&quot;margin: 0 0 0 40px ; border: none ; padding: 0px&quot;&gt;日志归集集群&lt;/blockquote&gt;" style="pointerEvents=1;shadow=0;dashed=0;html=1;strokeColor=none;labelPosition=right;verticalLabelPosition=middle;verticalAlign=middle;align=left;shape=mxgraph.mscae.oms.log_search;fillColor=#00BEF2;fontFamily=Helvetica;fontSize=20;fontColor=#FFFFFF;strokeWidth=1;flipH=1;fontStyle=1" vertex="1" parent="1">
                    <mxGeometry x="1741.5" y="2778.5" width="120" height="100.8" as="geometry"/>
                </mxCell>
                <mxCell id="YCX0NGYQ5Nv7W-sqLCVU-219" value="&lt;blockquote style=&quot;margin: 0 0 0 40px ; border: none ; padding: 0px&quot;&gt;搜索引擎集群&lt;/blockquote&gt;" style="shadow=0;dashed=0;html=1;strokeColor=none;labelPosition=right;verticalLabelPosition=middle;verticalAlign=middle;align=left;shape=mxgraph.mscae.cloud.azure_search;fillColor=#00BEF2;fontFamily=Helvetica;fontSize=20;fontColor=#FFFFFF;strokeWidth=1;flipH=1;fontStyle=1" vertex="1" parent="1">
                    <mxGeometry x="1741.5" y="2932" width="120" height="100" as="geometry"/>
                </mxCell>
                <mxCell id="YCX0NGYQ5Nv7W-sqLCVU-220" style="edgeStyle=none;rounded=0;orthogonalLoop=1;jettySize=auto;html=1;exitX=0;exitY=0.5;exitDx=0;exitDy=0;entryX=1;entryY=0.5;entryDx=0;entryDy=0;startArrow=block;startFill=1;endArrow=block;endFill=1;strokeColor=#FFFFFF;strokeWidth=6;fontSize=20;fontColor=#FFFFFF;" edge="1" parent="1" source="YCX0NGYQ5Nv7W-sqLCVU-221" target="YCX0NGYQ5Nv7W-sqLCVU-223">
                    <mxGeometry relative="1" as="geometry"/>
                </mxCell>
                <mxCell id="YCX0NGYQ5Nv7W-sqLCVU-221" value="&lt;blockquote style=&quot;margin: 0px 0px 0px 40px ; border: none ; padding: 0px ; font-size: 24px&quot;&gt;&lt;br&gt;&lt;/blockquote&gt;" style="rounded=1;whiteSpace=wrap;html=1;labelBackgroundColor=none;strokeColor=#E197FC;strokeWidth=3;fillColor=none;fontSize=24;fontColor=#FFFFFF;arcSize=0;dashed=1;align=left;verticalAlign=top;fontStyle=1" vertex="1" parent="1">
                    <mxGeometry x="2024" y="3187.5" width="166" height="210" as="geometry"/>
                </mxCell>
                <mxCell id="YCX0NGYQ5Nv7W-sqLCVU-222" style="edgeStyle=none;rounded=0;orthogonalLoop=1;jettySize=auto;html=1;exitX=0.5;exitY=0;exitDx=0;exitDy=0;entryX=0.962;entryY=1.002;entryDx=0;entryDy=0;entryPerimeter=0;startArrow=block;startFill=1;endArrow=block;endFill=1;strokeColor=#FFFFFF;strokeWidth=6;fontSize=20;fontColor=#FFFFFF;" edge="1" parent="1" source="YCX0NGYQ5Nv7W-sqLCVU-223" target="YCX0NGYQ5Nv7W-sqLCVU-172">
                    <mxGeometry relative="1" as="geometry"/>
                </mxCell>
                <mxCell id="YCX0NGYQ5Nv7W-sqLCVU-223" value="&lt;blockquote style=&quot;margin: 0px 0px 0px 40px ; border: none ; padding: 0px ; font-size: 24px&quot;&gt;关联系统&lt;/blockquote&gt;" style="rounded=1;whiteSpace=wrap;html=1;labelBackgroundColor=none;strokeColor=#E197FC;strokeWidth=3;fillColor=none;fontSize=24;fontColor=#FFFFFF;arcSize=0;dashed=1;align=left;verticalAlign=top;fontStyle=1" vertex="1" parent="1">
                    <mxGeometry x="1277" y="3187.5" width="663" height="210" as="geometry"/>
                </mxCell>
                <mxCell id="YCX0NGYQ5Nv7W-sqLCVU-224" style="edgeStyle=none;rounded=0;orthogonalLoop=1;jettySize=auto;html=1;exitX=0.5;exitY=0;exitDx=0;exitDy=0;entryX=0.355;entryY=1.002;entryDx=0;entryDy=0;entryPerimeter=0;startArrow=block;startFill=1;endArrow=block;endFill=1;strokeColor=#FFFFFF;strokeWidth=6;fontSize=20;fontColor=#FFFFFF;" edge="1" parent="1" source="YCX0NGYQ5Nv7W-sqLCVU-226" target="YCX0NGYQ5Nv7W-sqLCVU-172">
                    <mxGeometry relative="1" as="geometry"/>
                </mxCell>
                <mxCell id="YCX0NGYQ5Nv7W-sqLCVU-225" style="edgeStyle=none;rounded=0;orthogonalLoop=1;jettySize=auto;html=1;exitX=0;exitY=0.5;exitDx=0;exitDy=0;entryX=1;entryY=0.5;entryDx=0;entryDy=0;startArrow=block;startFill=1;endArrow=block;endFill=1;strokeColor=#FFFFFF;strokeWidth=6;fontSize=20;fontColor=#FFFFFF;" edge="1" parent="1" source="YCX0NGYQ5Nv7W-sqLCVU-226" target="YCX0NGYQ5Nv7W-sqLCVU-141">
                    <mxGeometry relative="1" as="geometry"/>
                </mxCell>
                <mxCell id="YCX0NGYQ5Nv7W-sqLCVU-226" value="代码版本库" style="rounded=1;whiteSpace=wrap;html=1;labelBackgroundColor=none;strokeColor=#E197FC;strokeWidth=3;fillColor=none;fontSize=24;fontColor=#FFFFFF;arcSize=0;dashed=1;align=center;verticalAlign=top;fontStyle=1" vertex="1" parent="1">
                    <mxGeometry x="1052" y="3187.5" width="191" height="210" as="geometry"/>
                </mxCell>
                <mxCell id="YCX0NGYQ5Nv7W-sqLCVU-227" value="Git" style="verticalLabelPosition=bottom;html=1;verticalAlign=top;align=center;strokeColor=none;fillColor=#00BEF2;shape=mxgraph.azure.git_repository;labelBackgroundColor=none;fontSize=20;fontColor=#FFFFFF;fontStyle=1" vertex="1" parent="1">
                    <mxGeometry x="1087.5" y="3265" width="120" height="80" as="geometry"/>
                </mxCell>
                <mxCell id="YCX0NGYQ5Nv7W-sqLCVU-228" value="For&amp;nbsp;WEB" style="rounded=1;whiteSpace=wrap;html=1;fontFamily=Helvetica;fontSize=20;fontColor=#FFFFFF;align=left;strokeColor=#B3B3B3;strokeWidth=2;fillColor=#70829C;arcSize=1;opacity=50;verticalAlign=top;fontStyle=1" vertex="1" parent="1">
                    <mxGeometry x="1315" y="3236.5" width="270" height="150" as="geometry"/>
                </mxCell>
                <mxCell id="YCX0NGYQ5Nv7W-sqLCVU-229" value="For&amp;nbsp;APP" style="rounded=1;whiteSpace=wrap;html=1;fontFamily=Helvetica;fontSize=20;fontColor=#FFFFFF;align=left;strokeColor=#B3B3B3;strokeWidth=2;fillColor=#70829C;arcSize=1;opacity=50;verticalAlign=top;fontStyle=1" vertex="1" parent="1">
                    <mxGeometry x="1637" y="3236.5" width="270" height="150" as="geometry"/>
                </mxCell>
                <mxCell id="YCX0NGYQ5Nv7W-sqLCVU-230" value="前端程序" style="html=1;verticalAlign=top;verticalLabelPosition=bottom;labelBackgroundColor=none;imageAspect=0;aspect=fixed;strokeColor=#CC99FF;strokeWidth=1;fontSize=18;fontColor=#FFFFFF;align=center;fontStyle=1;fillColor=none;" vertex="1" parent="1">
                    <mxGeometry x="669.5" y="2960.5" width="85" height="85" as="geometry"/>
                </mxCell>
                <mxCell id="YCX0NGYQ5Nv7W-sqLCVU-231" value="持久化" style="verticalLabelPosition=bottom;html=1;verticalAlign=top;align=center;strokeColor=none;fillColor=#00BEF2;shape=mxgraph.azure.database;labelBackgroundColor=none;fontSize=20;fontColor=#FFFFFF;fontStyle=1;" vertex="1" parent="1">
                    <mxGeometry x="2066" y="3229" width="82" height="111" as="geometry"/>
                </mxCell>
                <mxCell id="YCX0NGYQ5Nv7W-sqLCVU-232" style="edgeStyle=none;rounded=0;orthogonalLoop=1;jettySize=auto;html=1;exitX=0;exitY=0.5;exitDx=0;exitDy=0;entryX=1;entryY=0.5;entryDx=0;entryDy=0;startArrow=block;startFill=1;endArrow=block;endFill=1;strokeColor=#FFFFFF;strokeWidth=6;fontSize=20;fontColor=#FFFFFF;" edge="1" parent="1" source="YCX0NGYQ5Nv7W-sqLCVU-233" target="YCX0NGYQ5Nv7W-sqLCVU-235">
                    <mxGeometry relative="1" as="geometry"/>
                </mxCell>
                <mxCell id="YCX0NGYQ5Nv7W-sqLCVU-233" value="Jenkins" style="html=1;verticalAlign=top;verticalLabelPosition=bottom;labelBackgroundColor=none;imageAspect=0;aspect=fixed;strokeColor=#CC99FF;strokeWidth=1;fontSize=20;fontColor=#FFFFFF;align=center;imageBackground=#ffffff;fontStyle=1;fillColor=none;" vertex="1" parent="1">
                    <mxGeometry x="568" y="3237.5" width="110" height="110" as="geometry"/>
                </mxCell>
                <mxCell id="YCX0NGYQ5Nv7W-sqLCVU-234" style="edgeStyle=none;rounded=0;orthogonalLoop=1;jettySize=auto;html=1;exitX=0;exitY=0.5;exitDx=0;exitDy=0;startArrow=block;startFill=1;endArrow=block;endFill=1;strokeColor=#FFFFFF;strokeWidth=6;fontSize=20;fontColor=#FFFFFF;" edge="1" parent="1" source="YCX0NGYQ5Nv7W-sqLCVU-235" target="YCX0NGYQ5Nv7W-sqLCVU-236">
                    <mxGeometry relative="1" as="geometry"/>
                </mxCell>
                <mxCell id="YCX0NGYQ5Nv7W-sqLCVU-235" value="Docker" style="html=1;verticalAlign=top;verticalLabelPosition=bottom;labelBackgroundColor=none;imageAspect=0;aspect=fixed;fontFamily=Helvetica;fontSize=20;fontColor=#FFFFFF;align=center;strokeColor=#CC99FF;strokeWidth=1;fontStyle=1;fillColor=none;" vertex="1" parent="1">
                    <mxGeometry x="368" y="3232" width="120" height="120" as="geometry"/>
                </mxCell>
                <mxCell id="YCX0NGYQ5Nv7W-sqLCVU-236" value="DCE应用云平台" style="shadow=0;dashed=0;html=1;strokeColor=none;labelPosition=center;verticalLabelPosition=bottom;verticalAlign=top;outlineConnect=0;align=center;shape=mxgraph.office.databases.database_cube;fillColor=#66B2FF;fontFamily=Helvetica;fontSize=20;fontColor=#FFFFFF;strokeWidth=1;fontStyle=1" vertex="1" parent="1">
                    <mxGeometry x="179" y="3237.5" width="110" height="110" as="geometry"/>
                </mxCell>
                <mxCell id="YCX0NGYQ5Nv7W-sqLCVU-237" value="" style="edgeStyle=none;rounded=0;orthogonalLoop=1;jettySize=auto;html=1;startArrow=block;startFill=1;endArrow=block;endFill=1;strokeColor=#FFFFFF;strokeWidth=6;fontSize=20;fontColor=#FFFFFF;entryX=1;entryY=0.5;entryDx=0;entryDy=0;" edge="1" parent="1" source="YCX0NGYQ5Nv7W-sqLCVU-238" target="YCX0NGYQ5Nv7W-sqLCVU-233">
                    <mxGeometry relative="1" as="geometry">
                        <mxPoint x="682.0000000000005" y="3292.5" as="targetPoint"/>
                    </mxGeometry>
                </mxCell>
                <mxCell id="YCX0NGYQ5Nv7W-sqLCVU-238" value="DCS自动化构建" style="shadow=0;dashed=0;html=1;strokeColor=none;labelPosition=center;verticalLabelPosition=bottom;verticalAlign=top;outlineConnect=0;align=center;shape=mxgraph.office.databases.database_cube;fillColor=#66B2FF;fontFamily=Helvetica;fontSize=20;fontColor=#FFFFFF;strokeWidth=1;" vertex="1" parent="1">
                    <mxGeometry x="762" y="3237.5" width="110" height="110" as="geometry"/>
                </mxCell>
                <mxCell id="YCX0NGYQ5Nv7W-sqLCVU-239" style="rounded=0;orthogonalLoop=1;jettySize=auto;html=1;exitX=1;exitY=0.5;exitDx=0;exitDy=0;fontSize=20;fontColor=#FFFFFF;strokeWidth=6;strokeColor=#FFFFFF;endArrow=block;endFill=1;startArrow=block;startFill=1;entryX=-0.002;entryY=0.148;entryDx=0;entryDy=0;entryPerimeter=0;" edge="1" parent="1" source="YCX0NGYQ5Nv7W-sqLCVU-144" target="YCX0NGYQ5Nv7W-sqLCVU-160">
                    <mxGeometry relative="1" as="geometry">
                        <mxPoint x="402" y="2099.5" as="targetPoint"/>
                    </mxGeometry>
                </mxCell>
                <mxCell id="YCX0NGYQ5Nv7W-sqLCVU-240" style="edgeStyle=none;rounded=0;orthogonalLoop=1;jettySize=auto;html=1;exitX=1;exitY=0.5;exitDx=0;exitDy=0;startArrow=block;startFill=1;endArrow=block;endFill=1;strokeColor=#FFFFFF;strokeWidth=6;fontSize=20;fontColor=#FFFFFF;entryX=-0.004;entryY=0.503;entryDx=0;entryDy=0;entryPerimeter=0;" edge="1" parent="1" source="YCX0NGYQ5Nv7W-sqLCVU-148" target="YCX0NGYQ5Nv7W-sqLCVU-160">
                    <mxGeometry relative="1" as="geometry">
                        <mxPoint x="425" y="2394.5" as="targetPoint"/>
                    </mxGeometry>
                </mxCell>
                <mxCell id="YCX0NGYQ5Nv7W-sqLCVU-241" style="edgeStyle=none;rounded=0;orthogonalLoop=1;jettySize=auto;html=1;exitX=1;exitY=0.5;exitDx=0;exitDy=0;startArrow=block;startFill=1;endArrow=block;endFill=1;strokeColor=#FFFFFF;strokeWidth=6;fontSize=20;fontColor=#FFFFFF;entryX=0.001;entryY=0.85;entryDx=0;entryDy=0;entryPerimeter=0;" edge="1" parent="1" source="YCX0NGYQ5Nv7W-sqLCVU-152" target="YCX0NGYQ5Nv7W-sqLCVU-160">
                    <mxGeometry relative="1" as="geometry">
                        <mxPoint x="425" y="2721.5" as="targetPoint"/>
                    </mxGeometry>
                </mxCell>
                <mxCell id="YCX0NGYQ5Nv7W-sqLCVU-242" style="edgeStyle=none;rounded=0;orthogonalLoop=1;jettySize=auto;html=1;exitX=1;exitY=0.5;exitDx=0;exitDy=0;entryX=0;entryY=0.5;entryDx=0;entryDy=0;startArrow=block;startFill=1;endArrow=block;endFill=1;strokeColor=#FFFFFF;strokeWidth=6;fontSize=20;fontColor=#FFFFFF;" edge="1" parent="1" source="YCX0NGYQ5Nv7W-sqLCVU-156" target="YCX0NGYQ5Nv7W-sqLCVU-162">
                    <mxGeometry relative="1" as="geometry"/>
                </mxCell>
                <mxCell id="YCX0NGYQ5Nv7W-sqLCVU-243" value="&lt;blockquote style=&quot;margin: 0 0 0 40px ; border: none ; padding: 0px&quot;&gt;&lt;span style=&quot;font-size: 20px ; font-weight: 700 ; text-align: left&quot;&gt;RocketMQ消息列队集群&lt;/span&gt;&lt;/blockquote&gt;" style="shadow=0;dashed=0;html=1;strokeColor=none;labelPosition=right;verticalLabelPosition=middle;verticalAlign=middle;align=left;shape=mxgraph.mscae.cloud.dps;fillColor=#00BEF2;pointerEvents=1;labelBackgroundColor=none;fontSize=18;fontColor=#FFFFFF;" vertex="1" parent="1">
                    <mxGeometry x="1741.5" y="2463.5" width="120" height="120" as="geometry"/>
                </mxCell>
                <mxCell id="YCX0NGYQ5Nv7W-sqLCVU-244" value="WEB F5" style="shadow=0;dashed=0;html=1;strokeColor=none;fillColor=#0CDBF2;labelPosition=center;verticalLabelPosition=bottom;verticalAlign=top;align=center;shape=mxgraph.azure.azure_website;pointerEvents=1;fontFamily=Helvetica;fontSize=26;fontColor=#FFFFFF;" vertex="1" parent="1">
                    <mxGeometry x="669.5" y="2451.5" width="85" height="85" as="geometry"/>
                </mxCell>
                <mxCell id="YCX0NGYQ5Nv7W-sqLCVU-245" value="" style="aspect=fixed;html=1;points=[];align=center;image;fontSize=12;image=img/lib/mscae/Virtual_Datacenter.svg;" vertex="1" parent="1">
                    <mxGeometry x="1412" y="3267.5" width="90.5" height="90.5" as="geometry"/>
                </mxCell>
                <mxCell id="YCX0NGYQ5Nv7W-sqLCVU-246" value="" style="aspect=fixed;html=1;points=[];align=center;image;fontSize=12;image=img/lib/mscae/Virtual_Datacenter.svg;" vertex="1" parent="1">
                    <mxGeometry x="1730" y="3260" width="91.5" height="91.5" as="geometry"/>
                </mxCell>
                <mxCell id="YCX0NGYQ5Nv7W-sqLCVU-247" value="" style="aspect=fixed;html=1;points=[];align=center;image;fontSize=12;image=img/lib/mscae/Person.svg;" vertex="1" parent="1">
                    <mxGeometry x="690" y="2978" width="42.92" height="58" as="geometry"/>
                </mxCell>
                <mxCell id="YCX0NGYQ5Nv7W-sqLCVU-248" value="" style="html=1;verticalLabelPosition=bottom;align=center;labelBackgroundColor=#ffffff;verticalAlign=top;strokeWidth=2;strokeColor=#0080F0;shadow=0;dashed=0;shape=mxgraph.ios7.icons.user;fillColor=none;" vertex="1" parent="1">
                    <mxGeometry x="580" y="3248" width="90" height="90" as="geometry"/>
                </mxCell>
                <mxCell id="YCX0NGYQ5Nv7W-sqLCVU-249" value="" style="html=1;verticalLabelPosition=bottom;align=center;labelBackgroundColor=#ffffff;verticalAlign=top;strokeWidth=2;strokeColor=#0080F0;shadow=0;dashed=0;shape=mxgraph.ios7.icons.retry;fillColor=none;" vertex="1" parent="1">
                    <mxGeometry x="380" y="3248" width="100" height="80" as="geometry"/>
                </mxCell>
                <mxCell id="YCX0NGYQ5Nv7W-sqLCVU-250" value="" style="html=1;verticalLabelPosition=bottom;align=center;labelBackgroundColor=#ffffff;verticalAlign=top;strokeWidth=2;shadow=0;dashed=0;shape=mxgraph.ios7.icons.data;fillColor=#dae8fc;strokeColor=#6c8ebf;" vertex="1" parent="1">
                    <mxGeometry x="1763.38" y="2326" width="76.25" height="90" as="geometry"/>
                </mxCell>
                <mxCell id="YCX0NGYQ5Nv7W-sqLCVU-252" value="" style="verticalLabelPosition=bottom;verticalAlign=top;html=1;shape=mxgraph.basic.diag_round_rect;dx=23;strokeColor=#EA6B66;fillColor=#EA6B66;rotation=180;" vertex="1" parent="1">
                    <mxGeometry x="1825.5" y="385" width="209" height="95" as="geometry"/>
                </mxCell>
                <mxCell id="YCX0NGYQ5Nv7W-sqLCVU-253" value="&lt;font color=&quot;#ffffff&quot; size=&quot;1&quot;&gt;&lt;b style=&quot;font-size: 20px&quot;&gt;Text&lt;br&gt;&lt;/b&gt;&lt;/font&gt;&lt;font style=&quot;font-size: 13px&quot;&gt;&lt;b style=&quot;color: rgb(255 , 255 , 255)&quot;&gt;Text、&lt;/b&gt;&lt;b style=&quot;color: rgb(255 , 255 , 255)&quot;&gt;Text、&lt;/b&gt;&lt;b style=&quot;color: rgb(255 , 255 , 255)&quot;&gt;Text&lt;br&gt;&lt;/b&gt;&lt;/font&gt;&lt;b style=&quot;font-size: 13px ; color: rgb(255 , 255 , 255)&quot;&gt;Text、&lt;/b&gt;&lt;b style=&quot;font-size: 13px ; color: rgb(255 , 255 , 255)&quot;&gt;Text、&lt;/b&gt;&lt;b style=&quot;font-size: 13px ; color: rgb(255 , 255 , 255)&quot;&gt;Text&lt;br&gt;&lt;/b&gt;&lt;b style=&quot;font-size: 13px ; color: rgb(255 , 255 , 255)&quot;&gt;Text、&lt;/b&gt;&lt;b style=&quot;font-size: 13px ; color: rgb(255 , 255 , 255)&quot;&gt;Text、&lt;/b&gt;&lt;b style=&quot;font-size: 13px ; color: rgb(255 , 255 , 255)&quot;&gt;Text&lt;/b&gt;&lt;font color=&quot;#ffffff&quot; size=&quot;1&quot;&gt;&lt;b style=&quot;font-size: 20px&quot;&gt;&lt;br&gt;&lt;/b&gt;&lt;/font&gt;" style="text;html=1;resizable=0;autosize=1;align=center;verticalAlign=middle;points=[];fillColor=none;strokeColor=none;rounded=0;" vertex="1" parent="1">
                    <mxGeometry x="1877" y="401" width="113" height="66" as="geometry"/>
                </mxCell>
                <mxCell id="YCX0NGYQ5Nv7W-sqLCVU-254" value="" style="verticalLabelPosition=bottom;verticalAlign=top;html=1;shape=mxgraph.basic.diag_round_rect;dx=23;strokeColor=#EA6B66;fillColor=#EA6B66;rotation=180;" vertex="1" parent="1">
                    <mxGeometry x="1935" y="272.5" width="209" height="95" as="geometry"/>
                </mxCell>
                <mxCell id="YCX0NGYQ5Nv7W-sqLCVU-255" value="&lt;font color=&quot;#ffffff&quot; size=&quot;1&quot;&gt;&lt;b style=&quot;font-size: 20px&quot;&gt;Text&lt;br&gt;&lt;/b&gt;&lt;/font&gt;&lt;font style=&quot;font-size: 13px&quot;&gt;&lt;b style=&quot;color: rgb(255 , 255 , 255)&quot;&gt;Text、&lt;/b&gt;&lt;b style=&quot;color: rgb(255 , 255 , 255)&quot;&gt;Text、&lt;/b&gt;&lt;b style=&quot;color: rgb(255 , 255 , 255)&quot;&gt;Text&lt;br&gt;&lt;/b&gt;&lt;/font&gt;&lt;b style=&quot;font-size: 13px ; color: rgb(255 , 255 , 255)&quot;&gt;Text、&lt;/b&gt;&lt;b style=&quot;font-size: 13px ; color: rgb(255 , 255 , 255)&quot;&gt;Text、&lt;/b&gt;&lt;b style=&quot;font-size: 13px ; color: rgb(255 , 255 , 255)&quot;&gt;Text&lt;br&gt;&lt;/b&gt;&lt;b style=&quot;font-size: 13px ; color: rgb(255 , 255 , 255)&quot;&gt;Text、&lt;/b&gt;&lt;b style=&quot;font-size: 13px ; color: rgb(255 , 255 , 255)&quot;&gt;Text、&lt;/b&gt;&lt;b style=&quot;font-size: 13px ; color: rgb(255 , 255 , 255)&quot;&gt;Text&lt;/b&gt;&lt;font color=&quot;#ffffff&quot; size=&quot;1&quot;&gt;&lt;b style=&quot;font-size: 20px&quot;&gt;&lt;br&gt;&lt;/b&gt;&lt;/font&gt;" style="text;html=1;resizable=0;autosize=1;align=center;verticalAlign=middle;points=[];fillColor=none;strokeColor=none;rounded=0;" vertex="1" parent="1">
                    <mxGeometry x="1986.5" y="288.5" width="113" height="66" as="geometry"/>
                </mxCell>
                <mxCell id="YCX0NGYQ5Nv7W-sqLCVU-256" value="" style="verticalLabelPosition=bottom;verticalAlign=top;html=1;shape=mxgraph.basic.diag_round_rect;dx=23;strokeColor=#EA6B66;fillColor=#EA6B66;rotation=180;" vertex="1" parent="1">
                    <mxGeometry x="1290" y="281" width="209" height="95" as="geometry"/>
                </mxCell>
                <mxCell id="YCX0NGYQ5Nv7W-sqLCVU-257" value="&lt;font color=&quot;#ffffff&quot; size=&quot;1&quot;&gt;&lt;b style=&quot;font-size: 20px&quot;&gt;Text&lt;br&gt;&lt;/b&gt;&lt;/font&gt;&lt;font style=&quot;font-size: 13px&quot;&gt;&lt;b style=&quot;color: rgb(255 , 255 , 255)&quot;&gt;Text、&lt;/b&gt;&lt;b style=&quot;color: rgb(255 , 255 , 255)&quot;&gt;Text、&lt;/b&gt;&lt;b style=&quot;color: rgb(255 , 255 , 255)&quot;&gt;Text&lt;br&gt;&lt;/b&gt;&lt;/font&gt;&lt;b style=&quot;font-size: 13px ; color: rgb(255 , 255 , 255)&quot;&gt;Text、&lt;/b&gt;&lt;b style=&quot;font-size: 13px ; color: rgb(255 , 255 , 255)&quot;&gt;Text、&lt;/b&gt;&lt;b style=&quot;font-size: 13px ; color: rgb(255 , 255 , 255)&quot;&gt;Text&lt;br&gt;&lt;/b&gt;&lt;b style=&quot;font-size: 13px ; color: rgb(255 , 255 , 255)&quot;&gt;Text、&lt;/b&gt;&lt;b style=&quot;font-size: 13px ; color: rgb(255 , 255 , 255)&quot;&gt;Text、&lt;/b&gt;&lt;b style=&quot;font-size: 13px ; color: rgb(255 , 255 , 255)&quot;&gt;Text&lt;/b&gt;&lt;font color=&quot;#ffffff&quot; size=&quot;1&quot;&gt;&lt;b style=&quot;font-size: 20px&quot;&gt;&lt;br&gt;&lt;/b&gt;&lt;/font&gt;" style="text;html=1;resizable=0;autosize=1;align=center;verticalAlign=middle;points=[];fillColor=none;strokeColor=none;rounded=0;" vertex="1" parent="1">
                    <mxGeometry x="1341.5" y="297" width="113" height="66" as="geometry"/>
                </mxCell>
                <mxCell id="YCX0NGYQ5Nv7W-sqLCVU-258" value="" style="verticalLabelPosition=bottom;verticalAlign=top;html=1;shape=mxgraph.basic.diag_round_rect;dx=23;strokeColor=#EA6B66;fillColor=#EA6B66;rotation=180;" vertex="1" parent="1">
                    <mxGeometry x="1326.5" y="502" width="209" height="95" as="geometry"/>
                </mxCell>
                <mxCell id="YCX0NGYQ5Nv7W-sqLCVU-259" value="" style="verticalLabelPosition=bottom;verticalAlign=top;html=1;shape=mxgraph.basic.diag_round_rect;dx=23;strokeColor=#EA6B66;fillColor=#EA6B66;rotation=180;" vertex="1" parent="1">
                    <mxGeometry x="1436" y="164" width="209" height="95" as="geometry"/>
                </mxCell>
                <mxCell id="YCX0NGYQ5Nv7W-sqLCVU-260" value="" style="verticalLabelPosition=bottom;verticalAlign=top;html=1;shape=mxgraph.basic.diag_round_rect;dx=23;strokeColor=#EA6B66;fillColor=#EA6B66;" vertex="1" parent="1">
                    <mxGeometry x="1898.5" y="494.5" width="209" height="95" as="geometry"/>
                </mxCell>
                <mxCell id="YCX0NGYQ5Nv7W-sqLCVU-261" value="&lt;font color=&quot;#ffffff&quot; size=&quot;1&quot;&gt;&lt;b style=&quot;font-size: 20px&quot;&gt;Text&lt;br&gt;&lt;/b&gt;&lt;/font&gt;&lt;font style=&quot;font-size: 13px&quot;&gt;&lt;b style=&quot;color: rgb(255 , 255 , 255)&quot;&gt;Text、&lt;/b&gt;&lt;b style=&quot;color: rgb(255 , 255 , 255)&quot;&gt;Text、&lt;/b&gt;&lt;b style=&quot;color: rgb(255 , 255 , 255)&quot;&gt;Text&lt;br&gt;&lt;/b&gt;&lt;/font&gt;&lt;b style=&quot;font-size: 13px ; color: rgb(255 , 255 , 255)&quot;&gt;Text、&lt;/b&gt;&lt;b style=&quot;font-size: 13px ; color: rgb(255 , 255 , 255)&quot;&gt;Text、&lt;/b&gt;&lt;b style=&quot;font-size: 13px ; color: rgb(255 , 255 , 255)&quot;&gt;Text&lt;br&gt;&lt;/b&gt;&lt;b style=&quot;font-size: 13px ; color: rgb(255 , 255 , 255)&quot;&gt;Text、&lt;/b&gt;&lt;b style=&quot;font-size: 13px ; color: rgb(255 , 255 , 255)&quot;&gt;Text、&lt;/b&gt;&lt;b style=&quot;font-size: 13px ; color: rgb(255 , 255 , 255)&quot;&gt;Text&lt;/b&gt;&lt;font color=&quot;#ffffff&quot; size=&quot;1&quot;&gt;&lt;b style=&quot;font-size: 20px&quot;&gt;&lt;br&gt;&lt;/b&gt;&lt;/font&gt;" style="text;html=1;resizable=0;autosize=1;align=center;verticalAlign=middle;points=[];fillColor=none;strokeColor=none;rounded=0;" vertex="1" parent="1">
                    <mxGeometry x="1952.5" y="505.5" width="113" height="66" as="geometry"/>
                </mxCell>
                <mxCell id="YCX0NGYQ5Nv7W-sqLCVU-262" value="" style="verticalLabelPosition=bottom;verticalAlign=top;html=1;shape=mxgraph.basic.diag_round_rect;dx=23;strokeColor=#EA6B66;fillColor=#EA6B66;" vertex="1" parent="1">
                    <mxGeometry x="1417.5" y="389" width="209" height="95" as="geometry"/>
                </mxCell>
                <mxCell id="YCX0NGYQ5Nv7W-sqLCVU-263" value="" style="verticalLabelPosition=bottom;verticalAlign=top;html=1;shape=mxgraph.basic.diag_round_rect;dx=23;strokeColor=#EA6B66;fillColor=#EA6B66;" vertex="1" parent="1">
                    <mxGeometry x="1805.5" y="168" width="209" height="95" as="geometry"/>
                </mxCell>
                <mxCell id="YCX0NGYQ5Nv7W-sqLCVU-264" value="" style="endArrow=none;html=1;strokeWidth=8;strokeColor=#4D9900;" edge="1" parent="1">
                    <mxGeometry width="50" height="50" relative="1" as="geometry">
                        <mxPoint x="1740.5" y="322" as="sourcePoint"/>
                        <mxPoint x="1740.5" y="226" as="targetPoint"/>
                    </mxGeometry>
                </mxCell>
                <mxCell id="YCX0NGYQ5Nv7W-sqLCVU-265" value="" style="endArrow=none;html=1;strokeWidth=9;strokeColor=#4D9900;" edge="1" parent="1">
                    <mxGeometry width="50" height="50" relative="1" as="geometry">
                        <mxPoint x="1739" y="228" as="sourcePoint"/>
                        <mxPoint x="1755.5" y="217" as="targetPoint"/>
                    </mxGeometry>
                </mxCell>
                <mxCell id="YCX0NGYQ5Nv7W-sqLCVU-266" value="" style="endArrow=none;html=1;strokeWidth=9;strokeColor=#4D9900;" edge="1" parent="1">
                    <mxGeometry width="50" height="50" relative="1" as="geometry">
                        <mxPoint x="1754" y="217.5" as="sourcePoint"/>
                        <mxPoint x="1790.5" y="217.5" as="targetPoint"/>
                    </mxGeometry>
                </mxCell>
                <mxCell id="YCX0NGYQ5Nv7W-sqLCVU-267" value="&lt;b style=&quot;color: rgb(255 , 255 , 255) ; font-size: 23px&quot;&gt;08&lt;/b&gt;" style="ellipse;whiteSpace=wrap;html=1;aspect=fixed;strokeColor=#4D9900;fillColor=#4D9900;" vertex="1" parent="1">
                    <mxGeometry x="1788.5" y="196" width="42" height="42" as="geometry"/>
                </mxCell>
                <mxCell id="YCX0NGYQ5Nv7W-sqLCVU-268" value="" style="endArrow=none;html=1;strokeWidth=8;strokeColor=#FFD966;" edge="1" parent="1">
                    <mxGeometry width="50" height="50" relative="1" as="geometry">
                        <mxPoint x="1740.5" y="418" as="sourcePoint"/>
                        <mxPoint x="1740.5" y="322" as="targetPoint"/>
                    </mxGeometry>
                </mxCell>
                <mxCell id="YCX0NGYQ5Nv7W-sqLCVU-269" value="" style="endArrow=none;html=1;strokeWidth=9;strokeColor=#FFD966;" edge="1" parent="1">
                    <mxGeometry width="50" height="50" relative="1" as="geometry">
                        <mxPoint x="1739" y="324" as="sourcePoint"/>
                        <mxPoint x="1755.5" y="313" as="targetPoint"/>
                    </mxGeometry>
                </mxCell>
                <mxCell id="YCX0NGYQ5Nv7W-sqLCVU-270" value="" style="endArrow=none;html=1;strokeWidth=9;strokeColor=#FFD966;" edge="1" parent="1">
                    <mxGeometry width="50" height="50" relative="1" as="geometry">
                        <mxPoint x="1754" y="313.5" as="sourcePoint"/>
                        <mxPoint x="1936.5" y="314" as="targetPoint"/>
                    </mxGeometry>
                </mxCell>
                <mxCell id="YCX0NGYQ5Nv7W-sqLCVU-271" value="&lt;b style=&quot;color: rgb(255 , 255 , 255) ; font-size: 23px&quot;&gt;06&lt;/b&gt;" style="ellipse;whiteSpace=wrap;html=1;aspect=fixed;strokeColor=none;fillColor=#FFD966;" vertex="1" parent="1">
                    <mxGeometry x="1935" y="292" width="42" height="42" as="geometry"/>
                </mxCell>
                <mxCell id="YCX0NGYQ5Nv7W-sqLCVU-272" value="" style="endArrow=none;html=1;strokeWidth=8;strokeColor=#4D9900;" edge="1" parent="1">
                    <mxGeometry width="50" height="50" relative="1" as="geometry">
                        <mxPoint x="1740.5" y="513" as="sourcePoint"/>
                        <mxPoint x="1740.5" y="417" as="targetPoint"/>
                    </mxGeometry>
                </mxCell>
                <mxCell id="YCX0NGYQ5Nv7W-sqLCVU-273" value="" style="endArrow=none;html=1;strokeWidth=9;strokeColor=#4D9900;" edge="1" parent="1">
                    <mxGeometry width="50" height="50" relative="1" as="geometry">
                        <mxPoint x="1739" y="419" as="sourcePoint"/>
                        <mxPoint x="1755.5" y="408" as="targetPoint"/>
                    </mxGeometry>
                </mxCell>
                <mxCell id="YCX0NGYQ5Nv7W-sqLCVU-274" value="" style="endArrow=none;html=1;strokeWidth=9;strokeColor=#4D9900;entryX=0;entryY=0.5;entryDx=0;entryDy=0;" edge="1" parent="1" target="YCX0NGYQ5Nv7W-sqLCVU-275">
                    <mxGeometry width="50" height="50" relative="1" as="geometry">
                        <mxPoint x="1754" y="408.5" as="sourcePoint"/>
                        <mxPoint x="1790.5" y="408.5" as="targetPoint"/>
                    </mxGeometry>
                </mxCell>
                <mxCell id="YCX0NGYQ5Nv7W-sqLCVU-275" value="&lt;b style=&quot;color: rgb(255 , 255 , 255) ; font-size: 23px&quot;&gt;04&lt;/b&gt;" style="ellipse;whiteSpace=wrap;html=1;aspect=fixed;strokeColor=#4D9900;fillColor=#4D9900;" vertex="1" parent="1">
                    <mxGeometry x="1798.5" y="387" width="42" height="42" as="geometry"/>
                </mxCell>
                <mxCell id="YCX0NGYQ5Nv7W-sqLCVU-276" value="" style="endArrow=none;html=1;strokeWidth=8;strokeColor=#FFD966;" edge="1" parent="1">
                    <mxGeometry width="50" height="50" relative="1" as="geometry">
                        <mxPoint x="1740.5" y="608" as="sourcePoint"/>
                        <mxPoint x="1740.5" y="512" as="targetPoint"/>
                    </mxGeometry>
                </mxCell>
                <mxCell id="YCX0NGYQ5Nv7W-sqLCVU-277" value="" style="endArrow=none;html=1;strokeWidth=9;strokeColor=#FFD966;" edge="1" parent="1">
                    <mxGeometry width="50" height="50" relative="1" as="geometry">
                        <mxPoint x="1739" y="514" as="sourcePoint"/>
                        <mxPoint x="1755.5" y="503" as="targetPoint"/>
                    </mxGeometry>
                </mxCell>
                <mxCell id="YCX0NGYQ5Nv7W-sqLCVU-278" value="" style="endArrow=none;html=1;strokeWidth=9;strokeColor=#FFD966;" edge="1" parent="1">
                    <mxGeometry width="50" height="50" relative="1" as="geometry">
                        <mxPoint x="1754" y="503.5" as="sourcePoint"/>
                        <mxPoint x="1878.5" y="504" as="targetPoint"/>
                    </mxGeometry>
                </mxCell>
                <mxCell id="YCX0NGYQ5Nv7W-sqLCVU-279" value="&lt;b style=&quot;color: rgb(255 , 255 , 255) ; font-size: 23px&quot;&gt;02&lt;/b&gt;" style="ellipse;whiteSpace=wrap;html=1;aspect=fixed;strokeColor=none;fillColor=#FFD966;" vertex="1" parent="1">
                    <mxGeometry x="1876.5" y="482" width="42" height="42" as="geometry"/>
                </mxCell>
                <mxCell id="YCX0NGYQ5Nv7W-sqLCVU-280" value="" style="endArrow=none;html=1;strokeWidth=9;strokeColor=#4D9900;" edge="1" parent="1">
                    <mxGeometry width="50" height="50" relative="1" as="geometry">
                        <mxPoint x="1741.5" y="260" as="sourcePoint"/>
                        <mxPoint x="1718.5" y="239" as="targetPoint"/>
                    </mxGeometry>
                </mxCell>
                <mxCell id="YCX0NGYQ5Nv7W-sqLCVU-281" value="" style="endArrow=none;html=1;strokeWidth=9;strokeColor=#4D9900;" edge="1" parent="1">
                    <mxGeometry width="50" height="50" relative="1" as="geometry">
                        <mxPoint x="1654.5" y="240" as="sourcePoint"/>
                        <mxPoint x="1721.5" y="240" as="targetPoint"/>
                    </mxGeometry>
                </mxCell>
                <mxCell id="YCX0NGYQ5Nv7W-sqLCVU-282" value="&lt;font size=&quot;1&quot; color=&quot;#ffffff&quot;&gt;&lt;b style=&quot;font-size: 23px&quot;&gt;07&lt;/b&gt;&lt;/font&gt;" style="ellipse;whiteSpace=wrap;html=1;aspect=fixed;strokeColor=none;fillColor=#4D9900;" vertex="1" parent="1">
                    <mxGeometry x="1614" y="217" width="42" height="42" as="geometry"/>
                </mxCell>
                <mxCell id="YCX0NGYQ5Nv7W-sqLCVU-283" value="" style="endArrow=none;html=1;strokeWidth=9;strokeColor=#FFD966;" edge="1" parent="1">
                    <mxGeometry width="50" height="50" relative="1" as="geometry">
                        <mxPoint x="1741" y="347" as="sourcePoint"/>
                        <mxPoint x="1718" y="326" as="targetPoint"/>
                    </mxGeometry>
                </mxCell>
                <mxCell id="YCX0NGYQ5Nv7W-sqLCVU-284" value="" style="endArrow=none;html=1;strokeWidth=9;strokeColor=#FFD966;exitX=1;exitY=0.5;exitDx=0;exitDy=0;" edge="1" parent="1" source="YCX0NGYQ5Nv7W-sqLCVU-285">
                    <mxGeometry width="50" height="50" relative="1" as="geometry">
                        <mxPoint x="1581.5" y="327" as="sourcePoint"/>
                        <mxPoint x="1721" y="327" as="targetPoint"/>
                    </mxGeometry>
                </mxCell>
                <mxCell id="YCX0NGYQ5Nv7W-sqLCVU-285" value="&lt;b style=&quot;color: rgb(255 , 255 , 255) ; font-size: 23px&quot;&gt;05&lt;/b&gt;" style="ellipse;whiteSpace=wrap;html=1;aspect=fixed;strokeColor=none;fillColor=#FFD966;" vertex="1" parent="1">
                    <mxGeometry x="1476.5" y="307" width="42" height="42" as="geometry"/>
                </mxCell>
                <mxCell id="YCX0NGYQ5Nv7W-sqLCVU-286" value="" style="endArrow=none;html=1;strokeWidth=9;strokeColor=#4D9900;" edge="1" parent="1">
                    <mxGeometry width="50" height="50" relative="1" as="geometry">
                        <mxPoint x="1741.5" y="450.5" as="sourcePoint"/>
                        <mxPoint x="1718.5" y="429.5" as="targetPoint"/>
                    </mxGeometry>
                </mxCell>
                <mxCell id="YCX0NGYQ5Nv7W-sqLCVU-287" value="" style="endArrow=none;html=1;strokeWidth=9;strokeColor=#4D9900;" edge="1" parent="1">
                    <mxGeometry width="50" height="50" relative="1" as="geometry">
                        <mxPoint x="1654.5" y="430.5" as="sourcePoint"/>
                        <mxPoint x="1721.5" y="430.5" as="targetPoint"/>
                    </mxGeometry>
                </mxCell>
                <mxCell id="YCX0NGYQ5Nv7W-sqLCVU-288" value="&lt;b style=&quot;color: rgb(255 , 255 , 255) ; font-size: 23px&quot;&gt;03&lt;/b&gt;" style="ellipse;whiteSpace=wrap;html=1;aspect=fixed;strokeColor=#4D9900;fillColor=#4D9900;" vertex="1" parent="1">
                    <mxGeometry x="1614" y="407.5" width="42" height="42" as="geometry"/>
                </mxCell>
                <mxCell id="YCX0NGYQ5Nv7W-sqLCVU-289" value="" style="endArrow=none;html=1;strokeWidth=9;strokeColor=#FFD966;" edge="1" parent="1">
                    <mxGeometry width="50" height="50" relative="1" as="geometry">
                        <mxPoint x="1742" y="543.5" as="sourcePoint"/>
                        <mxPoint x="1719" y="522.5" as="targetPoint"/>
                    </mxGeometry>
                </mxCell>
                <mxCell id="YCX0NGYQ5Nv7W-sqLCVU-290" value="" style="endArrow=none;html=1;strokeWidth=9;strokeColor=#FFD966;" edge="1" parent="1">
                    <mxGeometry width="50" height="50" relative="1" as="geometry">
                        <mxPoint x="1557.5" y="524" as="sourcePoint"/>
                        <mxPoint x="1722" y="523.5" as="targetPoint"/>
                    </mxGeometry>
                </mxCell>
                <mxCell id="YCX0NGYQ5Nv7W-sqLCVU-291" value="&lt;b style=&quot;color: rgb(255 , 255 , 255) ; font-size: 23px&quot;&gt;01&lt;/b&gt;" style="ellipse;whiteSpace=wrap;html=1;aspect=fixed;strokeColor=none;fillColor=#FFD966;" vertex="1" parent="1">
                    <mxGeometry x="1514.5" y="503" width="42" height="42" as="geometry"/>
                </mxCell>
                <mxCell id="YCX0NGYQ5Nv7W-sqLCVU-292" value="" style="shape=curlyBracket;whiteSpace=wrap;html=1;rounded=1;strokeColor=#EA6B66;strokeWidth=8;fillColor=none;direction=south;size=0.32835820895522555;" vertex="1" parent="1">
                    <mxGeometry x="1317" y="586" width="849" height="136" as="geometry"/>
                </mxCell>
                <mxCell id="YCX0NGYQ5Nv7W-sqLCVU-293" value="" style="shape=curlyBracket;whiteSpace=wrap;html=1;rounded=1;strokeColor=#EA6B66;strokeWidth=8;fillColor=none;direction=south;size=0.32835820895522555;" vertex="1" parent="1">
                    <mxGeometry x="1583.5" y="588" width="316" height="134" as="geometry"/>
                </mxCell>
                <mxCell id="YCX0NGYQ5Nv7W-sqLCVU-294" value="" style="ellipse;whiteSpace=wrap;html=1;aspect=fixed;strokeColor=none;strokeWidth=8;fillColor=#EA6B66;" vertex="1" parent="1">
                    <mxGeometry x="1308" y="721" width="18" height="18" as="geometry"/>
                </mxCell>
                <mxCell id="YCX0NGYQ5Nv7W-sqLCVU-295" value="" style="ellipse;whiteSpace=wrap;html=1;aspect=fixed;strokeColor=none;strokeWidth=8;fillColor=#EA6B66;" vertex="1" parent="1">
                    <mxGeometry x="2157" y="719" width="18" height="18" as="geometry"/>
                </mxCell>
                <mxCell id="YCX0NGYQ5Nv7W-sqLCVU-296" value="" style="edgeStyle=elbowEdgeStyle;elbow=vertical;endArrow=classic;html=1;strokeColor=#FFD966;strokeWidth=4;" edge="1" parent="1">
                    <mxGeometry width="50" height="50" relative="1" as="geometry">
                        <mxPoint x="1701.5" y="524" as="sourcePoint"/>
                        <mxPoint x="1614" y="594" as="targetPoint"/>
                        <Array as="points">
                            <mxPoint x="1702" y="594"/>
                        </Array>
                    </mxGeometry>
                </mxCell>
                <mxCell id="YCX0NGYQ5Nv7W-sqLCVU-297" value="" style="edgeStyle=elbowEdgeStyle;elbow=vertical;endArrow=classic;html=1;strokeColor=#4D9900;strokeWidth=4;" edge="1" parent="1">
                    <mxGeometry width="50" height="50" relative="1" as="geometry">
                        <mxPoint x="1722.5" y="438" as="sourcePoint"/>
                        <mxPoint x="1622.5" y="490" as="targetPoint"/>
                        <Array as="points">
                            <mxPoint x="1672.5" y="462"/>
                        </Array>
                    </mxGeometry>
                </mxCell>
                <mxCell id="YCX0NGYQ5Nv7W-sqLCVU-298" value="" style="edgeStyle=elbowEdgeStyle;elbow=vertical;endArrow=classic;html=1;strokeColor=#4D9900;strokeWidth=4;" edge="1" parent="1">
                    <mxGeometry width="50" height="50" relative="1" as="geometry">
                        <mxPoint x="1722" y="427.5" as="sourcePoint"/>
                        <mxPoint x="1586.5" y="353" as="targetPoint"/>
                        <Array as="points">
                            <mxPoint x="1677" y="379.5"/>
                        </Array>
                    </mxGeometry>
                </mxCell>
                <mxCell id="YCX0NGYQ5Nv7W-sqLCVU-299" value="" style="edgeStyle=elbowEdgeStyle;elbow=vertical;endArrow=classic;html=1;strokeColor=#4D9900;strokeWidth=4;" edge="1" parent="1">
                    <mxGeometry width="50" height="50" relative="1" as="geometry">
                        <mxPoint x="1717" y="238" as="sourcePoint"/>
                        <mxPoint x="1649.5" y="294" as="targetPoint"/>
                        <Array as="points">
                            <mxPoint x="1685.5" y="260"/>
                        </Array>
                    </mxGeometry>
                </mxCell>
                <mxCell id="YCX0NGYQ5Nv7W-sqLCVU-300" value="" style="shape=curlyBracket;whiteSpace=wrap;html=1;rounded=1;strokeColor=#4D9900;strokeWidth=4;fillColor=none;size=0.727272727272732;" vertex="1" parent="1">
                    <mxGeometry x="1718.5" y="139" width="33" height="82" as="geometry"/>
                </mxCell>
                <mxCell id="YCX0NGYQ5Nv7W-sqLCVU-301" value="" style="edgeStyle=elbowEdgeStyle;elbow=vertical;endArrow=classic;html=1;strokeColor=#4D9900;strokeWidth=4;exitX=0.1;exitY=0.5;exitDx=0;exitDy=0;exitPerimeter=0;" edge="1" parent="1" source="YCX0NGYQ5Nv7W-sqLCVU-300">
                    <mxGeometry width="50" height="50" relative="1" as="geometry">
                        <mxPoint x="1709" y="172" as="sourcePoint"/>
                        <mxPoint x="1659.5" y="135" as="targetPoint"/>
                        <Array as="points"/>
                    </mxGeometry>
                </mxCell>
                <mxCell id="YCX0NGYQ5Nv7W-sqLCVU-302" value="" style="edgeStyle=elbowEdgeStyle;elbow=vertical;endArrow=classic;html=1;strokeColor=#4D9900;strokeWidth=4;" edge="1" parent="1">
                    <mxGeometry width="50" height="50" relative="1" as="geometry">
                        <mxPoint x="1742.5" y="211" as="sourcePoint"/>
                        <mxPoint x="1815.5" y="138" as="targetPoint"/>
                        <Array as="points"/>
                    </mxGeometry>
                </mxCell>
                <mxCell id="YCX0NGYQ5Nv7W-sqLCVU-303" value="" style="ellipse;whiteSpace=wrap;html=1;aspect=fixed;strokeColor=#4D9900;strokeWidth=9;fillColor=none;" vertex="1" parent="1">
                    <mxGeometry x="1701.5" y="60" width="80" height="80" as="geometry"/>
                </mxCell>
                <mxCell id="YCX0NGYQ5Nv7W-sqLCVU-304" value="" style="pointerEvents=1;shadow=0;dashed=0;html=1;strokeColor=none;labelPosition=center;verticalLabelPosition=bottom;verticalAlign=top;outlineConnect=0;align=center;shape=mxgraph.office.concepts.home;fillColor=#4D9900;labelBackgroundColor=#FFFFFF;fontColor=#4D9900;fontSize=3;" vertex="1" parent="1">
                    <mxGeometry x="1714.5" y="70" width="51" height="50" as="geometry"/>
                </mxCell>
                <mxCell id="YCX0NGYQ5Nv7W-sqLCVU-305" value="" style="pointerEvents=1;shadow=0;dashed=0;html=1;strokeColor=none;labelPosition=center;verticalLabelPosition=bottom;verticalAlign=top;outlineConnect=0;align=center;shape=mxgraph.office.concepts.node_generic;fillColor=#4D9900;labelBackgroundColor=#FFFFFF;fontSize=3;fontColor=#4D9900;" vertex="1" parent="1">
                    <mxGeometry x="1600" y="272.5" width="35" height="39" as="geometry"/>
                </mxCell>
                <mxCell id="YCX0NGYQ5Nv7W-sqLCVU-306" value="" style="pointerEvents=1;shadow=0;dashed=0;html=1;strokeColor=none;labelPosition=center;verticalLabelPosition=bottom;verticalAlign=top;outlineConnect=0;align=center;shape=mxgraph.office.security.lock_protected;fillColor=#7FBA42;labelBackgroundColor=#FFFFFF;fontSize=3;fontColor=#4D9900;" vertex="1" parent="1">
                    <mxGeometry x="1600.5" y="335" width="25" height="40" as="geometry"/>
                </mxCell>
                <mxCell id="YCX0NGYQ5Nv7W-sqLCVU-307" value="" style="pointerEvents=1;shadow=0;dashed=0;html=1;strokeColor=none;fillColor=#4D9900;labelPosition=center;verticalLabelPosition=bottom;verticalAlign=top;outlineConnect=0;align=center;shape=mxgraph.office.services.excel_services;labelBackgroundColor=#FFFFFF;fontSize=3;fontColor=#4D9900;" vertex="1" parent="1">
                    <mxGeometry x="1625.5" y="471" width="39" height="31" as="geometry"/>
                </mxCell>
                <mxCell id="YCX0NGYQ5Nv7W-sqLCVU-308" value="" style="edgeStyle=elbowEdgeStyle;elbow=horizontal;endArrow=classic;html=1;strokeColor=#FFD966;strokeWidth=4;fontSize=3;fontColor=#EA6B66;labelBackgroundColor=none;" edge="1" parent="1">
                    <mxGeometry width="50" height="50" relative="1" as="geometry">
                        <mxPoint x="1815.5" y="311.5" as="sourcePoint"/>
                        <mxPoint x="1865.5" y="282" as="targetPoint"/>
                        <Array as="points">
                            <mxPoint x="1840.5" y="292"/>
                        </Array>
                    </mxGeometry>
                </mxCell>
                <mxCell id="YCX0NGYQ5Nv7W-sqLCVU-309" value="" style="edgeStyle=elbowEdgeStyle;elbow=horizontal;endArrow=classic;html=1;strokeColor=#FFD966;strokeWidth=4;fontSize=3;fontColor=#EA6B66;labelBackgroundColor=none;" edge="1" parent="1">
                    <mxGeometry width="50" height="50" relative="1" as="geometry">
                        <mxPoint x="1849" y="311.5" as="sourcePoint"/>
                        <mxPoint x="1795.5" y="276.5" as="targetPoint"/>
                        <Array as="points">
                            <mxPoint x="1840" y="269.5"/>
                        </Array>
                    </mxGeometry>
                </mxCell>
                <mxCell id="YCX0NGYQ5Nv7W-sqLCVU-310" value="" style="shadow=0;dashed=0;html=1;strokeColor=none;fillColor=#FFD966;labelPosition=center;verticalLabelPosition=bottom;verticalAlign=top;outlineConnect=0;align=center;shape=mxgraph.office.databases.database_server_blue;" vertex="1" parent="1">
                    <mxGeometry x="1867" y="270" width="19" height="22" as="geometry"/>
                </mxCell>
                <mxCell id="YCX0NGYQ5Nv7W-sqLCVU-311" value="" style="shadow=0;dashed=0;html=1;strokeColor=none;labelPosition=center;verticalLabelPosition=bottom;verticalAlign=top;outlineConnect=0;align=center;shape=mxgraph.office.databases.database_mini_3;fillColor=#FFD966;" vertex="1" parent="1">
                    <mxGeometry x="1769.5" y="260.5" width="19" height="24" as="geometry"/>
                </mxCell>
                <mxCell id="YCX0NGYQ5Nv7W-sqLCVU-312" value="" style="edgeStyle=elbowEdgeStyle;elbow=horizontal;endArrow=classic;html=1;strokeColor=#4D9900;strokeWidth=4;fontSize=3;fontColor=#EA6B66;labelBackgroundColor=none;" edge="1" parent="1" target="YCX0NGYQ5Nv7W-sqLCVU-313">
                    <mxGeometry width="50" height="50" relative="1" as="geometry">
                        <mxPoint x="1756.5" y="409" as="sourcePoint"/>
                        <mxPoint x="1856.5" y="365" as="targetPoint"/>
                        <Array as="points">
                            <mxPoint x="1781.5" y="374.5"/>
                        </Array>
                    </mxGeometry>
                </mxCell>
                <mxCell id="YCX0NGYQ5Nv7W-sqLCVU-313" value="" style="shape=message;whiteSpace=wrap;html=1;outlineConnect=0;fillColor=#4D9900;strokeColor=#ffffff;strokeWidth=2;" vertex="1" parent="1">
                    <mxGeometry x="1836.5" y="350" width="40" height="30" as="geometry"/>
                </mxCell>
                <mxCell id="YCX0NGYQ5Nv7W-sqLCVU-314" value="" style="edgeStyle=elbowEdgeStyle;elbow=vertical;endArrow=classic;html=1;strokeColor=#FFD966;strokeWidth=4;" edge="1" parent="1">
                    <mxGeometry width="50" height="50" relative="1" as="geometry">
                        <mxPoint x="1794.5" y="508" as="sourcePoint"/>
                        <mxPoint x="1826.5" y="561" as="targetPoint"/>
                        <Array as="points">
                            <mxPoint x="1848.5" y="561"/>
                        </Array>
                    </mxGeometry>
                </mxCell>
                <mxCell id="YCX0NGYQ5Nv7W-sqLCVU-315" value="" style="verticalLabelPosition=bottom;verticalAlign=top;html=1;shape=mxgraph.basic.sun;fillColor=#FFD966;strokeColor=none;" vertex="1" parent="1">
                    <mxGeometry x="1830.5" y="537.5" width="41" height="45" as="geometry"/>
                </mxCell>
                <mxCell id="YCX0NGYQ5Nv7W-sqLCVU-316" value="&lt;font color=&quot;#ffffff&quot; size=&quot;1&quot;&gt;&lt;b style=&quot;font-size: 20px&quot;&gt;Text&lt;br&gt;&lt;/b&gt;&lt;/font&gt;&lt;font style=&quot;font-size: 13px&quot;&gt;&lt;b style=&quot;color: rgb(255 , 255 , 255)&quot;&gt;Text、&lt;/b&gt;&lt;b style=&quot;color: rgb(255 , 255 , 255)&quot;&gt;Text、&lt;/b&gt;&lt;b style=&quot;color: rgb(255 , 255 , 255)&quot;&gt;Text&lt;br&gt;&lt;/b&gt;&lt;/font&gt;&lt;b style=&quot;font-size: 13px ; color: rgb(255 , 255 , 255)&quot;&gt;Text、&lt;/b&gt;&lt;b style=&quot;font-size: 13px ; color: rgb(255 , 255 , 255)&quot;&gt;Text、&lt;/b&gt;&lt;b style=&quot;font-size: 13px ; color: rgb(255 , 255 , 255)&quot;&gt;Text&lt;br&gt;&lt;/b&gt;&lt;b style=&quot;font-size: 13px ; color: rgb(255 , 255 , 255)&quot;&gt;Text、&lt;/b&gt;&lt;b style=&quot;font-size: 13px ; color: rgb(255 , 255 , 255)&quot;&gt;Text、&lt;/b&gt;&lt;b style=&quot;font-size: 13px ; color: rgb(255 , 255 , 255)&quot;&gt;Text&lt;/b&gt;&lt;font color=&quot;#ffffff&quot; size=&quot;1&quot;&gt;&lt;b style=&quot;font-size: 20px&quot;&gt;&lt;br&gt;&lt;/b&gt;&lt;/font&gt;" style="text;html=1;resizable=0;autosize=1;align=center;verticalAlign=middle;points=[];fillColor=none;strokeColor=none;rounded=0;" vertex="1" parent="1">
                    <mxGeometry x="1374.5" y="516.5" width="113" height="66" as="geometry"/>
                </mxCell>
                <mxCell id="YCX0NGYQ5Nv7W-sqLCVU-317" value="&lt;font color=&quot;#ffffff&quot; size=&quot;1&quot;&gt;&lt;b style=&quot;font-size: 20px&quot;&gt;Text&lt;br&gt;&lt;/b&gt;&lt;/font&gt;&lt;font style=&quot;font-size: 13px&quot;&gt;&lt;b style=&quot;color: rgb(255 , 255 , 255)&quot;&gt;Text、&lt;/b&gt;&lt;b style=&quot;color: rgb(255 , 255 , 255)&quot;&gt;Text、&lt;/b&gt;&lt;b style=&quot;color: rgb(255 , 255 , 255)&quot;&gt;Text&lt;br&gt;&lt;/b&gt;&lt;/font&gt;&lt;b style=&quot;font-size: 13px ; color: rgb(255 , 255 , 255)&quot;&gt;Text、&lt;/b&gt;&lt;b style=&quot;font-size: 13px ; color: rgb(255 , 255 , 255)&quot;&gt;Text、&lt;/b&gt;&lt;b style=&quot;font-size: 13px ; color: rgb(255 , 255 , 255)&quot;&gt;Text&lt;br&gt;&lt;/b&gt;&lt;b style=&quot;font-size: 13px ; color: rgb(255 , 255 , 255)&quot;&gt;Text、&lt;/b&gt;&lt;b style=&quot;font-size: 13px ; color: rgb(255 , 255 , 255)&quot;&gt;Text、&lt;/b&gt;&lt;b style=&quot;font-size: 13px ; color: rgb(255 , 255 , 255)&quot;&gt;Text&lt;/b&gt;&lt;font color=&quot;#ffffff&quot; size=&quot;1&quot;&gt;&lt;b style=&quot;font-size: 20px&quot;&gt;&lt;br&gt;&lt;/b&gt;&lt;/font&gt;" style="text;html=1;resizable=0;autosize=1;align=center;verticalAlign=middle;points=[];fillColor=none;strokeColor=none;rounded=0;" vertex="1" parent="1">
                    <mxGeometry x="1856.5" y="184" width="113" height="66" as="geometry"/>
                </mxCell>
                <mxCell id="YCX0NGYQ5Nv7W-sqLCVU-318" value="&lt;font color=&quot;#ffffff&quot; size=&quot;1&quot;&gt;&lt;b style=&quot;font-size: 20px&quot;&gt;Text&lt;br&gt;&lt;/b&gt;&lt;/font&gt;&lt;font style=&quot;font-size: 13px&quot;&gt;&lt;b style=&quot;color: rgb(255 , 255 , 255)&quot;&gt;Text、&lt;/b&gt;&lt;b style=&quot;color: rgb(255 , 255 , 255)&quot;&gt;Text、&lt;/b&gt;&lt;b style=&quot;color: rgb(255 , 255 , 255)&quot;&gt;Text&lt;br&gt;&lt;/b&gt;&lt;/font&gt;&lt;b style=&quot;font-size: 13px ; color: rgb(255 , 255 , 255)&quot;&gt;Text、&lt;/b&gt;&lt;b style=&quot;font-size: 13px ; color: rgb(255 , 255 , 255)&quot;&gt;Text、&lt;/b&gt;&lt;b style=&quot;font-size: 13px ; color: rgb(255 , 255 , 255)&quot;&gt;Text&lt;br&gt;&lt;/b&gt;&lt;b style=&quot;font-size: 13px ; color: rgb(255 , 255 , 255)&quot;&gt;Text、&lt;/b&gt;&lt;b style=&quot;font-size: 13px ; color: rgb(255 , 255 , 255)&quot;&gt;Text、&lt;/b&gt;&lt;b style=&quot;font-size: 13px ; color: rgb(255 , 255 , 255)&quot;&gt;Text&lt;/b&gt;&lt;font color=&quot;#ffffff&quot; size=&quot;1&quot;&gt;&lt;b style=&quot;font-size: 20px&quot;&gt;&lt;br&gt;&lt;/b&gt;&lt;/font&gt;" style="text;html=1;resizable=0;autosize=1;align=center;verticalAlign=middle;points=[];fillColor=none;strokeColor=none;rounded=0;" vertex="1" parent="1">
                    <mxGeometry x="1463.5" y="403" width="113" height="66" as="geometry"/>
                </mxCell>
                <mxCell id="YCX0NGYQ5Nv7W-sqLCVU-319" value="&lt;font color=&quot;#ffffff&quot; size=&quot;1&quot;&gt;&lt;b style=&quot;font-size: 20px&quot;&gt;Text&lt;br&gt;&lt;/b&gt;&lt;/font&gt;&lt;font style=&quot;font-size: 13px&quot;&gt;&lt;b style=&quot;color: rgb(255 , 255 , 255)&quot;&gt;Text、&lt;/b&gt;&lt;b style=&quot;color: rgb(255 , 255 , 255)&quot;&gt;Text、&lt;/b&gt;&lt;b style=&quot;color: rgb(255 , 255 , 255)&quot;&gt;Text&lt;br&gt;&lt;/b&gt;&lt;/font&gt;&lt;b style=&quot;font-size: 13px ; color: rgb(255 , 255 , 255)&quot;&gt;Text、&lt;/b&gt;&lt;b style=&quot;font-size: 13px ; color: rgb(255 , 255 , 255)&quot;&gt;Text、&lt;/b&gt;&lt;b style=&quot;font-size: 13px ; color: rgb(255 , 255 , 255)&quot;&gt;Text&lt;br&gt;&lt;/b&gt;&lt;b style=&quot;font-size: 13px ; color: rgb(255 , 255 , 255)&quot;&gt;Text、&lt;/b&gt;&lt;b style=&quot;font-size: 13px ; color: rgb(255 , 255 , 255)&quot;&gt;Text、&lt;/b&gt;&lt;b style=&quot;font-size: 13px ; color: rgb(255 , 255 , 255)&quot;&gt;Text&lt;/b&gt;&lt;font color=&quot;#ffffff&quot; size=&quot;1&quot;&gt;&lt;b style=&quot;font-size: 20px&quot;&gt;&lt;br&gt;&lt;/b&gt;&lt;/font&gt;" style="text;html=1;resizable=0;autosize=1;align=center;verticalAlign=middle;points=[];fillColor=none;strokeColor=none;rounded=0;" vertex="1" parent="1">
                    <mxGeometry x="1487.5" y="180" width="113" height="66" as="geometry"/>
                </mxCell>
                <mxCell id="YCX0NGYQ5Nv7W-sqLCVU-320" value="" style="verticalLabelPosition=bottom;verticalAlign=top;html=1;shape=mxgraph.basic.tick;strokeColor=none;fillColor=#FFD966;" vertex="1" parent="1">
                    <mxGeometry x="1572" y="578.5" width="41" height="37" as="geometry"/>
                </mxCell>
                <mxCell id="YCX0NGYQ5Nv7W-sqLCVU-321" value="" style="ellipse;whiteSpace=wrap;html=1;aspect=fixed;strokeColor=none;strokeWidth=8;fillColor=#EA6B66;" vertex="1" parent="1">
                    <mxGeometry x="1573.5" y="721" width="18" height="18" as="geometry"/>
                </mxCell>
                <mxCell id="YCX0NGYQ5Nv7W-sqLCVU-322" value="" style="ellipse;whiteSpace=wrap;html=1;aspect=fixed;strokeColor=none;strokeWidth=8;fillColor=#EA6B66;" vertex="1" parent="1">
                    <mxGeometry x="1891.5" y="721" width="18" height="18" as="geometry"/>
                </mxCell>
            </root>
        </mxGraphModel>
    </diagram>
    <diagram id="LwYW-9ooVAaYc57EIT0R" name="第 3 页">
        <mxGraphModel dx="954" dy="586" grid="1" gridSize="10" guides="1" tooltips="1" connect="1" arrows="1" fold="1" page="1" pageScale="1" pageWidth="827" pageHeight="1169" math="0" shadow="0">
            <root>
                <mxCell id="0"/>
                <mxCell id="1" parent="0"/>
                <mxCell id="e0kCnVlTJtBXmfKh73T_-1" value="" style="verticalLabelPosition=bottom;verticalAlign=top;html=1;shape=mxgraph.basic.arc;startAngle=0.5763178656285476;endAngle=0.9232747917136791;flipH=1;fillColor=none;strokeWidth=3;strokeColor=#787878;" vertex="1" parent="1">
                    <mxGeometry x="190" y="90" width="780" height="923" as="geometry"/>
                </mxCell>
                <mxCell id="e0kCnVlTJtBXmfKh73T_-2" value="01&amp;nbsp;" style="ellipse;whiteSpace=wrap;html=1;aspect=fixed;fillColor=#3399FF;strokeWidth=3;strokeColor=#FFFFFF;labelPosition=left;verticalLabelPosition=middle;align=right;verticalAlign=middle;fontSize=30;fontStyle=1;fontColor=#3399FF;" vertex="1" parent="1">
                    <mxGeometry x="850" y="220" width="25" height="25" as="geometry"/>
                </mxCell>
                <mxCell id="e0kCnVlTJtBXmfKh73T_-3" value="&lt;h1&gt;&lt;font color=&quot;#3399ff&quot;&gt;标题&lt;/font&gt;&lt;/h1&gt;&lt;p&gt;&lt;font style=&quot;font-size: 16px&quot;&gt;这里可以填写详细内容，这里填写详细内容，这里填写详细内容这里填写详细内容，这里填写详细内容，这里填写详细内容。&lt;/font&gt;&lt;/p&gt;" style="text;html=1;strokeColor=none;fillColor=none;spacing=5;spacingTop=-20;whiteSpace=wrap;overflow=hidden;rounded=0;" vertex="1" parent="1">
                    <mxGeometry x="922.5" y="215" width="400" height="120" as="geometry"/>
                </mxCell>
                <mxCell id="e0kCnVlTJtBXmfKh73T_-4" value="02&amp;nbsp;" style="ellipse;whiteSpace=wrap;html=1;aspect=fixed;fillColor=#FF66B3;strokeWidth=3;strokeColor=#FFFFFF;fontColor=#FF66B3;labelPosition=left;verticalLabelPosition=middle;align=right;verticalAlign=middle;fontSize=30;fontStyle=1" vertex="1" parent="1">
                    <mxGeometry x="932" y="375" width="25" height="25" as="geometry"/>
                </mxCell>
                <mxCell id="e0kCnVlTJtBXmfKh73T_-5" value="03&amp;nbsp;" style="ellipse;whiteSpace=wrap;html=1;aspect=fixed;fillColor=#FF9933;strokeWidth=3;strokeColor=#FFFFFF;fontColor=#FF9933;labelPosition=left;verticalLabelPosition=middle;align=right;verticalAlign=middle;fontSize=30;fontStyle=1" vertex="1" parent="1">
                    <mxGeometry x="957.5" y="530" width="25" height="25" as="geometry"/>
                </mxCell>
                <mxCell id="e0kCnVlTJtBXmfKh73T_-6" value="04&amp;nbsp;" style="ellipse;whiteSpace=wrap;html=1;aspect=fixed;fillColor=#00CC00;strokeWidth=3;strokeColor=#FFFFFF;fontColor=#00CC00;labelPosition=left;verticalLabelPosition=middle;align=right;verticalAlign=middle;fontSize=30;fontStyle=1" vertex="1" parent="1">
                    <mxGeometry x="938.5" y="685" width="25" height="25" as="geometry"/>
                </mxCell>
                <mxCell id="e0kCnVlTJtBXmfKh73T_-7" value="05&amp;nbsp;" style="ellipse;whiteSpace=wrap;html=1;aspect=fixed;fillColor=#9933FF;strokeWidth=3;strokeColor=#FFFFFF;fontStyle=1;labelPosition=left;verticalLabelPosition=middle;align=right;verticalAlign=middle;fontSize=30;fontColor=#9933FF;" vertex="1" parent="1">
                    <mxGeometry x="862.5" y="840" width="25" height="25" as="geometry"/>
                </mxCell>
                <mxCell id="e0kCnVlTJtBXmfKh73T_-8" value="项目名称" style="text;html=1;strokeColor=none;fillColor=none;align=center;verticalAlign=middle;whiteSpace=wrap;rounded=0;fontSize=30;fontStyle=1" vertex="1" parent="1">
                    <mxGeometry x="780" y="470" width="20" height="190" as="geometry"/>
                </mxCell>
                <mxCell id="e0kCnVlTJtBXmfKh73T_-9" value="&lt;h1&gt;&lt;font color=&quot;#ff66b3&quot;&gt;标题&lt;/font&gt;&lt;/h1&gt;&lt;p&gt;&lt;font style=&quot;font-size: 16px&quot;&gt;这里可以填写详细内容，这里填写详细内容，这里填写详细内容这里填写详细内容，这里填写详细内容，这里填写详细内容。&lt;/font&gt;&lt;/p&gt;" style="text;html=1;strokeColor=none;fillColor=none;spacing=5;spacingTop=-20;whiteSpace=wrap;overflow=hidden;rounded=0;" vertex="1" parent="1">
                    <mxGeometry x="991.5" y="370" width="400" height="120" as="geometry"/>
                </mxCell>
                <mxCell id="e0kCnVlTJtBXmfKh73T_-10" value="&lt;h1&gt;&lt;font color=&quot;#ff9933&quot;&gt;标题&lt;/font&gt;&lt;/h1&gt;&lt;p&gt;&lt;font style=&quot;font-size: 16px&quot;&gt;这里可以填写详细内容，这里填写详细内容，这里填写详细内容这里填写详细内容，这里填写详细内容，这里填写详细内容。&lt;/font&gt;&lt;/p&gt;" style="text;html=1;strokeColor=none;fillColor=none;spacing=5;spacingTop=-20;whiteSpace=wrap;overflow=hidden;rounded=0;" vertex="1" parent="1">
                    <mxGeometry x="1016" y="525" width="400" height="120" as="geometry"/>
                </mxCell>
                <mxCell id="e0kCnVlTJtBXmfKh73T_-11" value="&lt;h1&gt;&lt;font color=&quot;#00cc00&quot;&gt;标题&lt;/font&gt;&lt;/h1&gt;&lt;p&gt;&lt;font style=&quot;font-size: 16px&quot;&gt;这里可以填写详细内容，这里填写详细内容，这里填写详细内容这里填写详细内容，这里填写详细内容，这里填写详细内容。&lt;/font&gt;&lt;/p&gt;" style="text;html=1;strokeColor=none;fillColor=none;spacing=5;spacingTop=-20;whiteSpace=wrap;overflow=hidden;rounded=0;" vertex="1" parent="1">
                    <mxGeometry x="989.5" y="680" width="400" height="120" as="geometry"/>
                </mxCell>
                <mxCell id="e0kCnVlTJtBXmfKh73T_-12" value="&lt;h1&gt;&lt;font color=&quot;#9933ff&quot;&gt;标题&lt;/font&gt;&lt;/h1&gt;&lt;p&gt;&lt;font style=&quot;font-size: 16px&quot;&gt;这里可以填写详细内容，这里填写详细内容，这里填写详细内容这里填写详细内容，这里填写详细内容，这里填写详细内容。&lt;/font&gt;&lt;/p&gt;" style="text;html=1;strokeColor=none;fillColor=none;spacing=5;spacingTop=-20;whiteSpace=wrap;overflow=hidden;rounded=0;" vertex="1" parent="1">
                    <mxGeometry x="914" y="835" width="400" height="120" as="geometry"/>
                </mxCell>
            </root>
        </mxGraphModel>
    </diagram>
</mxfile>